<?xml version="1.0" encoding="UTF-8"?><svg xmlns="http://www.w3.org/2000/svg" width="64px" height="64px" fill="none" stroke-width="0.8" viewBox="0 0 24 24" color="#00a5fe"><path stroke="#00a5fe" stroke-width="0.8" stroke-linecap="round" stroke-linejoin="round" d="M13.5 9v4m0 2v-2m0 0 1.37-1.566M17 9l-2.13 2.434m0 0L17 15M9.5 9l-3 4.5H10V15"></path><path stroke="#00a5fe" stroke-width="0.8" d="M2 18.4V5.6a.6.6 0 0 1 .6-.6h18.8a.6.6 0 0 1 .6.6v12.8a.6.6 0 0 1-.6.6H2.6a.6.6 0 0 1-.6-.6Z"></path></svg>