<?xml version="1.0" encoding="UTF-8"?><svg xmlns="http://www.w3.org/2000/svg" width="64px" height="64px" fill="none" stroke-width="0.8" viewBox="0 0 24 24" color="#00a5fe"><path stroke="#00a5fe" stroke-width="0.8" d="M3 19V5a2 2 0 0 1 2-2h14a2 2 0 0 1 2 2v14a2 2 0 0 1-2 2H5a2 2 0 0 1-2-2Z"></path><path stroke="#00a5fe" stroke-width="0.8" stroke-linecap="round" stroke-linejoin="round" d="m12.5 12.16 4-.16-.5 4.5M11.833 12 13.5 9.538 10.833 8 9.5 9.846"></path><path fill="#00a5fe" stroke="#00a5fe" stroke-width="0.8" stroke-linecap="round" stroke-linejoin="round" d="M15.5 7.5a.5.5 0 1 1 0-1 .5.5 0 0 1 0 1Z"></path><path stroke="#00a5fe" stroke-width="0.8" stroke-linecap="round" stroke-linejoin="round" d="M10.5 18a3 3 0 1 1 0-6 3 3 0 0 1 0 6Z"></path></svg>