<?xml version="1.0" encoding="UTF-8"?><svg xmlns="http://www.w3.org/2000/svg" width="64px" height="64px" fill="none" stroke-width="0.8" viewBox="0 0 24 24" color="#00a5fe"><path stroke="#00a5fe" stroke-width="0.8" stroke-linecap="round" stroke-linejoin="round" d="M21 7v10a4 4 0 0 1-4 4H7a4 4 0 0 1-4-4V7a4 4 0 0 1 4-4h10a4 4 0 0 1 4 4ZM8.5 8v8"></path><path stroke="#00a5fe" stroke-width="0.8" stroke-linecap="round" stroke-linejoin="round" d="M15.5 12v3.4a.6.6 0 0 1-.6.6h-1.4a2 2 0 0 1-2-2v0a2 2 0 0 1 2-2h2Zm0 0V9"></path></svg>