<?xml version="1.0" encoding="UTF-8"?><svg xmlns="http://www.w3.org/2000/svg" width="64px" height="64px" fill="none" stroke-width="0.8" viewBox="0 0 24 24" color="#00a5fe"><path stroke="#00a5fe" stroke-width="0.8" stroke-linecap="round" stroke-linejoin="round" stroke-miterlimit="1.5" d="M12 15a3 3 0 1 0 0-6 3 3 0 0 0 0 6Z"></path><path stroke="#00a5fe" stroke-width="0.8" stroke-linecap="round" stroke-linejoin="round" stroke-miterlimit="1.5" d="M12 9s-1.988-1.975-2-4c.001-1.993-.05-4.001 2-4 1.948.001 1.997 1.976 2 4 .003 1.985-2 4-2 4ZM15 12s1.975-1.988 4-2c1.993.001 4.001-.05 4 2-.001 1.948-1.976 1.997-4 2-1.985.003-4-2-4-2ZM9 12s-1.975 1.988-4 2c-1.993-.001-4.001.05-4-2 .001-1.948 1.976-1.997 4-2 1.985-.003 4 2 4 2ZM12 15s1.988 1.975 2 4c-.001 1.993.05 4.001-2 4-1.948-.001-1.997-1.976-2-4-.003-1.985 2-4 2-4Z" clip-rule="evenodd"></path></svg>