<?xml version="1.0" encoding="UTF-8"?><svg xmlns="http://www.w3.org/2000/svg" width="64px" height="64px" fill="none" stroke-width="0.8" viewBox="0 0 24 24" color="#00a5fe"><path stroke="#00a5fe" stroke-width="0.8" d="M2 17.4V2.6a.6.6 0 0 1 .6-.6h14.8a.6.6 0 0 1 .6.6v14.8a.6.6 0 0 1-.6.6H2.6a.6.6 0 0 1-.6-.6Z"></path><path stroke="#00a5fe" stroke-width="0.8" stroke-linecap="round" d="M8 22h13.4a.6.6 0 0 0 .6-.6V8M11 12.5a1.5 1.5 0 1 1-3 0 1.5 1.5 0 0 1 3 0Zm0 0V6.6a.6.6 0 0 1 .6-.6H13"></path></svg>