<?xml version="1.0" encoding="UTF-8"?><svg xmlns="http://www.w3.org/2000/svg" width="64px" height="64px" fill="none" stroke-width="0.8" viewBox="0 0 24 24" color="#00a5fe"><path stroke="#00a5fe" stroke-width="0.8" d="M2 15V9a6 6 0 0 1 6-6h8a6 6 0 0 1 6 6v6a6 6 0 0 1-6 6H8a6 6 0 0 1-6-6Z"></path><path stroke="#00a5fe" stroke-width="0.8" stroke-linecap="round" stroke-linejoin="round" d="M15 9s1 1.125 1 3-1 3-1 3M12 12.01l.01-.011M17 7s2 1.786 2 5-2 5-2 5M9 9s-1 1.125-1 3 1 3 1 3M7 7s-2 1.786-2 5 2 5 2 5"></path></svg>