<?xml version="1.0" encoding="UTF-8"?><svg xmlns="http://www.w3.org/2000/svg" width="64px" height="64px" fill="none" stroke-width="0.8" viewBox="0 0 24 24" color="#00a5fe"><g stroke="#00a5fe" stroke-width="0.8" clip-path="url(#apple-shortcuts_svg__a)"><path d="m9.852 14.633-6.2-3.946a2 2 0 0 1 0-3.374l6.2-3.946a4 4 0 0 1 4.296 0l6.2 3.946a2 2 0 0 1 0 3.374l-6.2 3.946a4 4 0 0 1-4.296 0Z"></path><path d="m18.286 12 2.063 1.313a2 2 0 0 1 0 3.374l-6.201 3.946a4 4 0 0 1-4.296 0l-6.2-3.946a2 2 0 0 1 0-3.374L5.714 12"></path></g><defs><clipPath id="apple-shortcuts_svg__a"><path fill="#fff" d="M0 0h24v24H0z"></path></clipPath></defs></svg>