<?xml version="1.0" encoding="UTF-8"?><svg xmlns="http://www.w3.org/2000/svg" width="64px" height="64px" fill="none" stroke-width="0.8" viewBox="0 0 24 24" color="#00a5fe"><path stroke="#00a5fe" stroke-width="0.8" stroke-linecap="round" stroke-linejoin="round" d="M7 6h10M7 9h10M9 17h6"></path><path stroke="#00a5fe" stroke-width="0.8" d="M3 12h-.4a.6.6 0 0 0-.6.6v8.8a.6.6 0 0 0 .6.6h18.8a.6.6 0 0 0 .6-.6v-8.8a.6.6 0 0 0-.6-.6H21M3 12V2.6a.6.6 0 0 1 .6-.6h16.8a.6.6 0 0 1 .6.6V12M3 12h18"></path></svg>