<?xml version="1.0" encoding="UTF-8"?><svg xmlns="http://www.w3.org/2000/svg" width="64px" height="64px" fill="none" stroke-width="0.8" viewBox="0 0 24 24" color="#00a5fe"><path stroke="#00a5fe" stroke-width="0.8" stroke-linecap="round" stroke-linejoin="round" d="m12 9 1.5 6L15 9M18 15V9"></path><path stroke="#00a5fe" stroke-width="0.8" stroke-linecap="round" d="M4 6V3.6a.6.6 0 0 1 .6-.6h14.8a.6.6 0 0 1 .6.6V6M4 18v2.4a.6.6 0 0 0 .6.6h14.8a.6.6 0 0 0 .6-.6V18"></path><path stroke="#00a5fe" stroke-width="0.8" stroke-linecap="round" stroke-linejoin="round" d="M6 15v-3m0 0v-1.5A1.5 1.5 0 0 1 7.5 9v0A1.5 1.5 0 0 1 9 10.5V12m-3 0h3m0 0v3"></path></svg>