<?xml version="1.0" encoding="UTF-8"?><svg xmlns="http://www.w3.org/2000/svg" width="64px" height="64px" fill="none" stroke-width="0.8" viewBox="0 0 24 24" color="#00a5fe"><path stroke="#00a5fe" stroke-width="0.8" stroke-linecap="round" stroke-linejoin="round" d="M3 13a9 9 0 1 0 9-9M9 9v7"></path><path stroke="#00a5fe" stroke-width="0.8" stroke-linecap="round" stroke-linejoin="round" d="M15 9h-2a1 1 0 0 0-1 1v1.5a1 1 0 0 0 1 1h1a1 1 0 0 1 1 1V15a1 1 0 0 1-1 1h-2M12 4H4.5m0 0 2-2m-2 2 2 2"></path></svg>