<?xml version="1.0" encoding="UTF-8"?><svg xmlns="http://www.w3.org/2000/svg" width="64px" height="64px" fill="none" stroke-width="0.8" viewBox="0 0 24 24" color="#00a5fe"><path stroke="#00a5fe" stroke-width="0.8" d="M12 5h9.4a.6.6 0 0 1 .6.6v12.8a.6.6 0 0 1-.6.6H12m0-14H2.6a.6.6 0 0 0-.6.6v12.8a.6.6 0 0 0 .6.6H12m0-14v14"></path><path stroke="#00a5fe" stroke-width="0.8" stroke-linecap="round" stroke-linejoin="round" d="M12 15a3 3 0 1 1 0-6 3 3 0 0 1 0 6ZM2 17A5 5 0 0 0 2 7M22 17a5 5 0 0 1 0-10"></path></svg>