<?xml version="1.0" encoding="UTF-8"?><svg xmlns="http://www.w3.org/2000/svg" width="64px" height="64px" fill="none" stroke-width="0.8" viewBox="0 0 24 24" color="#00a5fe"><path stroke="#00a5fe" stroke-width="0.8" stroke-linecap="round" stroke-linejoin="round" d="M21 8v8a5 5 0 0 1-5 5H8a5 5 0 0 1-5-5V8a5 5 0 0 1 5-5h8a5 5 0 0 1 5 5Z"></path><path stroke="#00a5fe" stroke-width="0.8" stroke-linecap="round" stroke-linejoin="round" d="M9.099 11.826c2.535 0 2.535 4.174 0 4.174H6v-4.174m3.099 0H6m3.099 0c2.535 0 2.535-3.826 0-3.826H6v3.826M15.5 11a2.5 2.5 0 0 0-2.5 2.5h5a2.5 2.5 0 0 0-2.5-2.5ZM13 13.5a2.5 2.5 0 0 0 2.5 2.5c.928 0 1.49-.322 1.813-.62M17 8.5h-3"></path></svg>