<?xml version="1.0" encoding="UTF-8"?><svg xmlns="http://www.w3.org/2000/svg" width="64px" height="64px" fill="none" stroke-width="0.8" viewBox="0 0 24 24" color="#00a5fe"><path stroke="#00a5fe" stroke-width="0.8" d="M9 12v4.394c0 .332.269.6.6.602 2.966.018 5.4.076 5.4-2.496 0-2.744-3-2.5-6-2.5Zm0 0V7.606c0-.331.269-.6.6-.602C12.566 6.986 15 6.928 15 9.5c0 2.744-3 2.5-6 2.5Z"></path><path stroke="#00a5fe" stroke-width="0.8" stroke-linecap="round" stroke-linejoin="round" d="M12 7V5.5M12 18.5V17M12 22C6.477 22 2 17.523 2 12S6.477 2 12 2s10 4.477 10 10-4.477 10-10 10Z"></path></svg>