<?xml version="1.0" encoding="UTF-8"?><svg xmlns="http://www.w3.org/2000/svg" width="64px" height="64px" fill="none" stroke-width="0.8" viewBox="0 0 24 24" color="#00a5fe"><path stroke="#00a5fe" stroke-width="0.8" stroke-linecap="round" stroke-linejoin="round" d="m4 20.01.01-.011M4 16.01l.01-.011M4 8.01l.01-.011M4 4.01l.01-.011M8 4.01l.01-.011M16 4.01l.01-.011M20 4.01l.01-.011M20 8.01l.01-.011M8 20.01l.01-.011M16 20.01l.01-.011M20 20.01l.01-.011M20 16.01l.01-.011M4 12h8m8 0h-8m0 0V4m0 8v8"></path></svg>