<?xml version="1.0" encoding="UTF-8"?><svg xmlns="http://www.w3.org/2000/svg" width="64px" height="64px" fill="none" stroke-width="0.8" viewBox="0 0 24 24" color="#00a5fe"><path stroke="#00a5fe" stroke-width="0.8" stroke-linecap="round" d="M12 21H4a2 2 0 0 1-2-2V5a2 2 0 0 1 2-2h16a2 2 0 0 1 2 2v7"></path><path stroke="#00a5fe" stroke-width="0.8" stroke-linecap="round" stroke-linejoin="round" d="M2 7h20M5 5.01l.01-.011M8 5.01l.01-.011M11 5.01l.01-.011"></path><path stroke="#00a5fe" stroke-width="0.8" d="m18 14 1.225 1.044 1.603.128.128 1.603L22 18l-1.044 1.225-.128 1.603-1.603.128L18 22l-1.225-1.044-1.603-.128-.128-1.603L14 18l1.044-1.225.128-1.603 1.603-.128L18 14Z"></path><path fill="#00a5fe" d="M16.775 20.956 18 22v-8l-1.225 1.044-1.603.128-.128 1.603L14 18l1.044 1.225.128 1.603 1.603.128Z"></path></svg>