<?xml version="1.0" encoding="UTF-8"?><svg xmlns="http://www.w3.org/2000/svg" width="64px" height="64px" fill="none" stroke-width="0.8" viewBox="0 0 24 24" color="#00a5fe"><path stroke="#00a5fe" stroke-width="0.8" d="m12 7 1.53 1.304 2.006.16.16 2.005L17 12l-1.305 1.53-.16 2.006-2.004.16L12 17l-1.53-1.305-2.006-.16-.16-2.004L7 12l1.304-1.53.16-2.006 2.005-.16L12 7Z"></path><path fill="#00a5fe" d="M10.47 15.695 12 17V7l-1.53 1.304-2.006.16-.16 2.005L7 12l1.304 1.53.16 2.006 2.005.16Z"></path><path stroke="#00a5fe" stroke-width="0.8" stroke-linecap="round" stroke-linejoin="round" d="M21 3.6v16.8a.6.6 0 0 1-.6.6H3.6a.6.6 0 0 1-.6-.6V3.6a.6.6 0 0 1 .6-.6h16.8a.6.6 0 0 1 .6.6Z"></path></svg>