<?xml version="1.0" encoding="UTF-8"?><svg xmlns="http://www.w3.org/2000/svg" width="64px" height="64px" fill="none" stroke-width="0.8" viewBox="0 0 24 24" color="#00a5fe"><path stroke="#00a5fe" stroke-width="0.8" stroke-linecap="round" stroke-linejoin="round" d="m7 16.01.01-.011M17 16.01l.01-.011M3 12h18v7a1 1 0 0 1-1 1H4a1 1 0 0 1-1-1v-7ZM21 8V6a4 4 0 0 0-4-4H7a4 4 0 0 0-4 4v2M7 8h10"></path><path stroke="#00a5fe" stroke-width="0.8" stroke-linecap="round" d="M4.5 20v1.9a.6.6 0 0 0 .6.6h2.8a.6.6 0 0 0 .6-.6V20M15.5 20v1.9a.6.6 0 0 0 .6.6h2.8a.6.6 0 0 0 .6-.6V20"></path></svg>