<?xml version="1.0" encoding="UTF-8"?><svg xmlns="http://www.w3.org/2000/svg" width="64px" height="64px" fill="none" stroke-width="0.8" viewBox="0 0 24 24" color="#00a5fe"><path stroke="#00a5fe" stroke-width="0.8" d="M1 21V3a2 2 0 0 1 2-2h18a2 2 0 0 1 2 2v18a2 2 0 0 1-2 2H3a2 2 0 0 1-2-2Z"></path><path stroke="#00a5fe" stroke-width="0.8" stroke-linecap="round" stroke-linejoin="round" d="M15 7h4M15 15.5h4M15 18.5h4M5 7h2m2 0H7m0 0V5m0 2v2M5.586 18.414 7 17m1.415-1.414L7 17m0 0-1.414-1.414M7 17l1.415 1.414"></path></svg>