<?xml version="1.0" encoding="UTF-8"?><svg xmlns="http://www.w3.org/2000/svg" width="64px" height="64px" fill="none" stroke-width="0.8" viewBox="0 0 24 24" color="#00a5fe"><path fill="#00a5fe" stroke="#00a5fe" stroke-width="0.8" stroke-linecap="round" stroke-linejoin="round" d="M19.5 22a1.5 1.5 0 1 0 0-3 1.5 1.5 0 0 0 0 3ZM9.5 22a1.5 1.5 0 1 0 0-3 1.5 1.5 0 0 0 0 3Z"></path><path stroke="#00a5fe" stroke-width="0.8" stroke-linecap="round" stroke-linejoin="round" d="M5 4h17l-2 11H7L5 4Zm0 0c-.167-.667-1-2-3-2M20 15H5.23c-1.784 0-2.73.781-2.73 2 0 1.219.946 2 2.73 2H19.5"></path></svg>