<?xml version="1.0" encoding="UTF-8"?><svg xmlns="http://www.w3.org/2000/svg" width="64px" height="64px" fill="none" stroke-width="0.8" viewBox="0 0 24 24" color="#00a5fe"><path stroke="#00a5fe" stroke-width="0.8" stroke-linecap="round" stroke-linejoin="round" d="m12 6-7.718 4.824a.6.6 0 0 0-.282.508V21.4a.6.6 0 0 0 .6.6H12m0-16 7.718 4.824a.6.6 0 0 1 .282.508V21.4a.6.6 0 0 1-.6.6H12m0-16V4m0-2v2m-2 0h2m0 0h2m-2 18v-5M16 17.01l.01-.011M16 13.01l.01-.011M12 13.01l.01-.011M8 13.01l.01-.011M8 17.01l.01-.011"></path></svg>