<?xml version="1.0" encoding="UTF-8"?><svg xmlns="http://www.w3.org/2000/svg" width="64px" height="64px" fill="none" stroke-width="0.8" viewBox="0 0 24 24" color="#00a5fe"><path stroke="#00a5fe" stroke-width="0.8" stroke-linecap="round" d="m12.147 18.28 1.184-5.8a.6.6 0 0 1 .588-.48h6.162a.6.6 0 0 1 .588.48l1.184 5.8a.6.6 0 0 1-.588.72h-8.53a.6.6 0 0 1-.588-.72Z"></path><path stroke="#00a5fe" stroke-width="0.8" stroke-linecap="round" d="m7.147 11.28 1.184-5.8A.6.6 0 0 1 8.918 5h6.164a.6.6 0 0 1 .587.48l1.184 5.8a.6.6 0 0 1-.588.72h-8.53a.6.6 0 0 1-.588-.72Z"></path><path stroke="#00a5fe" stroke-width="0.8" stroke-linecap="round" d="m2.147 18.28 1.184-5.8a.6.6 0 0 1 .587-.48h6.163a.6.6 0 0 1 .588.48l1.184 5.8a.6.6 0 0 1-.588.72h-8.53a.6.6 0 0 1-.588-.72Z"></path></svg>