<?xml version="1.0" encoding="UTF-8"?><svg xmlns="http://www.w3.org/2000/svg" width="64px" height="64px" fill="none" stroke-width="0.8" viewBox="0 0 24 24" color="#00a5fe"><path stroke="#00a5fe" stroke-width="0.8" stroke-linecap="round" stroke-linejoin="round" d="M12 22c5.523 0 10-4.477 10-10S17.523 2 12 2 2 6.477 2 12s4.477 10 10 10Z"></path><path stroke="#00a5fe" stroke-width="0.8" stroke-linecap="round" stroke-linejoin="round" d="M7.5 11a.5.5 0 1 1 0-1 .5.5 0 0 1 0 1ZM13 18a1 1 0 1 1 0-2 1 1 0 0 1 0 2ZM11 7.01l.01-.011M8 16.01l.01-.011M16 9.01l.01-.011M17 14.01l.01-.011M13 12.01l.01-.011"></path></svg>