<?xml version="1.0" encoding="UTF-8"?><svg xmlns="http://www.w3.org/2000/svg" width="64px" height="64px" fill="none" stroke-width="0.8" viewBox="0 0 24 24" color="#00a5fe"><path stroke="#00a5fe" stroke-width="0.8" stroke-linecap="round" stroke-linejoin="round" d="M22 11.429V18a2 2 0 0 1-2 2H7a2 2 0 0 1-2-2v-1.5m17-5.071V10a2 2 0 0 0-2-2h-1m3 3.429h-3"></path><path stroke="#00a5fe" stroke-width="0.8" stroke-linecap="round" stroke-linejoin="round" d="M19 8v6.5a2 2 0 0 1-2 2H4a2 2 0 0 1-2-2v-8a2 2 0 0 1 2-2h13a2 2 0 0 1 2 2V8Zm0 0H5.5"></path></svg>