<?xml version="1.0" encoding="UTF-8"?><svg xmlns="http://www.w3.org/2000/svg" width="64px" height="64px" fill="none" stroke-width="0.8" viewBox="0 0 24 24" color="#00a5fe"><path stroke="#00a5fe" stroke-width="0.8" stroke-linecap="round" stroke-linejoin="round" d="M3 5v16"></path><path stroke="#00a5fe" stroke-width="0.8" stroke-linejoin="round" d="M3 16h18M3 7h18M18 16V7M14 16V7M10 16V7M6 16V7M3 19h18"></path><path stroke="#00a5fe" stroke-width="0.8" stroke-linecap="round" stroke-linejoin="round" d="M21 5v16M21 5a1 1 0 1 0 0-2 1 1 0 0 0 0 2ZM3 5a1 1 0 1 0 0-2 1 1 0 0 0 0 2Z"></path></svg>