<?xml version="1.0" encoding="UTF-8"?><svg xmlns="http://www.w3.org/2000/svg" width="64px" height="64px" fill="none" stroke-width="0.8" viewBox="0 0 24 24" color="#00a5fe"><g stroke="#00a5fe" stroke-width="0.8" stroke-linecap="round" stroke-linejoin="round" clip-path="url(#cube-replace-face_svg__a)"><path d="M19 13.5v5.152a.6.6 0 0 1-.302.52l-6.4 3.658a.6.6 0 0 1-.596 0l-6.4-3.657A.6.6 0 0 1 5 18.652V13M12 22.5V17M23 8 11 1M13 15 1 8M1 8c3-5 7-2 10-7"></path><path d="M13 15c3-5 7-2 10-7"></path></g><defs><clipPath id="cube-replace-face_svg__a"><path fill="#fff" d="M0 0h24v24H0z"></path></clipPath></defs></svg>