<?xml version="1.0" encoding="UTF-8"?><svg xmlns="http://www.w3.org/2000/svg" width="64px" height="64px" fill="none" stroke-width="0.8" viewBox="0 0 24 24" color="#00a5fe"><path stroke="#00a5fe" stroke-width="0.8" stroke-linecap="round" stroke-linejoin="round" d="M5.164 17c.29-1.049.67-2.052 1.132-3M11.5 7.794A16.838 16.838 0 0 1 14 6.296M4.5 22a2.5 2.5 0 1 1 0-5 2.5 2.5 0 0 1 0 5Z"></path><path stroke="#00a5fe" stroke-width="0.8" stroke-linecap="round" stroke-linejoin="round" d="M9.5 12a2.5 2.5 0 1 1 0-5 2.5 2.5 0 0 1 0 5ZM19.5 7a2.5 2.5 0 1 1 0-5 2.5 2.5 0 0 1 0 5Z"></path></svg>