<?xml version="1.0" encoding="UTF-8"?><svg xmlns="http://www.w3.org/2000/svg" width="64px" height="64px" fill="none" stroke-width="0.8" viewBox="0 0 24 24" color="#00a5fe"><path stroke="#00a5fe" stroke-width="0.8" d="M2 15V9a6 6 0 0 1 6-6h8a6 6 0 0 1 6 6v6a6 6 0 0 1-6 6H8a6 6 0 0 1-6-6Z"></path><path stroke="#00a5fe" stroke-width="0.8" stroke-linecap="round" stroke-linejoin="round" d="M16.357 12c.714 0 2.143 0 2.143-2s-1.429-2-2.143-2H13.5v4m2.857 0H13.5m2.857 0c.714 0 2.143 0 2.143 2s-1.429 2-2.143 2H13.5v-4M8.357 8H5.5v8h2.857c.714 0 2.143 0 2.143-2v-4c0-2-1.429-2-2.143-2Z"></path></svg>