<?xml version="1.0" encoding="UTF-8"?><svg xmlns="http://www.w3.org/2000/svg" width="64px" height="64px" fill="none" stroke-width="0.8" viewBox="0 0 24 24" color="#00a5fe"><g stroke="#00a5fe" stroke-width="0.8" stroke-linecap="round" stroke-linejoin="round" clip-path="url(#design-nib_svg__a)"><path d="m17.674 11.408-1.905 5.715a.6.6 0 0 1-.398.386L3.693 20.98a.6.6 0 0 1-.74-.765L6.745 8.841a.6.6 0 0 1 .34-.365l5.387-2.218a.6.6 0 0 1 .653.13l4.404 4.405a.6.6 0 0 1 .145.615ZM3.296 20.602l6.364-6.364"></path><path d="m17.792 11.056 2.828-2.829a2 2 0 0 0 0-2.828L18.5 3.277a2 2 0 0 0-2.829 0l-2.828 2.829M11.781 12.116a1.5 1.5 0 1 0-2.121 2.122 1.5 1.5 0 0 0 2.121-2.122Z"></path></g><defs><clipPath id="design-nib_svg__a"><path fill="#fff" d="M0 0h24v24H0z"></path></clipPath></defs></svg>