<?xml version="1.0" encoding="UTF-8"?><svg xmlns="http://www.w3.org/2000/svg" width="64px" height="64px" fill="none" stroke-width="0.8" viewBox="0 0 24 24" color="#00a5fe"><path stroke="#00a5fe" stroke-width="0.8" stroke-linecap="round" stroke-linejoin="round" d="M5 12a5 5 0 1 0 6 0M5 12V3h6v9M11 3h2M11 6h2M11 9h2"></path><path stroke="#00a5fe" stroke-width="0.8" stroke-linecap="round" stroke-linejoin="round" d="M8 14a2 2 0 1 0 0 4 2 2 0 0 0 0-4Zm0 0V9"></path><path stroke="#00a5fe" stroke-width="0.8" stroke-linecap="round" stroke-linejoin="round" stroke-miterlimit="1.5" d="M19 3s3 2.993 3 4.887c0 1.655-1.345 3-3 3-1.656 0-2.988-1.345-3-3C16.01 5.992 19 3 19 3Z" clip-rule="evenodd"></path></svg>