<?xml version="1.0" encoding="UTF-8"?><svg xmlns="http://www.w3.org/2000/svg" width="64px" height="64px" fill="none" stroke-width="0.8" viewBox="0 0 24 24" color="#00a5fe"><path fill="#00a5fe" stroke="#00a5fe" stroke-width="0.8" stroke-linecap="round" stroke-linejoin="round" d="M5.5 5a.5.5 0 1 1 0-1 .5.5 0 0 1 0 1ZM5.5 10a.5.5 0 1 1 0-1 .5.5 0 0 1 0 1ZM5.5 15a.5.5 0 1 1 0-1 .5.5 0 0 1 0 1ZM12 5a.5.5 0 1 1 0-1 .5.5 0 0 1 0 1ZM12 10a.5.5 0 1 1 0-1 .5.5 0 0 1 0 1ZM12 15a.5.5 0 1 1 0-1 .5.5 0 0 1 0 1ZM12 20a.5.5 0 1 1 0-1 .5.5 0 0 1 0 1ZM18.5 5a.5.5 0 1 1 0-1 .5.5 0 0 1 0 1ZM18.5 10a.5.5 0 1 1 0-1 .5.5 0 0 1 0 1ZM18.5 15a.5.5 0 1 1 0-1 .5.5 0 0 1 0 1Z"></path></svg>