<?xml version="1.0" encoding="UTF-8"?><svg xmlns="http://www.w3.org/2000/svg" width="64px" height="64px" fill="none" stroke-width="0.8" viewBox="0 0 24 24" color="#00a5fe"><path stroke="#00a5fe" stroke-width="0.8" stroke-linecap="round" d="m14.25 14.75.25-2.25.426-3.834A.6.6 0 0 0 14.33 8H9.67a.6.6 0 0 0-.596.666l.867 7.8a.6.6 0 0 0 .596.534H11"></path><path stroke="#00a5fe" stroke-width="0.8" stroke-linecap="round" stroke-linejoin="round" stroke-miterlimit="1.5" d="M4.5 7a2.5 2.5 0 1 0 0-5 2.5 2.5 0 0 0 0 5Z"></path><path stroke="#00a5fe" stroke-width="0.8" stroke-linecap="round" stroke-linejoin="round" d="M4.5 4.5 9 8M4.5 19.5l5-4M19.5 4.5 15 8"></path><path stroke="#00a5fe" stroke-width="0.8" stroke-linecap="round" stroke-linejoin="round" stroke-miterlimit="1.5" d="M4.5 22a2.5 2.5 0 1 0 0-5 2.5 2.5 0 0 0 0 5ZM19.5 7a2.5 2.5 0 1 0 0-5 2.5 2.5 0 0 0 0 5Z"></path><path stroke="#00a5fe" stroke-width="0.8" stroke-linecap="round" stroke-linejoin="round" d="M23 19v2M15 19v2M17 19v2M19 19v2"></path><path stroke="#00a5fe" stroke-width="0.8" d="M13 22.4v-4.8a.6.6 0 0 1 .6-.6h6.8a.6.6 0 0 1 .6.6v4.8a.6.6 0 0 1-.6.6h-6.8a.6.6 0 0 1-.6-.6Z"></path></svg>