<?xml version="1.0" encoding="UTF-8"?><svg xmlns="http://www.w3.org/2000/svg" width="64px" height="64px" fill="none" stroke-width="0.8" viewBox="0 0 24 24" color="#00a5fe"><path stroke="#00a5fe" stroke-width="0.8" stroke-linecap="round" stroke-linejoin="round" d="M21 5v4"></path><path stroke="#00a5fe" stroke-width="0.8" d="M5 19V9a2 2 0 0 1 2-2h9a2 2 0 0 1 2 2v10a2 2 0 0 1-2 2H7a2 2 0 0 1-2-2Z"></path><path stroke="#00a5fe" stroke-width="0.8" d="M5 10V5a2 2 0 0 1 2-2h9a2 2 0 0 1 2 2v5"></path><path stroke="#00a5fe" stroke-width="0.8" stroke-linecap="round" stroke-linejoin="round" d="M11.167 11 9.5 14h4l-1.667 3"></path></svg>