<?xml version="1.0" encoding="UTF-8"?><svg xmlns="http://www.w3.org/2000/svg" width="64px" height="64px" fill="none" stroke-width="0.8" viewBox="0 0 24 24" color="#00a5fe"><path stroke="#00a5fe" stroke-width="0.8" stroke-linecap="round" stroke-linejoin="round" d="M10.5 15h-.9a.6.6 0 0 0-.6.6v4.8a.6.6 0 0 0 .6.6h10.8a.6.6 0 0 0 .6-.6V9.6a.6.6 0 0 0-.6-.6h-4.8a.6.6 0 0 0-.6.6v.9"></path><path stroke="#00a5fe" stroke-width="0.8" stroke-linecap="round" stroke-linejoin="round" d="M13.5 15h.9a.6.6 0 0 0 .6-.6v-.9M9 13.5v.9a.6.6 0 0 1-.6.6H3.6a.6.6 0 0 1-.6-.6V3.6a.6.6 0 0 1 .6-.6h10.8a.6.6 0 0 1 .6.6v4.8a.6.6 0 0 1-.6.6h-.9"></path><path stroke="#00a5fe" stroke-width="0.8" stroke-linecap="round" stroke-linejoin="round" d="M9 10.5v-.9a.6.6 0 0 1 .6-.6h.9"></path></svg>