<?xml version="1.0" encoding="UTF-8"?><svg xmlns="http://www.w3.org/2000/svg" width="64px" height="64px" fill="none" stroke-width="0.8" viewBox="0 0 24 24" color="#00a5fe"><path stroke="#00a5fe" stroke-width="0.8" stroke-linecap="round" stroke-linejoin="round" d="M6 6a3 3 0 0 1 3-3h3v6H9a3 3 0 0 1-3-3ZM12 3h3a3 3 0 0 1 0 6h-3V3Z"></path><path stroke="#00a5fe" stroke-width="0.8" stroke-linecap="round" stroke-linejoin="round" d="M12 12a3 3 0 1 1 6 0 3 3 0 0 1-6 0v0ZM6 18a3 3 0 0 1 3-3h3v3a3 3 0 0 1-6 0ZM6 12a3 3 0 0 1 3-3h3v6H9a3 3 0 0 1-3-3Z"></path></svg>