<?xml version="1.0" encoding="UTF-8"?><svg xmlns="http://www.w3.org/2000/svg" width="64px" height="64px" fill="none" stroke-width="0.8" viewBox="0 0 24 24" color="#00a5fe"><path stroke="#00a5fe" stroke-width="0.8" stroke-linecap="round" stroke-linejoin="round" d="M3 15V9a6 6 0 0 1 6-6h6a6 6 0 0 1 6 6v6a6 6 0 0 1-6 6H9a6 6 0 0 1-6-6Z"></path><path stroke="#00a5fe" stroke-width="0.8" stroke-linecap="round" stroke-linejoin="round" d="M15 3s-4.5 0-4.5 9H13c0 9 2 9 2 9"></path><path stroke="#00a5fe" stroke-width="0.8" stroke-linecap="round" stroke-linejoin="round" d="M16.5 14.5s-1.5 2-4.5 2-4.5-2-4.5-2M7 9v2M17 9v2"></path></svg>