<?xml version="1.0" encoding="UTF-8"?><svg xmlns="http://www.w3.org/2000/svg" width="64px" height="64px" fill="none" stroke-width="0.8" viewBox="0 0 24 24" color="#00a5fe"><path stroke="#00a5fe" stroke-width="0.8" stroke-linecap="round" stroke-linejoin="round" d="M7 3.516A9.004 9.004 0 0 1 20.648 8.5M21 22v-8M3 22V11c0-1.052.18-2.062.512-3"></path><path stroke="#00a5fe" stroke-width="0.8" stroke-linecap="round" stroke-linejoin="round" d="M18 22V11.3C18 7.82 15.314 5 12 5s-6 2.82-6 6.3V14M6 22v-4"></path><path stroke="#00a5fe" stroke-width="0.8" stroke-linecap="round" stroke-linejoin="round" d="M9 22V11.15C9 9.41 10.343 8 12 8c.865 0 1.645.385 2.193 1M15 22v-8M12 22v-3.5M12 11v3"></path></svg>