<?xml version="1.0" encoding="UTF-8"?><svg xmlns="http://www.w3.org/2000/svg" width="64px" height="64px" fill="none" stroke-width="0.8" viewBox="0 0 24 24" color="#00a5fe"><path stroke="#00a5fe" stroke-width="0.8" stroke-linecap="round" stroke-linejoin="round" d="M2.6 4h6.178a.6.6 0 0 1 .39.144l3.164 2.712a.6.6 0 0 0 .39.144H21.4a.6.6 0 0 1 .6.6v2.8a.6.6 0 0 1-.6.6H2.6a.6.6 0 0 1-.6-.6V4.6a.6.6 0 0 1 .6-.6ZM22 10v4"></path><path stroke="#00a5fe" stroke-width="0.8" stroke-linecap="round" stroke-linejoin="round" d="M2 10v9.4a.6.6 0 0 0 .6.6H13M19 21a2 2 0 1 0 0-4 2 2 0 0 0 0 4Z"></path><path stroke="#00a5fe" stroke-width="0.8" stroke-dasharray="0.3 2" stroke-linecap="round" stroke-linejoin="round" d="M19 22a3 3 0 1 0 0-6 3 3 0 0 0 0 6Z"></path></svg>