<?xml version="1.0" encoding="UTF-8"?><svg xmlns="http://www.w3.org/2000/svg" width="64px" height="64px" fill="none" stroke-width="0.8" viewBox="0 0 24 24" color="#00a5fe"><path stroke="#00a5fe" stroke-width="0.8" stroke-linecap="round" stroke-linejoin="round" stroke-miterlimit="1.5" d="M4.998 2.001H2v2.998h2.998V2.001ZM4.998 10.502H2V13.5h2.998v-2.998ZM20.498 5v5.503M3.5 5v5.503M20.498 13.502v5.502M3.5 13.502v5.502M4.999 20.502h5.5"></path><path stroke="#00a5fe" stroke-width="0.8" stroke-linecap="round" stroke-linejoin="round" stroke-miterlimit="1.5" d="M4.999 3.503h5.5"></path><path stroke="#00a5fe" stroke-width="0.8" stroke-linecap="round" stroke-linejoin="round" stroke-miterlimit="1.5" d="M13.498 20.499h5.5"></path><path stroke="#00a5fe" stroke-width="0.8" stroke-linecap="round" stroke-linejoin="round" stroke-miterlimit="1.5" d="M13.498 3.501h5.5"></path><path stroke="#00a5fe" stroke-width="0.8" stroke-linecap="round" stroke-linejoin="round" stroke-miterlimit="1.5" d="M4.998 19.001H2v2.998h2.998v-2.998ZM21.997 2.002H19V5h2.998V2.002ZM13.497 2H10.5v2.998h2.998V2ZM21.997 10.503H19V13.5h2.998v-2.998ZM21.997 19.002H19V22h2.998v-2.998ZM13.497 19H10.5v2.998h2.998V19Z"></path></svg>