<?xml version="1.0" encoding="UTF-8"?><svg xmlns="http://www.w3.org/2000/svg" width="64px" height="64px" fill="none" stroke-width="0.8" viewBox="0 0 24 24" color="#00a5fe"><path stroke="#00a5fe" stroke-width="0.8" d="M17.057 2.544a.2.2 0 0 1 .378-.008l3.114 8.31 1.398 3.73a.2.2 0 0 1-.07.232l-9.76 7.106a.2.2 0 0 1-.235 0l-9.76-7.106a.2.2 0 0 1-.069-.231l1.398-3.73.167-.45 2.944-7.861a.2.2 0 0 1 .378.008l2.47 7.6a.2.2 0 0 0 .19.137h4.8a.2.2 0 0 0 .19-.138l2.467-7.599Z" clip-rule="evenodd"></path></svg>