<?xml version="1.0" encoding="UTF-8"?><svg xmlns="http://www.w3.org/2000/svg" width="64px" height="64px" fill="none" stroke-width="0.8" viewBox="0 0 24 24" color="#00a5fe"><path stroke="#00a5fe" stroke-width="0.8" stroke-linecap="round" stroke-linejoin="round" d="m2 11 2.807-3.157A4 4 0 0 1 7.797 6.5H8M2 19.5h5.5l4-3s.81-.547 2-1.5c2.5-2 0-5.166-2.5-3.5C8.964 12.857 7 14 7 14"></path><path stroke="#00a5fe" stroke-width="0.8" d="M8 13.5V7a2 2 0 0 1 2-2h10a2 2 0 0 1 2 2v6a2 2 0 0 1-2 2h-6.5"></path><path stroke="#00a5fe" stroke-width="0.8" stroke-linecap="round" stroke-linejoin="round" d="M15 12a2 2 0 1 1 0-4 2 2 0 0 1 0 4ZM19.5 10.01l.01-.011M10.5 10.01l.01-.011"></path></svg>