<?xml version="1.0" encoding="UTF-8"?><svg xmlns="http://www.w3.org/2000/svg" width="64px" height="64px" fill="none" stroke-width="0.8" viewBox="0 0 24 24" color="#00a5fe"><g clip-path="url(#hexagon-alt_svg__a)"><path stroke="#00a5fe" stroke-width="0.8" stroke-linecap="round" stroke-linejoin="round" d="M6.327 2.774a.6.6 0 0 1 .52-.3h10.307a.6.6 0 0 1 .52.3l5.153 8.926a.6.6 0 0 1 0 .6l-5.154 8.926a.6.6 0 0 1-.52.3H6.847a.6.6 0 0 1-.52-.3L1.174 12.3a.6.6 0 0 1 0-.6l5.154-8.926Z"></path></g><defs><clipPath id="hexagon-alt_svg__a"><path fill="#fff" d="M0 0h24v24H0z"></path></clipPath></defs></svg>