<?xml version="1.0" encoding="UTF-8"?><svg xmlns="http://www.w3.org/2000/svg" width="64px" height="64px" fill="none" stroke-width="0.8" viewBox="0 0 24 24" color="#00a5fe"><path stroke="#00a5fe" stroke-width="0.8" stroke-linecap="round" stroke-linejoin="round" d="M14 12h.4a.6.6 0 0 1 .6.6v2.8a.6.6 0 0 1-.6.6H9.6a.6.6 0 0 1-.6-.6v-2.8a.6.6 0 0 1 .6-.6h.4m4 0v-2c0-.667-.4-2-2-2s-2 1.333-2 2v2m4 0h-4"></path><path stroke="#00a5fe" stroke-width="0.8" stroke-linecap="round" stroke-linejoin="round" d="m2 8 9.732-4.866a.6.6 0 0 1 .536 0L22 8M20 11v8a2 2 0 0 1-2 2H6a2 2 0 0 1-2-2v-8"></path></svg>