<?xml version="1.0" encoding="UTF-8"?><svg xmlns="http://www.w3.org/2000/svg" width="64px" height="64px" fill="none" stroke-width="0.8" viewBox="0 0 24 24" color="#00a5fe"><path stroke="#00a5fe" stroke-width="0.8" stroke-linecap="round" stroke-linejoin="round" d="M22 12c0-5.523-4.477-10-10-10S2 6.477 2 12s4.477 10 10 10"></path><path stroke="#00a5fe" stroke-width="0.8" stroke-linecap="round" stroke-linejoin="round" d="M13 2.05S16 6 16 12M11 21.95S8 18 8 12c0-6 3-9.95 3-9.95M2.63 15.5H12M2.63 8.5h18.74"></path><path stroke="#00a5fe" stroke-width="0.8" d="M21.879 17.917c.494.304.463 1.043-.045 1.101l-2.567.291-1.151 2.312c-.228.459-.933.234-1.05-.334l-1.255-6.116c-.099-.48.333-.782.75-.525l5.318 3.271Z" clip-rule="evenodd"></path></svg>