<?xml version="1.0" encoding="UTF-8"?><svg xmlns="http://www.w3.org/2000/svg" width="64px" height="64px" fill="none" stroke-width="0.8" viewBox="0 0 24 24" color="#00a5fe"><path stroke="#00a5fe" stroke-width="0.8" stroke-linecap="round" stroke-linejoin="round" d="M6 6h8M6 10h12M13 14h5M13 18h5M2 21.4V2.6a.6.6 0 0 1 .6-.6h15.652a.6.6 0 0 1 .424.176l3.148 3.148A.6.6 0 0 1 22 5.75V21.4a.6.6 0 0 1-.6.6H2.6a.6.6 0 0 1-.6-.6Z"></path><path stroke="#00a5fe" stroke-width="0.8" stroke-linecap="round" stroke-linejoin="round" d="M6 18v-4h3v4H6ZM18 2v3.4a.6.6 0 0 0 .6.6H22"></path></svg>