<?xml version="1.0" encoding="UTF-8"?><svg xmlns="http://www.w3.org/2000/svg" width="64px" height="64px" fill="none" stroke-width="0.8" viewBox="0 0 24 24" color="#00a5fe"><path fill="#00a5fe" stroke="#00a5fe" stroke-width="0.8" stroke-linecap="round" stroke-linejoin="round" d="M8 17a.5.5 0 1 1 0-1 .5.5 0 0 1 0 1ZM12 17a.5.5 0 1 1 0-1 .5.5 0 0 1 0 1ZM16 17a.5.5 0 1 1 0-1 .5.5 0 0 1 0 1Z"></path><path stroke="#00a5fe" stroke-width="0.8" stroke-linecap="round" stroke-linejoin="round" d="M21 21H3a1 1 0 0 1-1-1V4a1 1 0 0 1 1-1h18a1 1 0 0 1 1 1v16a1 1 0 0 1-1 1ZM2 17.5l2-1M22 17.5l-2-1"></path></svg>