<?xml version="1.0" encoding="UTF-8"?><svg xmlns="http://www.w3.org/2000/svg" width="64px" height="64px" fill="none" stroke-width="0.8" viewBox="0 0 24 24" color="#00a5fe"><path stroke="#00a5fe" stroke-width="0.8" stroke-linecap="round" stroke-linejoin="round" d="m9 19-5.21 1.737a.6.6 0 0 1-.79-.57V5.433a.6.6 0 0 1 .41-.569L9 3m0 16 5.21 1.737a.6.6 0 0 0 .79-.57V5.433a.6.6 0 0 0-.41-.569L9 3m0 16V3M15 5l5.21-1.737a.6.6 0 0 1 .79.57V15M17.121 22.364l2.122-2.121m0 0 2.121-2.122m-2.121 2.122L17.12 18.12m2.122 2.122 2.121 2.121"></path></svg>