<?xml version="1.0" encoding="UTF-8"?><svg xmlns="http://www.w3.org/2000/svg" width="64px" height="64px" fill="none" stroke-width="0.8" viewBox="0 0 24 24" color="#00a5fe"><path stroke="#00a5fe" stroke-width="0.8" stroke-linecap="round" stroke-linejoin="round" d="M21 7.6v12.8a.6.6 0 0 1-.6.6H7.6a.6.6 0 0 1-.6-.6V7.6a.6.6 0 0 1 .6-.6h12.8a.6.6 0 0 1 .6.6Z"></path><path stroke="#00a5fe" stroke-width="0.8" stroke-linecap="round" stroke-linejoin="round" d="M18 4H4.6a.6.6 0 0 0-.6.6V18M7 16.8l5.444-1.8L21 18M16.5 13a1.5 1.5 0 1 1 0-3 1.5 1.5 0 0 1 0 3Z"></path></svg>