<?xml version="1.0" encoding="UTF-8"?><svg xmlns="http://www.w3.org/2000/svg" width="64px" height="64px" fill="none" stroke-width="0.8" viewBox="0 0 24 24" color="#00a5fe"><path stroke="#00a5fe" stroke-width="0.8" stroke-linecap="round" stroke-linejoin="round" d="M19 22H7m-2 0h2m0 0v-3M19 16h-9M16 2h-4M12 7c-3 0-5 1-5 4v2M16 4.6v6.8a.6.6 0 0 1-.6.6h-2.8a.6.6 0 0 1-.6-.6V4.6a.6.6 0 0 1 .6-.6h2.8a.6.6 0 0 1 .6.6Z"></path><path stroke="#00a5fe" stroke-width="0.8" stroke-linecap="round" stroke-linejoin="round" d="M7 19a3 3 0 1 1 0-6 3 3 0 0 1 0 6Z"></path></svg>