<?xml version="1.0" encoding="UTF-8"?>
<!DOCTYPE svg PUBLIC "-//W3C//DTD SVG 1.1//EN" "http://www.w3.org/Graphics/SVG/1.1/DTD/svg11.dtd">
<!-- Creator: CorelDRAW 2021 (64-Bit) -->
<svg xmlns="http://www.w3.org/2000/svg" xml:space="preserve" width="11.8531mm" height="14.6753mm" version="1.1" style="shape-rendering:geometricPrecision; text-rendering:geometricPrecision; image-rendering:optimizeQuality; fill-rule:evenodd; clip-rule:evenodd"
viewBox="0 0 1.53 1.89"
 xmlns:xlink="http://www.w3.org/1999/xlink"
 xmlns:xodm="http://www.corel.com/coreldraw/odm/2003">
 <defs>
  <style type="text/css">
   <![CDATA[
    .str0 {stroke:#00A5FE;stroke-width:0.07;stroke-linecap:round;stroke-miterlimit:22.9256}
    .fil0 {fill:none}
   ]]>
  </style>
 </defs>
 <g id="Layer_x0020_1">
  <metadata id="CorelCorpID_0Corel-Layer"/>
  <g id="_2884525607424">
   <path class="fil0 str0" d="M0.04 0.77l0 0.36c0,0.4 0.33,0.73 0.73,0.73 0.4,0 0.73,-0.33 0.73,-0.73l0 -0.46c0,-0.35 -0.29,-0.64 -0.64,-0.64l-0.09 -0c-0.4,0 -0.73,0.33 -0.73,0.73l-0 -0z"/>
   <path class="fil0 str0" d="M0.48 0.79l0.26 0.26c0.01,0.01 0.03,0.01 0.05,0l0.26 -0.26m-0.28 -0.54l0 0.79m-0.28 -0.53l0.26 -0.26c0.01,-0.01 0.03,-0.01 0.05,-0l0.26 0.26"/>
  </g>
 </g>
</svg>
