<?xml version="1.0" encoding="UTF-8"?><svg xmlns="http://www.w3.org/2000/svg" width="64px" height="64px" fill="none" stroke-width="0.8" viewBox="0 0 24 24" color="#00a5fe"><path stroke="#00a5fe" stroke-width="0.8" stroke-linecap="round" stroke-linejoin="round" d="M15 12v3M15 9c0-1-.714-2-2.143-2v0A2.857 2.857 0 0 1 10 4.143V3M18 9V4M18 12v3"></path><path stroke="#00a5fe" stroke-width="0.8" d="M15 15H6.6a.6.6 0 0 1-.6-.6v-1.8a.6.6 0 0 1 .6-.6H12"></path><path stroke="#00a5fe" stroke-width="0.8" stroke-linecap="round" stroke-linejoin="round" d="m5 5 14 14M12 22c5.523 0 10-4.477 10-10S17.523 2 12 2 2 6.477 2 12s4.477 10 10 10Z"></path><path stroke="#00a5fe" stroke-width="0.8" stroke-linecap="round" stroke-linejoin="round" d="M12 22c5.523 0 10-4.477 10-10S17.523 2 12 2 2 6.477 2 12s4.477 10 10 10Z"></path></svg>