<?xml version="1.0" encoding="UTF-8"?><svg xmlns="http://www.w3.org/2000/svg" width="64px" height="64px" fill="none" stroke-width="0.8" viewBox="0 0 24 24" color="#00a5fe"><path stroke="#00a5fe" stroke-width="0.8" d="M3 20.4V3.6a.6.6 0 0 1 .6-.6h16.8a.6.6 0 0 1 .6.6v16.8a.6.6 0 0 1-.6.6H3.6a.6.6 0 0 1-.6-.6Z"></path><path stroke="#00a5fe" stroke-width="0.8" stroke-linecap="round" stroke-linejoin="round" d="M12 16c-1.38 0-2.5-.5-2.5-2s1.12-2 2.5-2 2.5.5 2.5 2-1.12 2-2.5 2ZM12 8c-1.38 0-2.5.5-2.5 2s1.12 2 2.5 2 2.5-.5 2.5-2-1.12-2-2.5-2Z"></path></svg>