<?xml version="1.0" encoding="UTF-8"?><svg xmlns="http://www.w3.org/2000/svg" width="64px" height="64px" fill="none" stroke-width="0.8" viewBox="0 0 24 24" color="#00a5fe"><path stroke="#00a5fe" stroke-width="0.8" stroke-linecap="round" stroke-linejoin="round" d="M11.77 1.095a.6.6 0 0 1 .46 0l7.319 3.032a.6.6 0 0 1 .324.324l3.032 7.32a.6.6 0 0 1 0 .459l-3.032 7.319a.6.6 0 0 1-.324.324l-7.32 3.032a.6.6 0 0 1-.459 0l-7.319-3.032a.6.6 0 0 1-.324-.324l-3.032-7.32a.6.6 0 0 1 0-.459l3.032-7.319a.6.6 0 0 1 .324-.324l7.32-3.032Z"></path></svg>