<?xml version="1.0" encoding="UTF-8"?><svg xmlns="http://www.w3.org/2000/svg" width="64px" height="64px" fill="none" stroke-width="0.8" viewBox="0 0 24 24" color="#00a5fe"><path stroke="#00a5fe" stroke-width="0.8" d="M1 15V9a6 6 0 0 1 6-6h10a6 6 0 0 1 6 6v6a6 6 0 0 1-6 6H7a6 6 0 0 1-6-6Z"></path><path stroke="#00a5fe" stroke-width="0.8" d="M7 9a3 3 0 1 1 0 6 3 3 0 0 1 0-6Z"></path><path stroke="#00a5fe" stroke-width="0.8" stroke-linecap="round" stroke-linejoin="round" d="M12 15V9h3M17 15V9h3M12 12h2.572M17 12h2.572"></path></svg>