<?xml version="1.0" encoding="UTF-8"?><svg xmlns="http://www.w3.org/2000/svg" width="64px" height="64px" fill="none" stroke-width="0.8" viewBox="0 0 24 24" color="#00a5fe"><path stroke="#00a5fe" stroke-width="0.8" stroke-linecap="round" stroke-linejoin="round" d="M18 10c0-1-1-2-3-2h-1a3 3 0 0 1-3-3V2"></path><path stroke="#00a5fe" stroke-width="0.8" d="M9 10.8C9 9.033 6 6 6 6s-3 3.033-3 4.8S4.343 14 6 14s3-1.433 3-3.2Z"></path><path stroke="#00a5fe" stroke-width="0.8" stroke-linecap="round" stroke-linejoin="round" d="M18 21h3v-9h-3v4.5m0 4.5v-4.5m0 4.5h-7.5v-4.5l4-2.5 3.5 2.5M21 10c0-6-4-6-4-6s4 .5 4-2"></path></svg>