<?xml version="1.0" encoding="UTF-8"?>
<!DOCTYPE svg PUBLIC "-//W3C//DTD SVG 1.1//EN" "http://www.w3.org/Graphics/SVG/1.1/DTD/svg11.dtd">
<!-- Creator: CorelDRAW 2021 (64-Bit) -->
<svg xmlns="http://www.w3.org/2000/svg" xml:space="preserve" width="14.6756mm" height="14.6756mm" version="1.1" style="shape-rendering:geometricPrecision; text-rendering:geometricPrecision; image-rendering:optimizeQuality; fill-rule:evenodd; clip-rule:evenodd"
viewBox="0 0 2.36 2.36"
 xmlns:xlink="http://www.w3.org/1999/xlink"
 xmlns:xodm="http://www.corel.com/coreldraw/odm/2003">
 <defs>
  <style type="text/css">
   <![CDATA[
    .str0 {stroke:#00A5FE;stroke-width:0.09;stroke-linecap:round;stroke-linejoin:round;stroke-miterlimit:22.9256}
    .fil0 {fill:none}
   ]]>
  </style>
 </defs>
 <g id="Layer_x0020_1">
  <metadata id="CorelCorpID_0Corel-Layer"/>
  <path class="fil0 str0" d="M1.61 1.53c0.08,-0.1 0.13,-0.22 0.13,-0.36 0,-0.31 -0.25,-0.56 -0.56,-0.56 -0.31,0 -0.56,0.25 -0.56,0.56 0,0.13 0.05,0.26 0.13,0.35m0.57 -0.09c0.1,-0.05 0.16,-0.15 0.16,-0.27 0,-0.17 -0.13,-0.3 -0.3,-0.3 -0.17,0 -0.3,0.13 -0.3,0.3 0,0.12 0.07,0.22 0.16,0.27m0.28 0l0.18 0.82m-0.45 -0.82l-0.18 0.82m0.18 -0.82c-0.1,-0.05 -0.16,-0.15 -0.16,-0.27 0,-0.17 0.13,-0.3 0.3,-0.3 0.17,0 0.3,0.13 0.3,0.3 0,0.12 -0.07,0.22 -0.16,0.27m-0.57 0.09l-0.14 0.63m1 -0.62l0.14 0.63m-0.88 0.11c0.1,0.03 0.21,0.04 0.32,0.04 0.11,0 0.22,-0.02 0.32,-0.04m0.25 -0.11c0.34,-0.2 0.57,-0.56 0.57,-0.98 0,-0.63 -0.51,-1.13 -1.13,-1.13 -0.63,0 -1.13,0.51 -1.13,1.13 0,0.42 0.23,0.78 0.57,0.98"/>
 </g>
</svg>
