<?xml version="1.0" encoding="UTF-8"?><svg xmlns="http://www.w3.org/2000/svg" width="64px" height="64px" fill="none" stroke-width="0.8" viewBox="0 0 24 24" color="#00a5fe"><path stroke="#00a5fe" stroke-width="0.8" stroke-linecap="round" stroke-linejoin="round" d="M21 8v8a5 5 0 0 1-5 5H8a5 5 0 0 1-5-5V8a5 5 0 0 1 5-5h8a5 5 0 0 1 5 5Z"></path><path stroke="#00a5fe" stroke-width="0.8" d="M13.9 18h-3.8a.6.6 0 0 1-.6-.6v-2.3a.6.6 0 0 0-.6-.6H6.6a.6.6 0 0 1-.6-.6v-3.8a.6.6 0 0 1 .6-.6h2.3a.6.6 0 0 0 .6-.6V6.6a.6.6 0 0 1 .6-.6h3.8a.6.6 0 0 1 .6.6v2.3a.6.6 0 0 0 .6.6h2.3a.6.6 0 0 1 .6.6v3.8a.6.6 0 0 1-.6.6h-2.3a.6.6 0 0 0-.6.6v2.3a.6.6 0 0 1-.6.6Z"></path></svg>