<?xml version="1.0" encoding="UTF-8"?><svg xmlns="http://www.w3.org/2000/svg" width="64px" height="64px" fill="none" stroke-width="0.8" viewBox="0 0 24 24" color="#00a5fe"><path stroke="#00a5fe" stroke-width="0.8" stroke-linecap="round" stroke-linejoin="round" d="m21.04 12.283.599 4.19a2 2 0 0 1-2.179 2.273L12.2 18.02a2.005 2.005 0 0 0-.398 0l-7.261.726a2 2 0 0 1-2.179-2.273l.599-4.19a2 2 0 0 0 0-.566l-.599-4.19A2 2 0 0 1 4.54 5.254l7.261.726a2 2 0 0 0 .398 0l7.261-.726a2 2 0 0 1 2.179 2.273l-.599 4.19a2 2 0 0 0 0 .566ZM21 6l-4 3M7 15l-4 3"></path></svg>