<?xml version="1.0" encoding="UTF-8"?><svg xmlns="http://www.w3.org/2000/svg" width="64px" height="64px" fill="none" stroke-width="0.8" viewBox="0 0 24 24" color="#00a5fe"><path stroke="#00a5fe" stroke-width="0.8" stroke-linecap="round" stroke-linejoin="round" d="M6 19a9.985 9.985 0 0 1-4-8C2 5.477 6.477 1 12 1s10 4.477 10 10a9.985 9.985 0 0 1-4 8"></path><path stroke="#00a5fe" stroke-width="0.8" stroke-linecap="round" stroke-linejoin="round" d="M6 19a9.985 9.985 0 0 1-4-8C2 5.477 6.477 1 12 1s10 4.477 10 10a9.985 9.985 0 0 1-4 8"></path><path stroke="#00a5fe" stroke-width="0.8" stroke-linecap="round" stroke-linejoin="round" d="M7.528 15a6 6 0 1 1 8.944 0"></path><path stroke="#00a5fe" stroke-width="0.8" stroke-linecap="round" stroke-linejoin="round" d="M12 13a2 2 0 1 0 0-4 2 2 0 0 0 0 4ZM10.076 16.283l.815-.543a2 2 0 0 1 2.218 0l.815.543a2 2 0 0 1 .863 1.993l-.509 3.053A2 2 0 0 1 12.306 23h-.612a2 2 0 0 1-1.973-1.671l-.508-3.053a2 2 0 0 1 .863-1.993Z"></path></svg>