<?xml version="1.0" encoding="UTF-8"?><svg xmlns="http://www.w3.org/2000/svg" width="64px" height="64px" fill="none" stroke-width="0.8" viewBox="0 0 24 24" color="#00a5fe"><path stroke="#00a5fe" stroke-width="0.8" d="M3 20.29V5a2 2 0 0 1 2-2h14a2 2 0 0 1 2 2v10a2 2 0 0 1-2 2H7.961a2 2 0 0 0-1.561.75l-2.331 2.914A.6.6 0 0 1 3 20.29Z"></path><path stroke="#00a5fe" stroke-width="0.8" stroke-linecap="round" d="M10.5 10h-2a1 1 0 0 1-1-1V8a1 1 0 0 1 1-1h1a1 1 0 0 1 1 1v2Zm0 0c0 1-1 2-2 3M16.5 10h-2a1 1 0 0 1-1-1V8a1 1 0 0 1 1-1h1a1 1 0 0 1 1 1v2Zm0 0c0 1-1 2-2 3"></path></svg>