<?xml version="1.0" encoding="UTF-8"?><svg xmlns="http://www.w3.org/2000/svg" width="64px" height="64px" fill="none" stroke-width="0.8" viewBox="0 0 24 24" color="#00a5fe"><path stroke="#00a5fe" stroke-width="0.8" stroke-linecap="round" stroke-linejoin="round" d="M7.143 16.995c-.393 0-.775-.043-1.143-.123-2.29-.506-4-2.496-4-4.874 0-2.714 2.226-4.923 5-4.996M13.318 9.634A5.517 5.517 0 0 0 11 7.5"></path><path stroke="#00a5fe" stroke-width="0.8" stroke-linecap="round" stroke-linejoin="round" d="M16.857 7c.393 0 .775.043 1.143.124 2.29.505 4 2.495 4 4.874 0 2.76-2.302 4.997-5.143 4.997h-1.714c-2.826 0-5.143-2.506-5.143-4.997 0 0 0-.998.5-1.498M3 3l18 18"></path></svg>