<?xml version="1.0" encoding="UTF-8"?><svg xmlns="http://www.w3.org/2000/svg" width="64px" height="64px" fill="none" stroke-width="0.8" viewBox="0 0 24 24" color="#00a5fe"><path stroke="#00a5fe" stroke-width="0.8" d="M3 7.4V3.6a.6.6 0 0 1 .6-.6h5.8a.6.6 0 0 1 .6.6v3.8a.6.6 0 0 1-.6.6H3.6a.6.6 0 0 1-.6-.6ZM14 20.4v-3.8a.6.6 0 0 1 .6-.6h5.8a.6.6 0 0 1 .6.6v3.8a.6.6 0 0 1-.6.6h-5.8a.6.6 0 0 1-.6-.6ZM14 12.4V3.6a.6.6 0 0 1 .6-.6h5.8a.6.6 0 0 1 .6.6v8.8a.6.6 0 0 1-.6.6h-5.8a.6.6 0 0 1-.6-.6ZM3 20.4v-8.8a.6.6 0 0 1 .6-.6h5.8a.6.6 0 0 1 .6.6v8.8a.6.6 0 0 1-.6.6H3.6a.6.6 0 0 1-.6-.6Z"></path></svg>