<?xml version="1.0" encoding="UTF-8"?><svg xmlns="http://www.w3.org/2000/svg" width="64px" height="64px" fill="none" stroke-width="0.8" viewBox="0 0 24 24" color="#00a5fe"><path stroke="#00a5fe" stroke-width="0.8" stroke-linecap="round" stroke-linejoin="round" d="M22 7s.5-4-4-4-4 4-4 4m8 0h-8m8 0-.214 3M14 7l.214 3m7.572 0-.587 8.214A3 3 0 0 1 18.207 21h-.414a3 3 0 0 1-2.992-2.786L14.214 10m7.572 0h-7.572M10 7s.5-4-4-4-4 4-4 4m8 0H2m8 0-.214 3M2 7l.214 3m7.572 0-.587 8.214A3 3 0 0 1 6.207 21h-.414a3 3 0 0 1-2.992-2.786L2.214 10m7.572 0H2.214"></path></svg>