<?xml version="1.0" encoding="UTF-8"?><svg xmlns="http://www.w3.org/2000/svg" width="64px" height="64px" fill="none" stroke-width="0.8" viewBox="0 0 24 24" color="#00a5fe"><path stroke="#00a5fe" stroke-width="0.8" stroke-linecap="round" d="M13 21H4a2 2 0 0 1-2-2V5a2 2 0 0 1 2-2h16a2 2 0 0 1 2 2v9"></path><path stroke="#00a5fe" stroke-width="0.8" stroke-linecap="round" stroke-linejoin="round" d="M2 7h20M5 5.01l.01-.011M8 5.01l.01-.011M11 5.01l.01-.011M20.124 20.119a3 3 0 1 0-4.248-4.237 3 3 0 0 0 4.248 4.237Zm0 0L22 22"></path></svg>