<?xml version="1.0" encoding="UTF-8"?><svg xmlns="http://www.w3.org/2000/svg" width="64px" height="64px" fill="none" stroke-width="0.8" viewBox="0 0 24 24" color="#00a5fe"><path stroke="#00a5fe" stroke-width="0.8" stroke-linecap="round" stroke-linejoin="round" d="m6 18.01.01-.011M6 6.01l.01-.011"></path><path stroke="#00a5fe" stroke-width="0.8" d="M2 9.4V2.6a.6.6 0 0 1 .6-.6h18.8a.6.6 0 0 1 .6.6v6.8a.6.6 0 0 1-.6.6H2.6a.6.6 0 0 1-.6-.6ZM2 21.4v-6.8a.6.6 0 0 1 .6-.6h18.8a.6.6 0 0 1 .6.6v6.8a.6.6 0 0 1-.6.6H2.6a.6.6 0 0 1-.6-.6Z"></path></svg>