<?xml version="1.0" encoding="UTF-8"?><svg xmlns="http://www.w3.org/2000/svg" width="64px" height="64px" fill="none" stroke-width="0.8" viewBox="0 0 24 24" color="#00a5fe"><path stroke="#00a5fe" stroke-width="0.8" stroke-linecap="round" stroke-linejoin="round" d="M2 4h20M3 8.01l.01-.011M3 16.01l.01-.011M6 12.01l.01-.011M6 20.01l.01-.011M9 8.01l.01-.011M9 16.01l.01-.011M12 12.01l.01-.011M12 20.01l.01-.011M15 8.01l.01-.011M15 16.01l.01-.011M18 12.01l.01-.011M18 20.01l.01-.011M21 8.01l.01-.011M21 16.01l.01-.011"></path></svg>