<?xml version="1.0" encoding="UTF-8"?><svg xmlns="http://www.w3.org/2000/svg" width="64px" height="64px" fill="none" stroke-width="0.8" viewBox="0 0 24 24" color="#00a5fe"><path stroke="#00a5fe" stroke-width="0.8" stroke-linecap="round" stroke-linejoin="round" d="M19.5 7.5S21 9 21 11.5s-1.5 4-1.5 4"></path><path stroke="#00a5fe" stroke-width="0.8" d="M2 13.857v-3.714a2 2 0 0 1 2-2h2.9a1 1 0 0 0 .55-.165l6-3.956a1 1 0 0 1 1.55.835v14.286a1 1 0 0 1-1.55.835l-6-3.956a1 1 0 0 0-.55-.165H4a2 2 0 0 1-2-2Z"></path></svg>