<?xml version="1.0" encoding="UTF-8"?><svg xmlns="http://www.w3.org/2000/svg" width="64px" height="64px" fill="none" stroke-width="0.8" viewBox="0 0 24 24" color="#00a5fe"><path stroke="#00a5fe" stroke-width="0.8" stroke-linecap="round" stroke-linejoin="round" d="M15 3.6v10.8a.6.6 0 0 1-.6.6H3.6a.6.6 0 0 1-.6-.6V3.6a.6.6 0 0 1 .6-.6h10.8a.6.6 0 0 1 .6.6ZM13.5 21h3M21 13.5v3M21 19.5v.9a.6.6 0 0 1-.6.6h-.9M10.5 21h-.9a.6.6 0 0 1-.6-.6v-.9M19.5 9h.9a.6.6 0 0 1 .6.6v.9"></path><path stroke="#00a5fe" stroke-width="0.8" stroke-linecap="round" stroke-linejoin="round" d="M16.5 9H9.6a.6.6 0 0 0-.6.6v6.9"></path></svg>