<?xml version="1.0" encoding="UTF-8"?><svg xmlns="http://www.w3.org/2000/svg" width="64px" height="64px" fill="none" stroke-width="0.8" viewBox="0 0 24 24" color="#00a5fe"><path stroke="#00a5fe" stroke-width="0.8" d="M3 3.6a.6.6 0 0 1 .6-.6h16.8a.6.6 0 0 1 .6.6v13.8a.6.6 0 0 1-.6.6h-4.14a.6.6 0 0 0-.438.189l-3.385 3.597a.6.6 0 0 1-.874 0l-3.385-3.597A.6.6 0 0 0 7.74 18H3.6a.6.6 0 0 1-.6-.6V3.6Z"></path><path stroke="#00a5fe" stroke-width="0.8" stroke-linecap="round" stroke-linejoin="round" d="m12 7 1.425 2.575L16 11l-2.575 1.425L12 15l-1.425-2.575L8 11l2.575-1.425L12 7Z"></path></svg>