<?xml version="1.0" encoding="UTF-8"?><svg xmlns="http://www.w3.org/2000/svg" width="64px" height="64px" fill="none" stroke-width="0.8" viewBox="0 0 24 24" color="#00a5fe"><path stroke="#00a5fe" stroke-width="0.8" stroke-linecap="round" stroke-linejoin="round" d="M4.5 15h2A1.5 1.5 0 0 0 8 13.5v0A1.5 1.5 0 0 0 6.5 12H6a1.5 1.5 0 0 1-1.5-1.5v0A1.5 1.5 0 0 1 6 9h1.5M10.5 9l1.5 6 1.5-6M19.5 9h-3v6h3v-2.4"></path><path stroke="#00a5fe" stroke-width="0.8" stroke-linecap="round" d="M4 6V3.6a.6.6 0 0 1 .6-.6h14.8a.6.6 0 0 1 .6.6V6M4 18v2.4a.6.6 0 0 0 .6.6h14.8a.6.6 0 0 0 .6-.6V18"></path></svg>