<?xml version="1.0" encoding="UTF-8"?><svg xmlns="http://www.w3.org/2000/svg" width="64px" height="64px" fill="none" stroke-width="0.8" viewBox="0 0 24 24" color="#00a5fe"><path stroke="#00a5fe" stroke-width="0.8" stroke-linecap="round" stroke-linejoin="round" d="M6 12a5 5 0 1 0 6 0M6 12V3h6v9M12 3h2M12 6h2M12 9h2M19 7a2 2 0 1 0 0-4 2 2 0 0 0 0 4Z"></path><path stroke="#00a5fe" stroke-width="0.8" stroke-linecap="round" stroke-linejoin="round" d="M9 14a2 2 0 1 0 0 4 2 2 0 0 0 0-4Zm0 0v-3"></path></svg>