<?xml version="1.0" encoding="UTF-8"?><svg xmlns="http://www.w3.org/2000/svg" width="64px" height="64px" fill="none" stroke-width="0.8" viewBox="0 0 24 24" color="#00a5fe"><path stroke="#00a5fe" stroke-width="0.8" d="M17 22H7a2 2 0 0 1-2-2v-8.818a.6.6 0 0 0-.1-.333L3.1 8.15a.6.6 0 0 1-.1-.333V2.6a.6.6 0 0 1 .6-.6h1.8a.6.6 0 0 1 .6.6v1.8a.6.6 0 0 0 .6.6h2.8a.6.6 0 0 0 .6-.6V2.6a.6.6 0 0 1 .6-.6h2.8a.6.6 0 0 1 .6.6v1.8a.6.6 0 0 0 .6.6h2.8a.6.6 0 0 0 .6-.6V2.6a.6.6 0 0 1 .6-.6h1.8a.6.6 0 0 1 .6.6v5.218a.6.6 0 0 1-.1.333l-1.8 2.698a.6.6 0 0 0-.1.333V20a2 2 0 0 1-2 2Z"></path></svg>