<?xml version="1.0" encoding="UTF-8"?><svg xmlns="http://www.w3.org/2000/svg" width="64px" height="64px" fill="none" stroke-width="0.8" viewBox="0 0 24 24" color="#00a5fe"><path stroke="#00a5fe" stroke-width="0.8" stroke-linecap="round" stroke-linejoin="round" d="M9.609 7h4.782A2.609 2.609 0 0 1 17 9.609a.391.391 0 0 1-.391.391H7.39A.391.391 0 0 1 7 9.609 2.609 2.609 0 0 1 9.609 7Z"></path><path stroke="#00a5fe" stroke-width="0.8" stroke-linecap="round" stroke-linejoin="round" d="M9 3h6a6 6 0 0 1 6 6v4a6 6 0 0 1-6 6H9a6 6 0 0 1-6-6V9a6 6 0 0 1 6-6ZM16 15.01l.01-.011M8 15.01l.01-.011"></path><path stroke="#00a5fe" stroke-width="0.8" stroke-linecap="round" d="m10.5 19-2 2.5M13.5 19l2 2.5M16.5 19l2 2.5M7.5 19l-2 2.5"></path></svg>