<?xml version="1.0" encoding="UTF-8"?><svg xmlns="http://www.w3.org/2000/svg" width="64px" height="64px" fill="none" stroke-width="0.8" viewBox="0 0 24 24" color="#00a5fe"><path stroke="#00a5fe" stroke-width="0.8" stroke-linecap="round" stroke-linejoin="round" d="m15 16.01.01-.011M9 16.01l.01-.011M13 6h2a5 5 0 0 1 5 5v7a2 2 0 0 1-2 2H6a2 2 0 0 1-2-2v-7a5 5 0 0 1 5-5h4Zm0 0 1-4m0 0h3m-3 0H7"></path><path stroke="#00a5fe" stroke-width="0.8" stroke-linecap="round" d="m10.5 20-2 2.5M13.5 20l2 2.5M16.5 20l2 2.5M7.5 20l-2 2.5"></path><path stroke="#00a5fe" stroke-width="0.8" stroke-linecap="round" stroke-linejoin="round" d="M9.609 9h4.782A2.609 2.609 0 0 1 17 11.609a.391.391 0 0 1-.391.391H7.39A.391.391 0 0 1 7 11.609 2.609 2.609 0 0 1 9.609 9Z"></path></svg>