<?xml version="1.0" encoding="UTF-8"?><svg xmlns="http://www.w3.org/2000/svg" width="64px" height="64px" fill="none" stroke-width="0.8" viewBox="0 0 24 24" color="#00a5fe"><path stroke="#00a5fe" stroke-width="0.8" stroke-linecap="round" stroke-linejoin="round" d="M19 3H5a2 2 0 0 0-2 2v14a2 2 0 0 0 2 2h14a2 2 0 0 0 2-2V5a2 2 0 0 0-2-2Z"></path><path stroke="#00a5fe" stroke-width="0.8" stroke-linecap="round" stroke-linejoin="round" d="M10.4 6H6.6a.6.6 0 0 0-.6.6v10.8a.6.6 0 0 0 .6.6h3.8a.6.6 0 0 0 .6-.6V6.6a.6.6 0 0 0-.6-.6ZM17.4 6h-3.8a.6.6 0 0 0-.6.6v6.8a.6.6 0 0 0 .6.6h3.8a.6.6 0 0 0 .6-.6V6.6a.6.6 0 0 0-.6-.6Z"></path></svg>