<?xml version="1.0" encoding="UTF-8"?><svg xmlns="http://www.w3.org/2000/svg" width="64px" height="64px" fill="none" stroke-width="0.8" viewBox="0 0 24 24" color="#00a5fe"><path stroke="#00a5fe" stroke-width="0.8" stroke-linecap="round" stroke-linejoin="round" d="M14.5 11.5C12.75 13.382 11 18 11 18s-2.5-6.5-5-8"></path><path stroke="#00a5fe" stroke-width="0.8" stroke-linecap="round" stroke-linejoin="round" d="m18.015 7.73.297 3.08c.192 1.998-1.306 3.777-3.304 3.97-1.96.188-3.736-1.245-3.925-3.205a3.566 3.566 0 0 1 3.208-3.892l3.284-.316a.404.404 0 0 1 .44.363Z"></path><path stroke="#00a5fe" stroke-width="0.8" stroke-linecap="round" stroke-linejoin="round" d="M12 22c5.523 0 10-4.477 10-10S17.523 2 12 2 2 6.477 2 12s4.477 10 10 10Z"></path></svg>