<?xml version="1.0" encoding="UTF-8"?><svg xmlns="http://www.w3.org/2000/svg" width="64px" height="64px" fill="none" stroke-width="0.8" viewBox="0 0 24 24" color="#00a5fe"><path stroke="#00a5fe" stroke-width="0.8" stroke-linecap="round" stroke-linejoin="round" d="M4 19h2M18 19h2"></path><path stroke="#00a5fe" stroke-width="0.8" d="M2 16.4V7.6a.6.6 0 0 1 .6-.6h18.8a.6.6 0 0 1 .6.6v8.8a.6.6 0 0 1-.6.6H2.6a.6.6 0 0 1-.6-.6Z"></path><path stroke="#00a5fe" stroke-width="0.8" stroke-linecap="round" stroke-linejoin="round" d="m5 10.01.01-.011M8 10.01l.01-.011M11 10.01l.01-.011M5 14.01l.01-.011M8 14.01l.01-.011M11 14.01l.01-.011M17 14a2 2 0 1 0 0-4 2 2 0 0 0 0 4Z"></path></svg>