<svg width="20" height="24" viewBox="0 0 20 24" fill="none" xmlns="http://www.w3.org/2000/svg">
<path d="M16.5254 12.8604C16.5254 12.9619 16.373 15.958 19.6738 17.5322C19.0645 19.4111 16.9316 23.5752 14.4434 23.5752C13.0215 23.5752 12.209 22.6611 10.584 22.6611C8.9082 22.6611 7.99414 23.5752 6.72461 23.5752C4.28711 23.6768 1.95117 19.1064 1.29102 17.2275C0.783203 15.8057 0.580078 14.4346 0.580078 13.1143C0.580078 8.59473 3.57617 6.41113 6.41992 6.36035C7.79102 6.36035 9.51758 7.3252 10.2793 7.3252C10.9902 7.3252 12.9707 6.15723 14.7988 6.30957C16.6777 6.46191 18.0996 7.17285 19.0645 8.54395C17.3887 9.61035 16.5254 10.9814 16.5254 12.8604ZM13.6816 4.53223C12.666 5.7002 11.4473 6.36035 10.127 6.25879C10.0254 4.8877 10.5332 3.61816 11.4473 2.60254C12.2598 1.68848 13.6816 0.926758 14.9004 0.825195C14.9004 1.38379 15.0527 2.90723 13.6816 4.53223Z" fill="white"/>
</svg>
