<svg width="16" height="16" viewBox="0 0 16 16" fill="none" xmlns="http://www.w3.org/2000/svg">
<path d="M15.1849 0.488281H6.01825C5.78794 0.488281 5.60157 0.674678 5.60157 0.90503C5.60157 1.13537 5.78794 1.32178 6.01825 1.32178H14.179L0.723643 14.7792C0.560869 14.9421 0.560869 15.2058 0.723643 15.3686C0.805009 15.4499 0.91165 15.4906 1.01825 15.4906C1.12485 15.4906 1.23145 15.4499 1.31286 15.3686L14.7683 1.91104V10.0731C14.7683 10.3035 14.9546 10.4899 15.1849 10.4899C15.4152 10.4899 15.6016 10.3035 15.6016 10.0731V0.90503C15.6016 0.674678 15.4152 0.488281 15.1849 0.488281Z" fill="#181A20"/>
</svg>
