<svg width="16" height="16" viewBox="0 0 16 16" fill="none" xmlns="http://www.w3.org/2000/svg">
<path d="M15.4046 0.488281H6.23798C6.00767 0.488281 5.8213 0.674678 5.8213 0.90503C5.8213 1.13537 6.00767 1.32178 6.23798 1.32178H14.3988L0.943369 14.7792C0.780596 14.9421 0.780596 15.2058 0.943369 15.3686C1.02474 15.4499 1.13138 15.4906 1.23798 15.4906C1.34458 15.4906 1.45118 15.4499 1.53259 15.3686L14.988 1.91104V10.0731C14.988 10.3035 15.1744 10.4899 15.4046 10.4899C15.635 10.4899 15.8213 10.3035 15.8213 10.0731V0.90503C15.8213 0.674678 15.635 0.488281 15.4046 0.488281Z" fill="white"/>
</svg>
