<svg width="44" height="36" viewBox="0 0 44 36" fill="none" xmlns="http://www.w3.org/2000/svg">
<path d="M40.3324 12.9299H36.0682C36.0682 12.553 35.9185 12.1914 35.6519 11.9249C35.3853 11.6583 35.0238 11.5085 34.6468 11.5085H23.2756C22.8986 11.5085 22.5371 11.6583 22.2705 11.9249C22.004 12.1914 21.8542 12.553 21.8542 12.9299H10.483V5.11223C10.483 4.54676 10.7076 4.00445 11.1075 3.60461C11.5073 3.20476 12.0496 2.98013 12.6151 2.98013C13.1806 2.98013 13.7229 3.20476 14.1227 3.60461C14.5226 4.00445 14.7472 4.54676 14.7472 5.11223C14.7472 5.48921 14.897 5.85075 15.1635 6.11731C15.4301 6.38388 15.7916 6.53363 16.1686 6.53363C16.5456 6.53363 16.9071 6.38388 17.1737 6.11731C17.4403 5.85075 17.59 5.48921 17.59 5.11223C17.59 3.79281 17.0659 2.52742 16.1329 1.59444C15.1999 0.661469 13.9345 0.137329 12.6151 0.137329C11.2957 0.137329 10.0303 0.661469 9.09732 1.59444C8.16435 2.52742 7.64021 3.79281 7.64021 5.11223V12.9299H3.376C2.62205 12.9299 1.89897 13.2294 1.36584 13.7626C0.832712 14.2957 0.533203 15.0188 0.533203 15.7727V21.4583C0.533203 24.0972 1.58148 26.628 3.44743 28.4939C5.31338 30.3599 7.84416 31.4081 10.483 31.4081V34.2509C10.483 34.6279 10.6328 34.9895 10.8993 35.256C11.1659 35.5226 11.5274 35.6723 11.9044 35.6723C12.2814 35.6723 12.6429 35.5226 12.9095 35.256C13.1761 34.9895 13.3258 34.6279 13.3258 34.2509V31.4081H30.3826V34.2509C30.3826 34.6279 30.5324 34.9895 30.7989 35.256C31.0655 35.5226 31.427 35.6723 31.804 35.6723C32.181 35.6723 32.5425 35.5226 32.8091 35.256C33.0757 34.9895 33.2254 34.6279 33.2254 34.2509V31.4081C35.8643 31.4081 38.395 30.3599 40.261 28.4939C42.1269 26.628 43.1752 24.0972 43.1752 21.4583V15.7727C43.1752 15.0188 42.8757 14.2957 42.3426 13.7626C41.8095 13.2294 41.0864 12.9299 40.3324 12.9299ZM33.2254 14.3513V20.0369H24.697V14.3513H33.2254ZM40.3324 21.4583C40.3324 22.3916 40.1486 23.3158 39.7914 24.1781C39.4343 25.0403 38.9108 25.8238 38.2508 26.4838C37.5909 27.1437 36.8074 27.6672 35.9452 28.0244C35.0829 28.3815 34.1587 28.5653 33.2254 28.5653H10.483C8.59811 28.5653 6.79042 27.8166 5.4576 26.4838C4.12478 25.1509 3.376 23.3432 3.376 21.4583V15.7727H21.8542V21.4583C21.8542 21.8353 22.004 22.1969 22.2705 22.4634C22.5371 22.73 22.8986 22.8797 23.2756 22.8797H34.6468C35.0238 22.8797 35.3853 22.73 35.6519 22.4634C35.9185 22.1969 36.0682 21.8353 36.0682 21.4583V15.7727H40.3324V21.4583Z" fill="#006ADC"/>
</svg>
