<svg width="47" height="46" viewBox="0 0 47 46" fill="none" xmlns="http://www.w3.org/2000/svg">
<path d="M13.427 7.96594H33.3266C34.6538 7.96588 35.931 8.47214 36.8977 9.38145C37.8645 10.2908 38.4479 11.5346 38.5289 12.8593L38.5384 13.1777V19.5342C39.5715 19.8275 40.4888 20.4325 41.1652 21.2666C41.8415 22.1007 42.2439 23.1232 42.3174 24.1945L42.3288 24.5489V38.763C42.3287 39.1231 42.1919 39.4697 41.946 39.7329C41.7002 39.996 41.3636 40.1561 41.0043 40.1806C40.645 40.2052 40.2898 40.0924 40.0104 39.8651C39.7311 39.6379 39.5484 39.313 39.4993 38.9563L39.486 38.763V34.4988H7.26761V38.763C7.26759 39.1064 7.1432 39.4383 6.91743 39.6972C6.69167 39.956 6.37981 40.1244 6.03952 40.1711L5.8462 40.1844C5.50272 40.1843 5.17087 40.0599 4.912 39.8342C4.65314 39.6084 4.48478 39.2966 4.43807 38.9563L4.4248 38.763V24.5489C4.4248 22.1629 6.02814 20.1521 8.21521 19.5324V13.1777C8.21514 11.8506 8.7214 10.5733 9.63072 9.60662C10.54 8.6399 11.7839 8.0565 13.1086 7.97542L13.427 7.96594ZM37.117 22.1799H9.63661C9.05012 22.1797 8.48439 22.397 8.04887 22.7898C7.61336 23.1826 7.33903 23.723 7.27898 24.3064L7.26761 24.5489V31.656H39.486V24.5489C39.4858 23.9628 39.2683 23.3975 38.8756 22.9624C38.4828 22.5273 37.9427 22.2532 37.3596 22.1932L37.117 22.1799ZM33.3266 10.8087H13.427C12.8405 10.8085 12.2748 11.0258 11.8393 11.4186C11.4038 11.8114 11.1294 12.3518 11.0694 12.9352L11.058 13.1777V19.3371H13.9008C13.9008 18.8345 14.1005 18.3525 14.4559 17.997C14.8113 17.6416 15.2934 17.4419 15.796 17.4419H19.5864C20.0506 17.442 20.4986 17.6124 20.8455 17.9209C21.1924 18.2294 21.414 18.6544 21.4683 19.1154L21.4816 19.3371H25.272C25.272 18.8345 25.4717 18.3525 25.8271 17.997C26.1825 17.6416 26.6646 17.4419 27.1672 17.4419H30.9576C31.4218 17.442 31.8698 17.6124 32.2167 17.9209C32.5636 18.2294 32.7852 18.6544 32.8395 19.1154L32.8528 19.3371H35.6956V13.1777C35.6959 12.5913 35.4786 12.0255 35.0858 11.59C34.693 11.1545 34.1526 10.8802 33.5692 10.8201L33.3266 10.8087Z" fill="#006ADC"/>
</svg>
