<svg width="25" height="25" viewBox="0 0 25 25" fill="none" xmlns="http://www.w3.org/2000/svg">
<path d="M17.0146 14.873C17.5669 14.873 18.0146 14.4253 18.0146 13.873C18.0146 13.3208 17.5669 12.873 17.0146 12.873C16.4624 12.873 16.0146 13.3208 16.0146 13.873C16.0146 14.4253 16.4624 14.873 17.0146 14.873Z" fill="#737373"/>
<path d="M17.0146 18.873C17.5669 18.873 18.0146 18.4253 18.0146 17.873C18.0146 17.3208 17.5669 16.873 17.0146 16.873C16.4624 16.873 16.0146 17.3208 16.0146 17.873C16.0146 18.4253 16.4624 18.873 17.0146 18.873Z" fill="#737373"/>
<path d="M13.0146 13.873C13.0146 14.4253 12.5669 14.873 12.0146 14.873C11.4624 14.873 11.0146 14.4253 11.0146 13.873C11.0146 13.3208 11.4624 12.873 12.0146 12.873C12.5669 12.873 13.0146 13.3208 13.0146 13.873Z" fill="#737373"/>
<path d="M13.0146 17.873C13.0146 18.4253 12.5669 18.873 12.0146 18.873C11.4624 18.873 11.0146 18.4253 11.0146 17.873C11.0146 17.3208 11.4624 16.873 12.0146 16.873C12.5669 16.873 13.0146 17.3208 13.0146 17.873Z" fill="#737373"/>
<path d="M7.01465 14.873C7.56693 14.873 8.01465 14.4253 8.01465 13.873C8.01465 13.3208 7.56693 12.873 7.01465 12.873C6.46236 12.873 6.01465 13.3208 6.01465 13.873C6.01465 14.4253 6.46236 14.873 7.01465 14.873Z" fill="#737373"/>
<path d="M7.01465 18.873C7.56693 18.873 8.01465 18.4253 8.01465 17.873C8.01465 17.3208 7.56693 16.873 7.01465 16.873C6.46236 16.873 6.01465 17.3208 6.01465 17.873C6.01465 18.4253 6.46236 18.873 7.01465 18.873Z" fill="#737373"/>
<path fill-rule="evenodd" clip-rule="evenodd" d="M7.01465 2.62305C7.42886 2.62305 7.76465 2.95883 7.76465 3.37305V4.13577C8.42665 4.12303 9.15598 4.12304 9.95811 4.12305H14.0711C14.8732 4.12304 15.6026 4.12303 16.2646 4.13577V3.37305C16.2646 2.95883 16.6004 2.62305 17.0146 2.62305C17.4289 2.62305 17.7646 2.95883 17.7646 3.37305V4.20013C18.0246 4.21995 18.2707 4.24487 18.5037 4.27618C19.6761 4.43381 20.625 4.76593 21.3734 5.51429C22.1218 6.26265 22.4539 7.2116 22.6115 8.38402C22.7647 9.52323 22.7647 10.9788 22.7646 12.8166V14.9295C22.7647 16.7672 22.7647 18.2229 22.6115 19.3621C22.4539 20.5345 22.1218 21.4834 21.3734 22.2318C20.625 22.9802 19.6761 23.3123 18.5037 23.4699C17.3645 23.6231 15.9088 23.6231 14.0711 23.623H9.95824C8.1205 23.6231 6.66483 23.6231 5.52563 23.4699C4.3532 23.3123 3.40426 22.9802 2.65589 22.2318C1.90753 21.4834 1.57541 20.5345 1.41778 19.3621C1.26462 18.2229 1.26463 16.7672 1.26465 14.9295V12.8166C1.26463 10.9789 1.26462 9.52324 1.41778 8.38402C1.57541 7.2116 1.90753 6.26265 2.65589 5.51429C3.40426 4.76593 4.3532 4.43381 5.52563 4.27618C5.75855 4.24487 6.00471 4.21995 6.26465 4.20013V3.37305C6.26465 2.95883 6.60044 2.62305 7.01465 2.62305ZM5.7255 5.76281C4.71941 5.89807 4.13976 6.15174 3.71655 6.57495C3.29334 6.99816 3.03967 7.57781 2.90441 8.58389C2.8815 8.75428 2.86235 8.93366 2.84633 9.12305H21.183C21.167 8.93366 21.1478 8.75428 21.1249 8.5839C20.9896 7.57781 20.736 6.99816 20.3127 6.57495C19.8895 6.15174 19.3099 5.89807 18.3038 5.76281C17.2761 5.62464 15.9215 5.62305 14.0146 5.62305H10.0146C8.10783 5.62305 6.75316 5.62464 5.7255 5.76281ZM2.76465 12.873C2.76465 12.019 2.76497 11.2758 2.77773 10.623H21.2516C21.2643 11.2758 21.2646 12.019 21.2646 12.873V14.873C21.2646 16.7799 21.2631 18.1345 21.1249 19.1622C20.9896 20.1683 20.736 20.7479 20.3127 21.1711C19.8895 21.5944 19.3099 21.848 18.3038 21.9833C17.2761 22.1215 15.9215 22.123 14.0146 22.123H10.0146C8.10783 22.123 6.75316 22.1215 5.7255 21.9833C4.71941 21.848 4.13976 21.5944 3.71655 21.1711C3.29334 20.7479 3.03967 20.1683 2.90441 19.1622C2.76624 18.1345 2.76465 16.7799 2.76465 14.873V12.873Z" fill="#737373"/>
</svg>
