<svg width="31" height="31" viewBox="0 0 31 31" fill="none" xmlns="http://www.w3.org/2000/svg">
<path d="M12.5646 7.35444L13.3758 8.8081C14.108 10.12 13.8141 11.8409 12.661 12.994C12.661 12.994 12.661 12.994 12.661 12.994C12.6609 12.9941 11.2624 14.3928 13.7982 16.9286C16.3334 19.4637 17.732 18.0667 17.7328 18.0658C17.7329 18.0658 17.7328 18.0658 17.7329 18.0658C18.886 16.9127 20.6069 16.6189 21.9187 17.351L23.3724 18.1622C25.3533 19.2678 25.5872 22.0458 23.846 23.787C22.7998 24.8332 21.5181 25.6473 20.1012 25.701C17.716 25.7915 13.6654 25.1878 9.60221 21.1246C5.53899 17.0614 4.93535 13.0108 5.02577 10.6256C5.07948 9.20873 5.89358 7.92702 6.93984 6.88077C8.68102 5.13958 11.459 5.37353 12.5646 7.35444Z" fill="#006ADC"/>
</svg>
