<svg width="27" height="20" viewBox="0 0 27 20" fill="none" xmlns="http://www.w3.org/2000/svg">
<path d="M10.6112 11.984C12.5533 11.984 14.1276 13.5583 14.1276 15.5004C14.1276 17.4424 12.5533 19.0167 10.6112 19.0167C8.66917 19.0167 7.09483 17.4424 7.09483 15.5004C7.09483 13.5583 8.66917 11.984 10.6112 11.984Z" fill="white"/>
<path d="M16.4718 0.262703C14.5298 0.262703 12.9555 1.83704 12.9555 3.77908C12.9555 5.72113 14.5298 7.29546 16.4718 7.29546C18.4139 7.29546 19.9882 5.72113 19.9882 3.77908C19.9882 1.83704 18.4139 0.262703 16.4718 0.262703Z" fill="white"/>
<path d="M10.0251 2.85137C10.5107 2.85137 10.9042 3.24495 10.9042 3.73046C10.9042 4.21598 10.5107 4.60956 10.0251 4.60956L1.82026 4.60956C1.33475 4.60956 0.941162 4.21597 0.941162 3.73046C0.941162 3.24495 1.33475 2.85137 1.82026 2.85137H10.0251Z" fill="white"/>
<path d="M17.0579 14.5726C16.5724 14.5726 16.1788 14.9662 16.1788 15.4517C16.1788 15.9372 16.5724 16.3308 17.0579 16.3308H25.2628C25.7483 16.3308 26.1419 15.9372 26.1419 15.4517C26.1419 14.9662 25.7483 14.5726 25.2628 14.5726H17.0579Z" fill="white"/>
<path d="M0.941162 15.4517C0.941162 14.9662 1.33475 14.5726 1.82026 14.5726H4.16451C4.65002 14.5726 5.04361 14.9662 5.04361 15.4517C5.04361 15.9372 4.65002 16.3308 4.16451 16.3308H1.82026C1.33475 16.3308 0.941162 15.9372 0.941162 15.4517Z" fill="white"/>
<path d="M25.2628 2.85137C25.7483 2.85137 26.1419 3.24495 26.1419 3.73046C26.1419 4.21598 25.7483 4.60956 25.2628 4.60956H22.9185C22.433 4.60956 22.0394 4.21598 22.0394 3.73046C22.0394 3.24495 22.433 2.85137 22.9185 2.85137H25.2628Z" fill="white"/>
</svg>
