<svg width="144" height="141" viewBox="0 0 144 141" fill="none" xmlns="http://www.w3.org/2000/svg">
<circle cx="70.9648" cy="70.3535" r="70" fill="#F6FEFB"/>
<circle cx="72.9644" cy="70.3535" r="39.0588" fill="#FF006E" stroke="white" stroke-width="4.59515"/>
<path fill-rule="evenodd" clip-rule="evenodd" d="M91.4558 57.3747C92.5325 58.4514 92.5325 60.1971 91.4558 61.2738L69.3991 83.3305C68.3224 84.4072 66.5767 84.4072 65.5 83.3305L54.4716 72.3022C53.3949 71.2254 53.3949 69.4798 54.4716 68.403C55.5483 67.3263 57.294 67.3263 58.3707 68.403L67.4495 77.4819L87.5567 57.3747C88.6334 56.298 90.3791 56.298 91.4558 57.3747Z" fill="white"/>
<circle cx="47.9648" cy="21.3535" r="4" fill="#FFB23F"/>
<circle cx="102.965" cy="108.354" r="3" fill="#7DE2F0"/>
<circle cx="3.96484" cy="52.3535" r="3" fill="#B5F0F9"/>
<circle cx="134.965" cy="95.3535" r="6" fill="#FFB23F"/>
<circle cx="38.9648" cy="131.354" r="5" fill="#3F8CFF"/>
</svg>
