<svg width="331" height="171" viewBox="0 0 331 171" fill="none" xmlns="http://www.w3.org/2000/svg">
<g clip-path="url(#clip0_2115_5798)">
<g clip-path="url(#clip1_2115_5798)">
<path d="M158.995 164.934C158.995 167.894 126.659 170.292 86.7694 170.292C46.8797 170.292 14.543 167.894 14.543 164.934C14.543 161.974 46.8797 159.576 86.7694 159.576C126.659 159.576 158.995 161.974 158.995 164.934Z" fill="#E5E3E1"/>
<path d="M99.8428 79.7474H178.521V74.4055H99.8428V79.7474Z" fill="#BAB4A8"/>
<path d="M99.8428 74.4053L116.415 50.3137H187.121L178.521 74.4053H99.8428Z" fill="#E2582D"/>
<path d="M102.064 134.224H178.52V79.7476H102.064V134.224Z" fill="#E5E3E1"/>
<path d="M149.498 82.831H145.423C145.429 82.7765 145.436 82.7219 145.443 82.6674C145.575 81.6176 145.685 80.6245 145.756 79.7473H151.514H149.498V82.831Z" fill="#CECAC2"/>
<path d="M155.656 134.224H149.497V95.6072H155.656V134.224ZM149.497 90.1876V82.8308H151.513V83.8132L152.514 82.8308H155.656V86.5597L149.497 90.1876Z" fill="#CECAC2"/>
<path d="M155.657 82.831H152.514L155.657 79.7473V82.831ZM151.513 82.831H149.497V79.7473H151.513V82.831Z" fill="#C3BEB4"/>
<path d="M301.124 118.28C301.124 118.28 302.33 111.032 305.298 109.819C308.268 108.605 308.027 107.52 308.598 103.839C309.169 100.159 314.17 102.192 315.971 99.0162C317.773 95.841 319.539 93.9456 321.015 97.6147C322.49 101.285 320.291 104.921 318.024 105.825C315.756 106.73 318.828 110.661 316.994 112.994C315.159 115.327 312.845 116.015 313.519 119.05C314.193 122.086 314.258 123.772 313.111 125.373C311.963 126.975 310.048 128.771 310.048 128.771L297.109 126.765C297.109 126.765 295.315 121.984 297.87 121.857C300.426 121.73 301.32 121.764 301.124 118.28Z" fill="#678742"/>
<path d="M302.46 127.594C302.46 127.594 306.956 120.754 311.211 112.307C315.465 103.858 315.465 103.858 315.465 103.858C315.465 103.858 307.917 122.997 302.46 127.594Z" fill="#37664A"/>
<path d="M316.873 136.968C316.873 136.968 316.935 132.553 319.049 131.558C321.162 130.562 320.851 129.941 320.851 127.702C320.851 125.464 324.893 126.209 325.888 124.158C326.883 122.105 328.002 120.816 329.556 122.861C331.11 124.904 329.866 127.267 328.251 128.013C326.634 128.759 329.431 130.811 328.313 132.366C327.194 133.921 325.515 134.544 326.385 136.284C327.256 138.025 327.504 139.02 326.82 140.077C326.137 141.134 324.893 142.378 324.893 142.378H314.821C314.821 142.378 312.894 139.704 314.821 139.393C316.748 139.083 317.433 139.02 316.873 136.968Z" fill="#37664A"/>
<path d="M318.987 142.378C318.987 142.378 321.599 137.9 323.837 132.491C326.075 127.08 326.075 127.08 326.075 127.08C326.075 127.08 322.593 139.145 318.987 142.378Z" fill="#37664A"/>
<path d="M304.795 133.609C304.795 133.609 304.895 126.452 308.322 124.839C311.748 123.226 311.244 122.218 311.244 118.589C311.244 114.961 317.794 116.17 319.407 112.844C321.02 109.517 322.834 107.428 325.353 110.74C327.872 114.053 325.857 117.884 323.237 119.093C320.616 120.303 325.152 123.629 323.338 126.15C321.523 128.669 318.802 129.677 320.213 132.5C321.624 135.323 322.028 136.935 320.919 138.648C319.81 140.363 317.794 142.378 317.794 142.378H301.468C301.468 142.378 298.345 138.044 301.468 137.54C304.593 137.035 305.702 136.935 304.795 133.609Z" fill="#99B746"/>
<path d="M308.221 142.378C308.221 142.378 312.453 135.12 316.082 126.351C319.709 117.582 319.709 117.582 319.709 117.582C319.709 117.582 314.066 137.136 308.221 142.378Z" fill="#678742"/>
<path d="M151.513 142.378C151.513 142.378 142.349 139.29 142.683 136.588C142.96 134.352 146.675 135.423 146.675 135.423C146.675 135.423 140.459 131.414 143.684 128.345C145.856 126.28 148.791 130.786 148.791 130.786C148.791 130.786 147.588 126.573 149.603 126.472C151.62 126.372 152.218 132.096 152.218 132.096C152.218 132.096 153.326 124.839 156.249 126.251C159.172 127.661 157.761 141.875 157.761 141.875L151.513 142.378Z" fill="#678742"/>
<path d="M223.938 139.701H306.575V81.7805H223.938V139.701Z" fill="#BAB4A8"/>
<path d="M155.656 79.7474V139.701H223.937V79.7474L189.136 45.6094L155.656 79.7474Z" fill="#E5E3E1"/>
<path d="M311.684 79.7451H225.484L220.565 74.6804L213.004 66.8985L206.909 60.625L203.094 56.6981L198.984 52.4642L195.065 48.432L192.323 45.6095L188.503 41.6743H275.001L278.79 45.6095L281.515 48.432L285.402 52.4642L289.481 56.6981L293.262 60.625L299.309 66.8985L306.807 74.6804L311.684 79.7451Z" fill="#E2582D"/>
<path d="M151.513 79.5794V83.8133L188.699 47.3234L225.483 83.8133V79.3777L188.497 41.679L151.513 79.5794Z" fill="#F98D43"/>
<path d="M225.483 83.8132H311.681V79.7476H225.483V83.8132Z" fill="#E2582D"/>
<path d="M143.719 93.5906L155.812 86.4675H202.707L191.554 93.5906H143.719Z" fill="#F98D43"/>
<path d="M202.707 86.4675V89.0212L191.823 95.607H143.719V93.5906H191.554L202.707 86.4675Z" fill="#E2582D"/>
<path d="M306.575 86.4676H223.938V82.28L225.483 83.8132H306.575V86.4676Z" fill="#89857C"/>
<path d="M223.937 86.4676L188.497 51.1201L155.656 83.8132V79.7473L188.699 47.3232L223.937 82.28V86.4676Z" fill="#A09D9A"/>
<path d="M298.109 131.895H274.326V91.8438H298.109V131.895Z" fill="#E5E3E1"/>
<path d="M286.214 93.593V130.147H275.936V93.593H286.214Z" fill="#75726D"/>
<path d="M296.493 93.593V130.147H287.359V93.593H296.493Z" fill="#75726D"/>
<path d="M218.294 130.148H205.663V91.844H218.294V130.148Z" fill="white"/>
<path d="M216.815 93.593V128.397H207.141V93.593H216.815Z" fill="#75726D"/>
<path d="M202.708 89.0212V139.701H155.656V95.6071H191.824L202.708 89.0212Z" fill="#BAB4A8"/>
<path d="M187.121 139.701H166.159V98.9668H187.121V139.701Z" fill="#54514C"/>
<path d="M169.697 118.705C169.697 119.335 169.289 119.847 168.785 119.847C168.282 119.847 167.873 119.335 167.873 118.705C167.873 118.073 168.282 117.562 168.785 117.562C169.289 117.562 169.697 118.073 169.697 118.705Z" fill="#BAB4A8"/>
<path d="M281.515 48.4319H195.065L192.323 45.6094H278.79L281.515 48.4319Z" fill="#EA7A2F"/>
<path d="M289.48 56.698H203.094L198.983 52.4641H285.401L289.48 56.698Z" fill="#EA7A2F"/>
<path d="M299.308 66.8985H213.002L206.908 60.625H293.261L299.308 66.8985Z" fill="#EA7A2F"/>
<path d="M311.684 79.7451H225.483L220.564 74.6804H306.806L311.684 79.7451Z" fill="#EA7A2F"/>
<path d="M311.681 142.378H151.513V139.701H311.681V142.378Z" fill="#A89F91"/>
<path d="M275.936 111.341L286.214 121.623V125.76L275.936 115.478V111.341Z" fill="#54514C"/>
<path d="M294.737 130.148H290.6L287.359 126.906V122.769L294.737 130.148Z" fill="#54514C"/>
<path d="M296.493 100.979L289.107 93.593H296.493V100.979Z" fill="#54514C"/>
<path d="M279.74 93.593L286.214 100.068V109.922L275.936 99.6409V93.593H279.74Z" fill="#54514C"/>
<path d="M296.493 110.357V120.212L287.359 111.067V101.213L296.493 110.357Z" fill="#54514C"/>
<path d="M261.985 131.895H238.201V91.8438H261.985V131.895Z" fill="#E5E3E1"/>
<path d="M250.088 93.593V130.147H239.81V93.593H250.088Z" fill="#75726D"/>
<path d="M260.368 93.593V130.147H251.234V93.593H260.368Z" fill="#75726D"/>
<path d="M239.81 111.341L250.088 121.623V125.76L239.81 115.478V111.341Z" fill="#54514C"/>
<path d="M258.611 130.148H254.475L251.234 126.906V122.769L258.611 130.148Z" fill="#54514C"/>
<path d="M260.369 100.979L252.983 93.593H260.369V100.979Z" fill="#54514C"/>
<path d="M243.615 93.593L250.088 100.068V109.922L239.81 99.6409V93.593H243.615Z" fill="#54514C"/>
<path d="M260.368 110.357V120.212L251.234 111.067V101.213L260.368 110.357Z" fill="#54514C"/>
<path d="M216.815 107.326V110.269L207.141 100.601V97.6492L216.815 107.326Z" fill="#BAB4A8"/>
<path d="M216.815 121.647V127.993L207.141 118.324V111.97L216.815 121.647Z" fill="#BAB4A8"/>
<path d="M216.816 96.3995V102.076L208.342 93.593H214.01L216.816 96.3995Z" fill="#BAB4A8"/>
<path d="M38.5186 151.901H125.868V32.1299H38.5186V151.901Z" fill="#E5E3E1"/>
<path d="M115.761 49.6193H47.3661C46.9008 49.6193 46.5234 49.2421 46.5234 48.7765C46.5234 48.3111 46.9008 47.9338 47.3661 47.9338H115.761C116.226 47.9338 116.604 48.3111 116.604 48.7765C116.604 49.2421 116.226 49.6193 115.761 49.6193Z" fill="#BAB4A8"/>
<path d="M115.761 64.7168H47.3661C46.9008 64.7168 46.5234 64.3394 46.5234 63.874C46.5234 63.4085 46.9008 63.0312 47.3661 63.0312H115.761C116.226 63.0312 116.604 63.4085 116.604 63.874C116.604 64.3394 116.226 64.7168 115.761 64.7168Z" fill="#BAB4A8"/>
<path d="M88.0245 96.7735H47.3661C46.9008 96.7735 46.5234 96.3961 46.5234 95.93C46.5234 95.4652 46.9008 95.0872 47.3661 95.0872H88.0245C88.4898 95.0872 88.8671 95.4652 88.8671 95.93C88.8671 96.3961 88.4898 96.7735 88.0245 96.7735Z" fill="#BAB4A8"/>
<path d="M88.0245 106.613H47.3661C46.9008 106.613 46.5234 106.236 46.5234 105.77C46.5234 105.304 46.9008 104.927 47.3661 104.927H88.0245C88.4898 104.927 88.8671 105.304 88.8671 105.77C88.8671 106.236 88.4898 106.613 88.0245 106.613Z" fill="#BAB4A8"/>
<path d="M115.761 76.861H60.2899C59.8245 76.861 59.4473 76.4838 59.4473 76.0183C59.4473 75.5529 59.8245 75.1755 60.2899 75.1755H115.761C116.226 75.1755 116.604 75.5529 116.604 76.0183C116.604 76.4838 116.226 76.861 115.761 76.861Z" fill="#BAB4A8"/>
<path d="M115.761 87.802H60.2899C59.8245 87.802 59.4473 87.4247 59.4473 86.9592C59.4473 86.4938 59.8245 86.1157 60.2899 86.1157H115.761C116.226 86.1157 116.604 86.4938 116.604 86.9592C116.604 87.4247 116.226 87.802 115.761 87.802Z" fill="#BAB4A8"/>
<path d="M98.3024 39.9266H65.4072C64.9948 39.9266 64.6602 39.5919 64.6602 39.1795V28.031C64.6602 27.6179 64.9948 27.2839 65.4072 27.2839H98.3024C98.7148 27.2839 99.0493 27.6179 99.0493 28.031V39.1795C99.0493 39.5919 98.7148 39.9266 98.3024 39.9266Z" fill="#F98D43"/>
<path d="M107.314 120.234H96.873C96.873 120.234 97.6148 119.043 98.4655 114.68C99.3163 110.308 97.6417 104.406 97.6417 104.406L102.094 105.032L106.544 104.406C106.544 104.406 104.87 110.308 105.721 114.68C106.572 119.043 107.314 120.234 107.314 120.234Z" fill="#75726D"/>
<path d="M107.822 101.737C107.822 104.084 105.257 105.986 102.093 105.986C98.9293 105.986 96.3643 104.084 96.3643 101.737C96.3643 99.3906 98.9293 97.4893 102.093 97.4893C105.257 97.4893 107.822 99.3906 107.822 101.737Z" fill="#54514C"/>
<path d="M109.864 98.7882C109.864 101.892 106.385 104.408 102.094 104.408C97.8016 104.408 94.3223 101.892 94.3223 98.7882C94.3223 95.6848 97.8016 93.1692 102.094 93.1692C106.385 93.1692 109.864 95.6848 109.864 98.7882Z" fill="#75726D"/>
<path d="M108.138 120.929V120.936C108.138 121.317 107.825 121.63 107.443 121.63H96.8734C96.4918 121.63 96.1787 121.317 96.1787 120.936V120.929C96.1787 120.548 96.4918 120.234 96.8734 120.234H107.443C107.825 120.234 108.138 120.548 108.138 120.929Z" fill="#BAB4A8"/>
<path d="M108.138 122.325V122.332C108.138 122.713 107.825 123.026 107.443 123.026H96.8734C96.4918 123.026 96.1787 122.713 96.1787 122.332V122.325C96.1787 121.944 96.4918 121.631 96.8734 121.631H107.443C107.825 121.631 108.138 121.944 108.138 122.325Z" fill="#54514C"/>
<path d="M109.951 131.032H94.3661C94.1195 131.032 93.8836 130.9 93.7678 130.683C91.2715 125.99 96.8735 123.026 96.8735 123.026H107.443C107.443 123.026 113.046 125.99 110.549 130.683C110.433 130.9 110.197 131.032 109.951 131.032Z" fill="#75726D"/>
<path d="M110.475 132.435H93.9258V131.032H110.475V132.435Z" fill="#54514C"/>
<path d="M117.269 138.106H86.9266C86.5143 138.106 86.1797 137.772 86.1797 137.359V133.182C86.1797 132.77 86.5143 132.435 86.9266 132.435H117.269C117.681 132.435 118.016 132.77 118.016 133.182V137.359C118.016 137.772 117.681 138.106 117.269 138.106Z" fill="#75726D"/>
<path d="M30.4132 57.7322C30.4132 57.7322 29.7173 63.6269 33.6816 65.3154C37.646 67.0031 40.7035 58.9254 40.7035 58.9254C40.7035 58.9254 41.9648 56.2567 39.6472 54.2551C37.3303 52.2536 31.9231 52.4642 30.4132 57.7322Z" fill="#231547"/>
<path d="M33.6788 60.4008C33.6788 60.4008 33.3276 58.9962 32.485 59.7687C31.6423 60.5412 32.0285 61.5244 32.8009 62.0512C33.5735 62.5779 33.6435 62.6481 33.6788 63.1748C33.7138 63.7016 34.0748 68.1618 31.7878 69.6718C29.5007 71.1824 31.8569 74.8343 34.9974 74.4129C38.1377 73.9916 40.6306 71.7442 40.6306 71.7442C40.6306 71.7442 39.5773 70.3748 38.84 69.5313C38.1027 68.6885 38.1377 66.9918 38.1377 66.9918C38.1377 66.9918 39.5773 66.9679 40.455 64.5802C41.3329 62.1916 40.6306 58.4695 40.6306 58.4695C40.6306 58.4695 39.7177 59.1366 38.0324 58.7153C36.3471 58.2939 35.0482 59.3473 34.8022 59.6984C34.5565 60.0496 34.2754 61.5244 33.9245 61.3137C33.5735 61.1031 33.6788 60.4008 33.6788 60.4008Z" fill="#E54863"/>
<path d="M34.833 65.5447C34.833 65.5447 35.6719 67.3208 36.5672 68.1569C37.112 68.6658 37.8313 68.6897 38.332 68.4857C38.1278 67.737 38.138 66.9921 38.138 66.9921C38.138 66.9921 36.2462 67.0571 35.5394 66.3009C34.833 65.5447 34.833 65.5447 34.833 65.5447Z" fill="#AF2845"/>
<path d="M64.0697 82.7306L66.3844 90.2675C66.5331 90.7532 67.0747 90.9974 67.537 90.7883L76.8798 86.5649C77.2929 86.3781 77.484 85.8984 77.313 85.4785L71.7341 71.8123C71.554 71.3714 71.0454 71.1675 70.6106 71.361L61.4614 75.4433C61.0245 75.6382 60.8377 76.1575 61.0491 76.5863L64.0197 82.6051L64.0697 82.7306Z" fill="white"/>
<path d="M51.9959 163.027C51.9248 163.781 47.0261 164.097 46.4454 164.058C45.8567 164.02 45.6737 163.344 45.386 163.112C45.0972 162.873 44.7683 163.281 44.677 163.926C44.5941 164.572 42.1304 164.363 41.3257 164.288C40.5295 164.213 40.626 163.143 40.4571 161.576C40.3278 160.378 40.7171 159.743 40.989 159.12C41.0704 158.933 41.1427 158.739 41.1879 158.53C41.3575 157.664 39.6428 150.644 39.7478 145.172C39.8447 139.703 40.4413 131.008 40.4413 131.008C40.6167 128.31 47.7798 128.954 47.7798 128.954C47.7798 128.954 47.1425 132.083 47.2175 132.779C47.2925 133.474 44.6058 156.898 44.6148 157.77L44.6169 157.787C44.6691 158.273 51.2005 160.993 51.8605 161.77C52.5289 162.545 52.0765 162.28 51.9959 163.027Z" fill="#E54863"/>
<path d="M51.996 163.027C51.9248 163.781 47.0262 164.097 46.4456 164.058C45.8567 164.02 45.6738 163.344 45.3862 163.112C45.0972 162.873 44.7685 163.281 44.6771 163.926C44.5943 164.572 42.1306 164.363 41.3258 164.288C40.5296 164.213 40.6262 163.143 40.4572 161.576C40.328 160.377 40.7172 159.743 40.989 159.12C41.3912 159.314 41.8133 159.455 42.2376 159.46C43.9358 159.489 43.2308 158.216 43.7776 158.022C43.9491 157.961 44.2613 157.868 44.6149 157.77L44.617 157.787C44.6693 158.273 51.2006 160.993 51.8605 161.77C52.529 162.545 52.0765 162.28 51.996 163.027Z" fill="#231547"/>
<path d="M37.1707 163.716C37.0191 164.458 32.1149 164.247 31.5418 164.145C30.9604 164.045 30.8509 163.353 30.5895 163.092C30.3283 162.822 29.9575 163.193 29.7973 163.825C29.6459 164.458 27.2189 163.985 26.4267 163.825C25.643 163.665 25.854 162.611 25.854 161.036C25.854 159.83 26.3088 159.24 26.6459 158.651C26.7471 158.474 26.84 158.288 26.9073 158.086C27.1684 157.243 26.2164 150.079 26.9073 144.65C27.5898 139.222 29.1149 130.642 29.1149 130.642C29.5785 127.979 36.6313 129.386 36.6313 129.386C36.6313 129.386 35.6623 132.429 35.6623 133.129C35.6623 133.829 30.48 156.83 30.3957 157.698V157.714C30.3957 158.204 36.5977 161.608 37.1707 162.451C37.7519 163.294 37.3309 162.982 37.1707 163.716Z" fill="#E54863"/>
<path d="M37.1707 163.716C37.0191 164.458 32.1149 164.247 31.5418 164.145C30.9604 164.045 30.8509 163.353 30.5895 163.092C30.3283 162.822 29.9575 163.193 29.7973 163.825C29.6459 164.458 27.2189 163.985 26.4267 163.825C25.643 163.665 25.854 162.611 25.854 161.035C25.854 159.83 26.3088 159.24 26.6459 158.651C27.0251 158.887 27.4296 159.072 27.8509 159.122C29.5361 159.334 28.9716 157.993 29.5361 157.858C29.7132 157.816 30.0334 157.757 30.3957 157.698V157.714C30.3957 158.204 36.5977 161.608 37.1707 162.451C37.7519 163.294 37.3309 162.982 37.1707 163.716Z" fill="#231547"/>
<path d="M48.8154 130.322C48.706 131.688 46.3886 132.109 45.2257 132.531C44.0714 132.952 40.8103 132.749 39.8582 132.042C38.9059 131.334 38.5184 119.466 38.5184 119.466C38.5184 119.466 37.1193 131.586 36.3779 131.797C35.6447 132.008 29.6368 132.218 28.2716 131.797C26.9066 131.375 27.429 130.642 27.2099 129.378C26.9907 128.113 25.6424 114.519 25.8449 112.521C26.064 110.515 27.1004 103.351 27.1004 103.351C27.1004 103.351 34.6926 103.452 37.4312 103.351C40.1614 103.249 44.8467 102.786 44.8467 102.786C44.8467 102.786 48.4279 125.796 48.7904 129.791C48.8154 130.052 48.8239 130.237 48.8154 130.322Z" fill="#41277A"/>
<path d="M48.8155 130.322C48.7062 131.688 46.3889 132.109 45.2259 132.531C44.0717 132.952 40.8105 132.749 39.8585 132.042C38.9061 131.334 38.5186 119.466 38.5186 119.466L39.3274 112.411H42.2262L40.3722 113.465C40.3722 113.465 40.802 127.473 42.2262 129.268C43.0772 130.339 46.3215 130.128 48.7905 129.791C48.8155 130.052 48.824 130.237 48.8155 130.322Z" fill="#231547"/>
<path d="M46.6 79.6457C46.6863 79.7764 49.2332 86.1074 49.8299 86.1426C50.4269 86.1777 55.9746 84.3868 57.8353 84.0006C59.6959 83.6143 61.6977 83.509 62.0488 83.0525C62.3998 82.596 62.5402 81.7876 63.3828 81.2961C64.2253 80.8045 65.4892 80.3128 65.5243 80.8045C65.5594 81.296 64.0499 82.6662 64.0499 82.6662L64.9274 86.0021C64.9274 86.0021 62.786 85.8266 62.6104 85.9319C62.4349 86.0372 56.5363 88.6708 53.6218 89.9357C50.7079 91.1998 49.0576 92.1479 47.4777 91.6212C45.8977 91.0944 44.388 89.2058 43.2997 86.8142C42.2111 84.4219 41.6491 81.3663 43.0888 80.1724C44.5283 78.9785 45.371 77.7846 46.6 79.6457Z" fill="#E54863"/>
<path d="M44.5606 82.0013C44.5606 82.0013 44.5606 100.4 44.8471 102.786C45.1248 105.18 39.7155 104.548 37.263 104.548C34.8024 104.548 27.8507 103.418 27.1008 103.351C26.6965 103.317 26.9153 100.982 27.2187 98.7068C27.4714 96.7261 27.7833 94.7874 27.7833 94.4333V93.9865C27.7833 91.6943 27.7833 82.0685 27.7833 82.0685C27.7833 82.0685 26.5193 82.844 26.0222 82.844C25.9802 82.844 25.9127 82.8358 25.8369 82.8104C25.0532 82.5833 22.6854 81.302 22.1628 80.2396L22.0954 80.1051C21.6741 78.9082 25.6767 72.022 26.5193 71.112C27.2187 70.3447 30.6736 69.3921 31.7858 69.0971C32.005 69.0381 32.1312 69.0044 32.1312 69.0044L37.1201 70.9686L39.7155 69.7045C39.7155 69.7045 43.9286 71.2547 44.4932 71.9547C45.0577 72.6541 47.9312 79.6075 47.9312 80.383C47.9312 81.1585 44.5606 82.0013 44.5606 82.0013Z" fill="#99B746"/>
<path d="M33.6793 72.1307C33.6793 72.1307 34.5964 73.114 34.9979 72.8682C35.3998 72.6224 36.3829 71.323 36.5235 71.2528C36.6639 71.1825 37.1556 71.2528 37.1556 71.2528C37.1556 71.2528 37.7876 70.9367 37.928 70.9367C38.0687 70.9367 38.3844 72.1703 38.7007 71.9223C39.0164 71.6742 40.1052 69.8122 39.9649 69.4961C39.8242 69.18 38.9815 68.3372 38.7358 68.583C38.4898 68.8288 37.1556 70.723 37.1556 70.723C37.1556 70.723 32.4502 68.4597 32.2745 68.5389C32.0992 68.6181 31.7881 69.0941 31.7881 69.0941C31.7881 69.0941 32.9413 71.5113 33.6793 72.1307Z" fill="white"/>
<path d="M27.7803 88.0223V82.0708C27.7824 82.0693 27.7832 82.0686 27.7832 82.0686C27.7832 82.0686 27.7832 85.0036 27.7832 88.0185L27.7803 88.0223Z" fill="#7F9D8B"/>
<path d="M27.7832 88.0181C27.7832 85.0034 27.7832 82.0688 27.7832 82.0688C27.7832 82.0688 27.7824 82.0696 27.7803 82.0711V82.0688C27.7803 82.0688 29.3253 80.0322 29.8519 78.1008C29.8519 78.1008 30.3433 84.5926 27.7832 88.0181Z" fill="#5A8349"/>
<path d="M44.5636 81.9991L43.9141 76.8015L46.0761 81.5425L44.5636 81.9991Z" fill="#5A8349"/>
<path d="M84.7041 121.404L73.2273 120.663L6.42255 88.4371L3.78488 87.164L3.00962 86.7853C1.60246 86.1023 0.785156 84.7112 0.785156 83.2619C0.785156 82.6806 0.911538 82.0903 1.18955 81.5338C2.15856 79.5868 4.54324 78.7866 6.50688 79.7556L7.43353 80.2106L9.83509 81.3993L75.7803 113.92L84.7041 121.404Z" fill="#231547"/>
<path d="M9.83609 81.3993L6.42314 88.438L3.78516 87.1646L7.43424 80.2104L9.83609 81.3993Z" fill="#FFAF5F"/>
<path d="M3.78446 87.1638C3.78446 87.1638 1.12177 86.9389 2.80702 88.7656C4.49234 90.5916 6.52484 92.0813 15.2144 95.4523C23.9044 98.824 26.0241 98.4916 24.6746 97.0773C23.3252 95.663 3.78446 87.1638 3.78446 87.1638Z" fill="#FFAF5F"/>
<path d="M84.7044 121.404L73.2277 120.663C73.2277 120.663 71.8876 116.272 75.7807 113.92L84.7044 121.404Z" fill="#75726D"/>
<path d="M35.6963 102.668C35.8562 103.14 32.0138 102.087 31.0615 101.766C30.1178 101.454 30.3286 100.612 27.7837 99.0857C27.6069 98.9766 27.4129 98.8505 27.2191 98.707C24.6576 96.81 20.9836 92.1159 20.6551 91.8716C20.3008 91.6019 19.7447 90.6575 19.3742 90.1264C19.0034 89.6041 18.6325 89.2836 18.7422 88.0194C18.818 87.0168 21.1773 82.2121 22.1632 80.2397C22.6858 81.3021 25.0536 82.5835 25.8373 82.8105C25.3485 84.0247 23.9833 87.4629 23.8485 88.0194C23.6883 88.7023 24.2194 89.1827 25.5843 90.8092C26.1069 91.433 26.9157 92.6636 27.7837 93.9867C29.1824 96.119 30.7498 98.5217 31.5925 99.1365C32.9576 100.14 32.6458 100.081 33.0081 100.823C33.379 101.563 35.5361 102.187 35.6963 102.668Z" fill="#E54863"/>
<path d="M148.538 159.007C148.538 159.007 148.819 160.778 149.206 161.481C149.593 162.184 149.616 164.564 149.537 164.836C149.458 165.109 146.161 166.547 145.57 165.917C144.978 165.287 144.884 164.873 144.543 165.171C144.202 165.469 144.019 166.301 143.284 166.364C142.55 166.427 137.645 167.123 137.299 166.311C136.954 165.498 136.756 164.564 137.449 164.072C138.141 163.58 142.309 163.11 143.114 161.871C143.919 160.633 143.686 160.168 143.854 160.122C144.022 160.077 147.871 156.531 148.538 159.007Z" fill="#231547"/>
<path d="M130.999 159.558C130.999 159.558 131.104 161.349 131.42 162.087C131.736 162.824 131.526 165.195 131.42 165.458C131.315 165.722 127.893 166.828 127.366 166.143C126.839 165.458 126.786 165.037 126.418 165.3C126.049 165.563 125.786 166.373 125.049 166.364C124.31 166.354 119.361 166.564 119.097 165.722C118.834 164.879 118.729 163.93 119.466 163.509C120.204 163.087 124.397 163.029 125.32 161.876C126.243 160.722 126.056 160.238 126.227 160.209C126.4 160.18 130.578 157.03 130.999 159.558Z" fill="#231547"/>
<path d="M146.268 160.344C145.113 160.986 143.319 160.244 142.696 159.721C142.055 159.19 135.533 134.537 135.003 133.373C134.471 132.218 133.739 124.001 133.739 124.001C133.739 124.001 132.474 128.847 132.365 129.479C132.263 130.111 131.741 159.299 131.521 160.244C131.32 161.186 129.415 161.296 128.572 161.296C127.797 161.296 126.221 160.758 125.32 160.353C125.244 160.311 125.168 160.277 125.101 160.244C124.258 159.822 123.837 126.319 123.837 126.007C123.837 125.686 126.365 100.3 126.365 100.3C126.365 100.3 142.696 95.3442 143.875 101.092C145.063 106.832 143.007 129.268 143.193 130.001C143.37 130.743 148.796 155.818 149.016 158.136C149.217 160.454 147.431 159.721 146.268 160.344Z" fill="#41277A"/>
<path d="M129.525 61.4721C129.525 61.4721 126.628 60.3127 127.576 57.7845C128.524 55.2562 130.473 57.0994 130.473 57.0994C130.473 57.0994 136.339 55.5191 138.33 56.994C140.321 58.4695 139.425 60.6817 139.425 60.6817C139.425 60.6817 141.058 62.5256 140.269 65.2645C139.478 68.0042 135.949 68.6363 135.949 68.6363L129.525 61.4721Z" fill="#231547"/>
<path d="M129.526 61.4722C129.526 61.4722 128.908 65.8966 129.901 68.0042C130.895 70.1111 131.896 70.0588 131.896 70.0588C131.896 70.0588 131.442 73.6897 130.615 74.1388C129.788 74.5885 131.316 77.9602 133.527 78.7499C135.74 79.5403 138.005 78.6722 138.689 76.7096C139.374 74.7469 139.005 74.1388 139.005 74.1388C139.005 74.1388 137.46 73.816 137.162 72.6923C136.863 71.5687 136.477 68.2149 136.477 68.2149C136.477 68.2149 138.5 66.4233 138.331 65.1068C138.162 63.7897 137.583 64.3694 137.32 64.6855C137.057 65.0016 136.635 65.6336 136.319 65.3698C136.003 65.1068 136.161 64.7378 136.161 63.9481C136.161 63.1577 135.792 62.2619 135.108 61.7881C134.423 61.3138 130.42 62.3149 129.526 61.4722Z" fill="#FFB2A8"/>
<path d="M145.443 82.667C144.794 87.8341 143.597 94.408 143.639 95.5548C143.707 97.3837 144.415 100.68 143.639 101.597C143.033 102.305 136.182 103.654 131.842 103.688C130.611 103.696 129.583 103.595 128.96 103.351C126.154 102.229 125.733 102.154 125.733 101.033C125.733 100.704 125.792 99.575 125.868 98.1503C125.977 96.077 126.138 93.3799 126.256 91.6018V91.5928C126.28 91.1461 126.306 90.759 126.323 90.455C126.357 89.9917 126.365 89.722 126.365 89.722L124.325 93.1692L118.848 89.722C118.848 89.722 119.346 88.5506 120.079 86.8561C121.924 82.558 125.295 74.8791 125.943 74.2725C126.854 73.4297 131.066 71.9548 131.066 71.9548L133.881 75.7473L136.898 71.9548C136.898 71.9548 144.643 74.6684 145.653 76.3629C146.024 76.9949 145.829 79.5821 145.443 82.667Z" fill="#FC4254"/>
<path d="M131.842 103.688L132.052 100.821L125.868 98.1501C125.977 96.0769 126.138 93.3798 126.256 91.6016V91.5927L130.857 90.2867L135.702 91.7698C135.702 91.7698 140.125 89.3005 140.783 88.4578C141.44 87.6151 141.238 82.7684 141.238 82.7684C141.249 81.8278 141.662 81.4319 142.35 81.4319C143.104 81.4319 144.191 81.9085 145.443 82.6668C145.436 82.7214 145.429 82.7759 145.422 82.8305C144.95 86.5407 144.209 90.9307 143.849 93.5143C143.845 93.5397 143.842 93.5651 143.839 93.5905C143.792 93.9311 143.751 94.239 143.719 94.5079C143.668 94.9457 143.638 95.2812 143.638 95.4888C143.638 95.512 143.638 95.5344 143.639 95.5546C143.683 96.7478 144 98.5648 143.999 99.9387C143.999 100.671 143.909 101.278 143.639 101.597C143.033 102.305 136.182 103.654 131.842 103.688Z" fill="#CA2043"/>
<path d="M124.325 93.1694L118.848 89.7222C118.848 89.7222 119.346 88.5507 120.079 86.8562C121.591 87.1095 124.073 87.4951 125.046 87.4951C125.303 87.4951 125.455 87.4674 125.455 87.4039C125.455 86.9825 125.8 81.0825 125.8 81.0825L126.365 89.7222L124.325 93.1694Z" fill="#CA2043"/>
<path d="M93.9562 79.3499L99.4201 85.1034C99.4993 85.1864 99.5948 85.2529 99.7009 85.2977L133.124 99.5377C133.446 99.6737 133.648 99.9883 133.637 100.337C133.584 101.867 133.655 106.128 135.844 108.584C138.101 111.113 144.513 112.774 146.574 113.254C146.954 113.342 147.34 113.159 147.515 112.811L155.728 96.4783C155.922 96.0913 155.796 95.6236 155.431 95.3905C153.376 94.0794 146.866 90.0538 143.639 89.5847C140.603 89.1423 138.217 91.8267 137.336 92.9945C137.106 93.2993 136.697 93.4046 136.345 93.2582L132.094 91.4861C131.974 91.436 131.846 91.4151 131.716 91.4226L126.767 91.7333C126.437 91.7542 126.125 91.5802 125.97 91.2881L124.686 88.8689C124.551 88.6149 124.295 88.4468 124.008 88.4244L119.496 88.068C119.264 88.0494 119.049 87.9358 118.904 87.7527L115.822 83.8835C115.652 83.6705 115.389 83.5525 115.117 83.5674L110.824 83.7998C110.532 83.8155 110.252 83.6787 110.087 83.4381L108.229 80.7605C108.065 80.5251 107.794 80.3892 107.508 80.3989L104.157 80.5125C103.943 80.5199 103.734 80.4452 103.573 80.304L100.124 77.2766C99.9324 77.1094 99.6755 77.0369 99.4253 77.0802L94.4245 77.9387C93.7604 78.0529 93.4923 78.8613 93.9562 79.3499Z" fill="#FFAF5F"/>
<path d="M144.131 109.075C144.131 109.075 143.78 112.06 143.78 112.481C143.78 112.903 143.323 113.324 142.797 113.394C142.27 113.465 138.513 112.376 138.372 111.235C138.232 110.093 138.864 110.163 139.355 109.812C139.847 109.461 141.241 108.583 141.241 108.583L144.131 109.075Z" fill="#ED827A"/>
<path d="M141.639 105.879C141.639 105.879 140.461 108.303 140.787 108.725C141.112 109.146 144.343 110.621 144.694 110.094C145.045 109.567 145.747 107.987 145.642 107.53C145.536 107.073 142.166 105.317 141.639 105.879Z" fill="white"/>
<path d="M144.377 75.1758C144.377 75.1758 138.303 75.958 141.954 83.6847C145.605 91.4106 146.097 92.7449 145.957 93.4472C145.816 94.1495 140.551 105.739 141.112 106.441C141.674 107.144 145.647 108.9 145.977 108.198C146.308 107.495 151.293 96.1166 151.925 93.9388C152.557 91.7617 146.589 75.4462 144.377 75.1758Z" fill="#FC4254"/>
<path d="M123.472 95.4249C123.472 95.4249 120.836 98.7152 119.413 97.9778C117.991 97.2404 102.402 89.2335 102.349 88.2847C102.297 87.3366 102.87 86.6477 102.87 86.6477L123.472 95.4249Z" fill="#FC4254"/>
<path d="M102.346 87.9165C102.346 87.9165 101.612 87.9688 101.349 87.4421C101.085 86.9153 101.349 86 101.349 86L102.87 86.6478L102.346 87.9165Z" fill="white"/>
<path d="M101.232 86.9591C101.232 86.9591 97.8724 85.5985 97.451 84.3873C97.0297 83.1753 97.9777 82.1217 98.8203 82.2794C99.6637 82.4378 100.506 83.2284 100.717 83.8074C100.928 84.3873 101.349 86.0005 101.349 86.0005L101.232 86.9591Z" fill="#ED827A"/>
<path d="M129.9 72.384C129.9 72.384 130.613 73.6408 130.929 74.5539C131.245 75.467 131.35 76.5916 131.666 76.3809C131.982 76.1694 133.881 75.7479 133.881 75.7479C133.881 75.7479 134.897 77.048 135.283 76.6266C135.67 76.2045 138.487 72.8682 138.325 72.4819C138.163 72.0956 137.039 71.5688 136.863 71.5688C136.688 71.5688 133.774 75.1764 133.774 75.1764C133.774 75.1764 131.737 72.0605 131.385 71.7795C131.034 71.4986 129.925 72.0052 129.9 72.384Z" fill="white"/>
<path d="M131.896 70.059C131.896 70.059 134.002 69.7953 134.634 68.8994C134.634 68.8994 134.318 71.2344 131.643 71.5691L131.896 70.059Z" fill="#ED827A"/>
<path d="M133.738 124.001C133.738 124.001 132.474 128.847 132.365 129.479C132.263 130.111 131.742 159.299 131.522 160.243C131.321 161.186 129.416 161.296 128.573 161.296C127.798 161.296 126.222 160.757 125.32 160.352C127.225 160.066 129.213 159.687 129.213 159.299C129.213 158.558 130.478 130.221 130.68 128.957C130.899 127.692 132.348 123.68 132.348 123.68V112.411L133.738 124.001Z" fill="#231547"/>
<path d="M235.767 167.08C235.767 167.08 229.317 162.141 229.62 159.923C229.922 157.705 234.255 160.427 234.255 160.427C234.255 160.427 231.021 155.387 232.688 153.673C234.356 151.96 237.278 157.605 237.278 157.605C237.278 157.605 237.682 153.572 239.899 154.782C242.116 155.991 243.829 164.661 243.829 164.661L245.861 164.334C245.861 164.334 247.445 155.057 249.661 154.653C251.879 154.25 250.682 158.311 250.682 158.311C250.682 158.311 255.822 152.42 257.736 153.349C259.651 154.278 253.503 162.442 253.503 162.442C253.503 162.442 255.923 160.327 256.83 161.838C257.736 163.35 252.495 167.08 252.495 167.08H235.767Z" fill="#99B746"/>
<path d="M247.255 128.872V167.08H240.806V128.872H247.255Z" fill="#75726D"/>
<path d="M247.256 128.872V135.776L240.806 135.324V128.872H247.256Z" fill="#54514C"/>
<path d="M222.666 110.279V130.139C222.666 131.008 223.356 131.722 224.225 131.75L263.326 133.054C264.237 133.085 264.992 132.354 264.992 131.443V109.07C264.992 108.159 264.24 107.429 263.33 107.457L224.229 108.669C223.358 108.695 222.666 109.409 222.666 110.279Z" fill="#F98D43"/>
<path d="M261.973 110.293H261.965L225.677 111.417C225.554 111.42 225.457 111.52 225.457 111.644V128.778C225.457 128.901 225.553 129.001 225.676 129.004L261.965 130.214L262.13 130.152L262.2 129.988V110.52L262.131 110.356L261.973 110.293ZM261.975 130.962L261.94 130.961L225.652 129.751C225.124 129.735 224.71 129.307 224.71 128.778V111.644C224.71 111.114 225.124 110.687 225.654 110.669L261.943 109.546C262.21 109.548 262.46 109.636 262.65 109.821C262.841 110.006 262.946 110.255 262.946 110.52V129.988C262.946 130.254 262.84 130.503 262.649 130.688C262.466 130.866 262.228 130.962 261.975 130.962Z" fill="white"/>
<path d="M233.633 119.62C233.365 119.351 233.072 119.137 232.756 118.979C232.44 118.82 232.12 118.688 231.801 118.584C231.481 118.48 231.188 118.378 230.925 118.28C230.661 118.182 230.445 118.054 230.28 117.897C230.115 117.741 230.031 117.523 230.031 117.243C230.031 117.057 230.073 116.881 230.155 116.716C230.238 116.551 230.375 116.413 230.562 116.305C230.75 116.197 230.999 116.14 231.309 116.134C231.655 116.128 232.015 116.198 232.384 116.346C232.752 116.493 233.126 116.731 233.502 117.059C233.774 116.014 233.91 115.489 234.181 114.437C233.797 114.077 233.354 113.814 232.853 113.645C232.351 113.476 231.841 113.4 231.321 113.415C230.544 113.44 229.895 113.642 229.375 114.018C228.856 114.393 228.468 114.88 228.213 115.476C227.956 116.072 227.828 116.727 227.828 117.442C227.828 118.09 227.908 118.626 228.071 119.054C228.233 119.482 228.445 119.83 228.709 120.098C228.972 120.365 229.267 120.582 229.591 120.747C229.914 120.912 230.233 121.047 230.546 121.149C230.857 121.25 231.148 121.359 231.416 121.473C231.684 121.588 231.902 121.725 232.067 121.886C232.232 122.047 232.315 122.266 232.315 122.537C232.315 122.749 232.272 122.933 232.186 123.085C232.099 123.236 231.962 123.352 231.778 123.431C231.594 123.51 231.342 123.547 231.026 123.54C230.567 123.531 230.105 123.407 229.641 123.171C229.178 122.935 228.77 122.641 228.416 122.289C228.121 123.307 227.974 123.815 227.681 124.826C228.05 125.216 228.534 125.547 229.133 125.815C229.732 126.084 230.359 126.231 231.015 126.252C231.799 126.279 232.452 126.118 232.972 125.766C233.492 125.415 233.881 124.935 234.141 124.326C234.401 123.719 234.532 123.048 234.532 122.318C234.532 121.661 234.448 121.113 234.283 120.676C234.117 120.24 233.899 119.887 233.633 119.62Z" fill="white"/>
<path d="M238.854 121.111C239.176 119.82 239.492 118.539 239.868 117.014C240.245 118.527 240.561 119.812 240.884 121.126C240.144 121.121 239.554 121.116 238.854 121.111ZM238.782 113.483C237.384 118.633 236.686 121.167 235.288 126.143C236.202 126.173 236.658 126.187 237.572 126.217C237.8 125.313 238.003 124.504 238.194 123.745C239.392 123.769 240.283 123.787 241.541 123.812C241.732 124.592 241.935 125.428 242.162 126.364C243.093 126.394 243.56 126.409 244.491 126.439C243.089 121.144 242.388 118.539 240.986 113.418C240.105 113.444 239.664 113.457 238.782 113.483Z" fill="white"/>
<path d="M247.926 113.246C247.031 113.273 246.583 113.286 245.688 113.312C245.688 118.578 245.688 121.212 245.688 126.478C248.089 126.555 249.29 126.594 251.692 126.671C251.692 125.457 251.692 124.85 251.692 123.635C250.186 123.608 249.433 123.594 247.926 123.567C247.926 119.438 247.926 117.374 247.926 113.246Z" fill="white"/>
<path d="M255.537 123.774C255.537 122.817 255.537 122.016 255.537 121.264C256.899 121.273 257.639 121.279 259.052 121.289C259.052 120.118 259.052 119.531 259.052 118.359C257.639 118.368 256.899 118.372 255.537 118.38C255.537 117.689 255.537 116.952 255.537 116.087C257.134 116.061 257.931 116.049 259.527 116.022C259.527 114.793 259.527 114.178 259.527 112.947C257.049 113.021 255.81 113.058 253.331 113.131C253.331 118.567 253.331 121.287 253.331 126.723C255.869 126.804 257.137 126.845 259.674 126.927C259.674 125.697 259.674 125.082 259.674 123.851C258.02 123.821 257.192 123.805 255.537 123.774Z" fill="white"/>
<path d="M229.608 167.784H261.096C261.096 167.784 243.21 155.402 229.608 167.784Z" fill="#E5E3E1"/>
<path d="M231.244 30.1432H267.809C271.435 20.2267 261.295 22.1072 258.072 24.6601C257.803 11.8971 247.259 15.5916 240.813 23.4513C237.388 20.6294 233.427 24.9455 231.244 30.1432Z" fill="#F2F1F0"/>
<path d="M130.845 38.4236H178.521C183.865 31.14 172.834 30.9592 167.873 33.6055C169.939 25.6449 160.196 21.5552 151.972 28.9673C150.519 24.7499 141.529 27.509 140.729 33.6055C138.013 30.5005 130.845 38.4236 130.845 38.4236Z" fill="#F2F1F0"/>
<path d="M189.634 11.8764H214.493C220.029 3.27262 206.316 0.204969 200.098 8.8095C200.098 5.48707 192.116 7.70227 189.634 11.8764Z" fill="#F2F1F0"/>
<path d="M182.971 153.25H197.62C195.405 147.77 187.569 147.059 182.971 153.25Z" fill="#E5E3E1"/>
<path d="M290.119 162.281H304.002C306.302 156.886 293.696 155.92 290.119 162.281Z" fill="#E5E3E1"/>
<path d="M267.805 153.733H274.328C272.49 150.496 268.997 150.325 267.805 153.733Z" fill="#E5E3E1"/>
</g>
</g>
<defs>
<clipPath id="clip0_2115_5798">
<rect width="329.98" height="169.98" fill="white" transform="translate(0.629883 0.487305)"/>
</clipPath>
<clipPath id="clip1_2115_5798">
<rect width="329.961" height="169.98" fill="white" transform="translate(0.639648 0.487305)"/>
</clipPath>
</defs>
</svg>
