<?xml version="1.0" encoding="UTF-8"?>
<svg version="1.1" viewBox="0 0 2000 2000" width="1280" height="1280" xmlns="http://www.w3.org/2000/svg">
<path transform="translate(0)" d="m0 0h2e3v2e3h-2e3z" fill="#FDFDFD"/>
<path transform="translate(1398,852)" d="m0 0 6 2 2 5-5 4-5 3 9 9h5l10-11 4 2 60 60 7 8 34 34 8 13 3 8 1 8v9l-2 12-4 9-7 10-9 10-9 9-7 8-56 56-8 7-8 8-4-1-9-10h-4l-1 3-4 4h-2l1 5 6 4v3l-4 4h-4l-2-4-1-7-7-6-7-7v-4l8-8h2v-6l-7-7-5 1-5 5-1 4 4 2 2 3-1 6-5 3-4-2-1-2v-8l-5-6-7-5-1-6 11-11-1-5-3-3v-5l17-16 29-29 7-10 2-5v-14l-4-8-11-12-44-44-2-1 2-4 3-2v-5l-2-4-4-2-5-6 1-4 12-12-1-7 5-5 5 1 3 2 5-8 9-10 2-9z" fill="#38C090"/>
<path transform="translate(516,914)" d="m0 0h92l3 5 2 9-1 14-5 6-4 2-14 1h-47l-1 7-1 17h58l4 2 3 9v14l-3 7-6 4-10 1-45 1v26l69 1 3 8 1 5v9l-3 9-5 4-7 2h-79l-11-2-6-4-6-8-2-13v-107l1-13 6-10 8-5z" fill="#010001"/>
<path transform="translate(1211,942)" d="m0 0h17l15 2 13 4 11 6 7 6 6 10 3 8 1 6v70l-3 8-7 6-14 7-18 4-13 1h-12l-18-2-13-4-9-5-9-8-5-9-2-7v-16l4-13 9-10 11-6 18-4 36-4 1-3-3-7-8-4-5-1h-19l-17 3-9 3-4-1-4-5-2-6v-11l4-7 10-6 17-4z" fill="#010001"/>
<path transform="translate(756,942)" d="m0 0h11l13 2 13 5 10 6 9 8 7 11 4 11 1 5v15l-5 8-10 5-36 6-27 4h-6l3 7 7 6 11 4 12 1 15-2 16-5 6-2 6 7 3 10-2 9-4 6-14 7-13 3-9 1h-16l-14-2-15-5-11-6-12-11-7-11-5-12-2-9-1-9v-13l3-16 8-17 9-10 7-6 14-7 12-3z" fill="#010001"/>
<path transform="translate(973,918)" d="m0 0h22l8 4 4 5 2 6v23h34l3 3 2 6v17l-6 7-7 2h-26l1 45 1 4 9 3h12l10-1 4 6 1 3v12l-4 8-9 6-16 3-18-1-14-4-9-6-7-8-4-10-1-5-1-24v-101l2-2z" fill="#010001"/>
<path transform="translate(898,942)" d="m0 0h15l14 3 10 5 7 8 2 10-3 10-4 5-7-1-10-3h-17l-10 4-8 7-5 10-1 5v13l4 12 6 7 10 5 4 1h15l12-3 7-1 6 7 2 5v11l-3 6-7 6-10 4-15 2-18-1-16-4-16-8-11-9-8-11-6-13-2-9-1-18 2-15 5-14 7-11 6-7 11-8 13-6 12-3z" fill="#010001"/>
<path transform="translate(641,900)" d="m0 0h23l8 4 4 5 2 7v158l-5 3-8 1h-15l-9-3-5-4-3-8v-161l1-1z" fill="#010001"/>
<path transform="translate(1113,943)" d="m0 0h25l9 4 5 5 3 7-1 12-3 6-23 3-19 4v91l-4 2-20 1-11-2-6-4-3-6-1-4v-89l3-9 4-5 11-7 13-5z" fill="#010001"/>
<path transform="translate(1234,1022)" d="m0 0h6l1 1v20l-5 3-7 1h-16l-5-3-4-5v-7l4-5 9-3z" fill="#F0F9F6"/>
<path transform="translate(756,975)" d="m0 0h9l9 3 6 7 2 3v3l-13 3-32 5-1-4 4-10 9-8z" fill="#F2FAF7"/>
<path transform="translate(1405,879)" d="m0 0 5 1 11 11 1 4-12 12-5-1-12-12 3-6z" fill="#FEFEFE"/>
<path transform="translate(1411,1093)" d="m0 0 4 1 11 11-1 5-4 2-2 5-3 4h-5l-8-8-4-3v-5z" fill="#FEFEFE"/>
<path transform="translate(1382,836)" d="m0 0h5l7 8-2 5-6 6h-2l1 7-7 8h-3l-8-6-1-3 6-8 5-1 5 3-3-5-4-3 1-5z" fill="#37BE8F"/>
<path transform="translate(1379,1130)" d="m0 0 5 1 5 6v6l4 5 6 5-2 5-7 6-5-2-5-5v-5l3-3-10-6-1-5z" fill="#38C090"/>
<path transform="translate(1380,882)" d="m0 0 5 3 7 6v4l-5 3-4 5-5-2-7-7v-2l6-4z" fill="#FEFEFE"/>
<path transform="translate(1353,1105)" d="m0 0 5 1 4 4v5l-5 5-5-1-5-4 1-5z" fill="#38C090"/>
<path transform="translate(1348,880)" d="m0 0 4 1 6 5-2 5-6 5-3-2v-2l-4-2 1-5z" fill="#38C090"/>
<path transform="translate(1349,1077)" d="m0 0 5 1 3 3v6l-3 4-5-1-5-5 3-6z" fill="#38C090"/>
<path transform="translate(1347,1128)" d="m0 0 5 2 2 3-1 7-2 2-4-1-4-3 1-7z" fill="#38C090"/>
<path transform="translate(1345,910)" d="m0 0 5 1 3 4-1 5-3 2h-5l-4-4 1-4z" fill="#38C090"/>
<path transform="translate(1354,841)" d="m0 0 7 1 2 4-3 6-4 1-5-5 1-6z" fill="#38C090"/>
<path transform="translate(1342,859)" d="m0 0 6 1 2 4-3 5-5 2-4-4 1-6z" fill="#38C090"/>
<path transform="translate(1330,844)" d="m0 0 7 1 1 4-4 6-5-1-2-3v-5z" fill="#38C090"/>
<path transform="translate(1359,1148)" d="m0 0 6 1 2 3-1 5-6 2-4-3 1-6z" fill="#38C090"/>
<path transform="translate(1337,1145)" d="m0 0 4 2 1 5-1 3-6 1-3-3 1-5z" fill="#38C090"/>
<path transform="translate(1358,866)" d="m0 0 5 3-1 6-1 1h-5l-3-3 2-5z" fill="#38C090"/>
<path transform="translate(1361,1124)" d="m0 0 5 1 1 1v5l-4 3-3-1-1-7z" fill="#38C090"/>
<path transform="translate(1339,1095)" d="m0 0h5l2 2-1 4-5 3-3-5z" fill="#38C090"/>
<path transform="translate(1327,1130)" d="m0 0 5 1 1 5-3 3-4-2-1-5z" fill="#38C090"/>
<path transform="translate(1335,897)" d="m0 0 5 1 1 4-3 3-6-2 2-5z" fill="#38C090"/>
<path transform="translate(1323,862)" d="m0 0 6 1v5l-7 1-1-5z" fill="#38C090"/>
<path transform="translate(1336,1116)" d="m0 0 4 1 1 5-5 2-2-1v-5z" fill="#38C090"/>
<path transform="translate(1331,876)" d="m0 0 5 2-1 5-3 1-3-2v-5z" fill="#38C090"/>
<path transform="translate(1310,1136)" d="m0 0 4 1 1 5-6 1-1-1v-5z" fill="#38C090"/>
<path transform="translate(1304,857)" d="m0 0 5 1 1 4-1 2h-5l-1-1v-5z" fill="#38C090"/>
<path transform="translate(1324,1106)" d="m0 0 4 1 1 4-5 3-2-3 1-4z" fill="#38C090"/>
<path transform="translate(1319,887)" d="m0 0 4 1-1 5-4-1v-4z" fill="#38C090"/>
</svg>
