<svg width="31" height="31" viewBox="0 0 31 31" fill="none" xmlns="http://www.w3.org/2000/svg">
<path fill-rule="evenodd" clip-rule="evenodd" d="M3.98204 7.06041C2.51758 8.52488 2.51758 10.8819 2.51758 15.5959C2.51758 20.31 2.51758 22.667 3.98204 24.1315C5.44651 25.5959 7.80353 25.5959 12.5176 25.5959H17.5176C22.2316 25.5959 24.5886 25.5959 26.0531 24.1315C27.5176 22.667 27.5176 20.31 27.5176 15.5959C27.5176 10.8819 27.5176 8.52488 26.0531 7.06041C24.5886 5.59595 22.2316 5.59595 17.5176 5.59595H12.5176C7.80353 5.59595 5.44651 5.59595 3.98204 7.06041ZM23.2378 9.99577C23.5693 10.3935 23.5155 10.9847 23.1177 11.3162L20.3722 13.6042C19.2642 14.5275 18.3662 15.2758 17.5736 15.7856C16.748 16.3166 15.9439 16.652 15.0176 16.652C14.0912 16.652 13.2872 16.3166 12.4615 15.7856C11.669 15.2758 10.771 14.5275 9.66302 13.6042L6.91741 11.3162C6.51965 10.9847 6.4659 10.3935 6.79737 9.99577C7.12884 9.59801 7.71999 9.54427 8.11775 9.87574L10.8164 12.1246C11.9826 13.0964 12.7922 13.769 13.4758 14.2086C14.1375 14.6342 14.5862 14.777 15.0176 14.777C15.4489 14.777 15.8976 14.6342 16.5593 14.2086C17.2429 13.769 18.0526 13.0964 19.2188 12.1246L21.9174 9.87574C22.3152 9.54427 22.9063 9.59801 23.2378 9.99577Z" fill="#006ADC"/>
</svg>
