<svg width="37" height="37" viewBox="0 0 37 37" fill="none" xmlns="http://www.w3.org/2000/svg">
<path fill-rule="evenodd" clip-rule="evenodd" d="M16.7656 28.6006C16.7656 30.7223 15.9228 32.7571 14.4225 34.2574C12.9222 35.7577 10.8874 36.6006 8.76562 36.6006C6.64389 36.6006 4.60906 35.7577 3.10877 34.2574C1.60848 32.7571 0.765625 30.7223 0.765625 28.6006C0.765625 24.1806 8.76562 0.600586 8.76562 0.600586H12.7656L8.76562 20.6006C10.8874 20.6006 12.9222 21.4434 14.4225 22.9437C15.9228 24.444 16.7656 26.4789 16.7656 28.6006ZM36.7656 28.6006C36.7656 30.7223 35.9228 32.7571 34.4225 34.2574C32.9222 35.7577 30.8874 36.6006 28.7656 36.6006C26.6439 36.6006 24.6091 35.7577 23.1088 34.2574C21.6085 32.7571 20.7656 30.7223 20.7656 28.6006C20.7656 24.1806 28.7656 0.600586 28.7656 0.600586H32.7656L28.7656 20.6006C30.8874 20.6006 32.9222 21.4434 34.4225 22.9437C35.9228 24.444 36.7656 26.4789 36.7656 28.6006Z" fill="#E3C7EF"/>
</svg>
