<svg width="26" height="26" viewBox="0 0 26 26" fill="none" xmlns="http://www.w3.org/2000/svg">
<path d="M23.633 14.2932L21.923 9.16324C21.6749 8.41634 21.1978 7.76661 20.5594 7.30637C19.921 6.84613 19.1537 6.59879 18.3667 6.59949H6.96922C6.18221 6.59879 5.41499 6.84613 4.77657 7.30637C4.13816 7.76661 3.66103 8.41634 3.41297 9.16324L1.70297 14.2932C1.24834 14.4836 0.860108 14.8041 0.587012 15.2144C0.313915 15.6247 0.168132 16.1066 0.167969 16.5995V20.3495C0.167969 21.272 0.672969 22.0695 1.41797 22.5032V24.0995C1.41797 24.431 1.54966 24.749 1.78409 24.9834C2.01851 25.2178 2.33645 25.3495 2.66797 25.3495H3.91797C4.24949 25.3495 4.56743 25.2178 4.80185 24.9834C5.03627 24.749 5.16797 24.431 5.16797 24.0995V22.8495H20.168V24.0995C20.168 24.431 20.2997 24.749 20.5341 24.9834C20.7685 25.2178 21.0864 25.3495 21.418 25.3495H22.668C22.9995 25.3495 23.3174 25.2178 23.5519 24.9834C23.7863 24.749 23.918 24.431 23.918 24.0995V22.5032C24.2972 22.2857 24.6124 21.9722 24.8319 21.594C25.0513 21.2159 25.1672 20.7867 25.168 20.3495V16.5995C25.168 15.5607 24.5342 14.672 23.633 14.2932ZM6.96922 9.09949H18.3655C18.6279 9.09942 18.8837 9.18197 19.0967 9.33544C19.3096 9.4889 19.4688 9.70548 19.5517 9.95449L20.9342 14.0995H4.40172L5.78297 9.95449C5.95422 9.44324 6.43172 9.09949 6.96922 9.09949ZM4.54297 20.3495C4.29666 20.3494 4.05278 20.3008 3.82525 20.2065C3.59772 20.1121 3.39099 19.9739 3.21688 19.7997C2.86525 19.4478 2.6678 18.9707 2.66797 18.4732C2.66813 17.9758 2.8659 17.4988 3.21777 17.1472C3.56963 16.7955 4.04677 16.5981 4.54422 16.5982C5.04167 16.5984 5.51867 16.7962 5.8703 17.148C6.22193 17.4999 6.41938 17.977 6.41922 18.4745C6.41905 18.9719 6.22128 19.4489 5.86942 19.8006C5.51755 20.1522 5.04042 20.3497 4.54297 20.3495ZM20.793 20.3495C20.2955 20.3493 19.8185 20.1516 19.4669 19.7997C19.1153 19.4478 18.9178 18.9707 18.918 18.4732C18.9181 17.9758 19.1159 17.4988 19.4678 17.1472C19.8196 16.7955 20.2968 16.5981 20.7942 16.5982C21.2917 16.5984 21.7687 16.7962 22.1203 17.148C22.4719 17.4999 22.6694 17.977 22.6692 18.4745C22.6691 18.9719 22.4713 19.4489 22.1194 19.8006C21.7676 20.1522 21.2904 20.3497 20.793 20.3495ZM8.91797 3.32199C8.92422 1.96199 7.62172 0.758238 7.18422 0.391988C7.14444 0.358169 7.09393 0.3396 7.04172 0.3396C6.98951 0.3396 6.939 0.358169 6.89922 0.391988C6.45922 0.755738 5.16172 1.93824 5.16797 3.32074C5.16797 4.43949 6.00922 5.34949 7.04297 5.34949C8.07672 5.34949 8.91797 4.43949 8.91797 3.32199ZM14.543 3.32199C14.5492 1.96199 13.2467 0.756988 12.8092 0.391988C12.7694 0.358169 12.7189 0.3396 12.6667 0.3396C12.6145 0.3396 12.564 0.358169 12.5242 0.391988C12.083 0.755738 10.7855 1.93949 10.7917 3.32199C10.793 4.43949 11.6342 5.34949 12.668 5.34949C13.7017 5.34949 14.543 4.43949 14.543 3.32199ZM20.168 3.32199C20.1742 1.96199 18.8717 0.756988 18.4342 0.391988C18.3944 0.358169 18.3439 0.3396 18.2917 0.3396C18.2395 0.3396 18.189 0.358169 18.1492 0.391988C17.7092 0.755738 16.4117 1.93824 16.418 3.32074C16.418 4.43949 17.2592 5.34949 18.293 5.34949C19.3267 5.34949 20.168 4.43949 20.168 3.32199Z" fill="#006EFF"/>
</svg>
