<svg width="331" height="171" viewBox="0 0 331 171" fill="none" xmlns="http://www.w3.org/2000/svg">
<g clip-path="url(#clip0_2115_5549)">
<g clip-path="url(#clip1_2115_5549)">
<path d="M117.841 51.333H83.0693C83.0693 51.333 84.7948 46.5221 90.0223 49.3233C90.574 47.0529 93.1953 47.4852 93.1953 47.4852C93.6413 37.0151 108.611 35.4651 109.771 47.2149C114.774 41.8085 120.43 46.0122 117.841 51.333Z" fill="#E5E3E1"/>
<path d="M85.8053 83.0954H39.7012C39.7012 83.0954 40.7524 74.1264 50.2511 77.5505C50.9763 72.9374 54.7468 72.3967 55.7618 73.766C58.6258 64.6116 70.7349 59.7817 76.2455 73.4055C81.9012 69.6576 85.136 76.6128 82.2862 80.686C88.246 77.875 85.8053 83.0954 85.8053 83.0954Z" fill="#E5E3E1"/>
<path d="M286.396 137.63C286.396 137.63 288.767 137.652 289.756 134.155C290.744 130.657 293.313 133.8 295.584 131.05C297.857 128.299 299.833 125.353 300.13 127.317C300.426 129.282 299.833 138.416 297.363 141.264C294.893 144.112 298.647 148.139 295.782 150.398C292.918 152.656 290.25 151.184 289.262 153.443C288.273 155.701 277.801 162.184 271.281 158.55C264.761 154.916 279.777 137.728 286.396 137.63Z" fill="#678742"/>
<path d="M269.7 149.165C269.7 149.165 266.539 140.871 269.107 139.103C271.676 137.335 273.059 136.62 272.862 133.295C272.664 129.969 274.704 128.987 277.882 128.496C281.062 128.005 278.396 122.996 282.15 121.916C285.902 120.835 285.409 122.701 287.483 119.558C289.558 116.416 290.842 114.549 292.621 118.674C294.398 122.799 294.892 127.219 291.238 129.379C287.582 131.541 287.681 133.603 289.361 136.647C291.04 139.692 288.175 144.511 284.717 145.048C281.26 145.585 278.097 146.764 279.184 150.889C280.272 155.014 274.097 159.729 270.565 157.568C267.033 155.407 269.7 149.165 269.7 149.165Z" fill="#99B746"/>
<path d="M270.566 152.657L270.531 152.654C270.368 152.635 270.252 152.489 270.271 152.328C270.284 152.224 271.578 141.925 278.626 137.268C285.46 132.754 287.568 122.937 287.589 122.838C287.622 122.678 287.782 122.573 287.939 122.61C288.1 122.643 288.203 122.799 288.169 122.958C288.148 123.059 285.989 133.112 278.954 137.759C272.138 142.263 270.872 152.296 270.86 152.396C270.842 152.547 270.714 152.657 270.566 152.657Z" fill="#678742"/>
<path d="M37.6889 151.145C37.6889 151.145 32.8477 140.253 39.961 135.297C47.0743 130.342 51.52 134.27 51.52 134.27C51.52 134.27 51.6188 128.868 54.8791 129.261C58.1393 129.655 58.5345 132.503 58.5345 132.503C58.5345 132.503 63.1781 123.271 68.019 124.056C72.8596 124.842 74.0452 131.913 74.0452 131.913C74.0452 131.913 79.3148 122.038 87.6917 126.248C96.0685 130.46 93.4091 137.577 93.4091 137.577C93.4091 137.577 97.8551 136.136 100.028 140.95C102.202 145.761 95.7802 155.216 95.7802 155.216H34.9226C34.9226 155.216 33.737 149.064 37.6889 151.145Z" fill="#99B746"/>
<path d="M33.3415 159.215H97.5016C97.5016 159.215 100.028 148.444 96.3239 146.072C92.6189 143.699 89.5076 147.611 89.5076 147.611C89.5076 147.611 90.1493 144.092 87.5805 142.423C85.0117 140.753 81.7514 143.012 81.7514 143.012C81.7514 143.012 82.1468 136.038 76.6138 135.351C71.0816 134.664 68.4143 140.851 68.4143 140.851C68.4143 140.851 65.8452 135.057 60.6093 136.627C55.373 138.199 56.4598 145.859 56.4598 145.859C56.4598 145.859 55.8669 141.114 50.4334 143.635C44.9995 146.154 45.3947 152.913 45.3947 152.913C45.3947 152.913 46.0861 147.176 40.1584 145.88C34.2308 144.583 27.5126 152.24 33.3415 159.215Z" fill="#678742"/>
<path d="M61.2811 159.215H102.62C102.62 159.215 104.249 152.274 101.862 150.747C99.4744 149.218 97.4698 151.738 97.4698 151.738C97.4698 151.738 97.883 149.471 96.2285 148.396C94.5734 147.319 92.4722 148.775 92.4722 148.775C92.4722 148.775 92.7271 144.282 89.1626 143.839C85.5974 143.395 83.8792 147.383 83.8792 147.383C83.8792 147.383 82.2241 143.649 78.8501 144.661C75.4767 145.674 76.1768 150.609 76.1768 150.609C76.1768 150.609 75.7946 147.553 72.2938 149.177C68.7924 150.8 69.0473 155.155 69.0473 155.155C69.0473 155.155 69.4925 151.458 65.6735 150.623C61.854 149.788 57.5255 154.721 61.2811 159.215Z" fill="#37664A"/>
<path d="M182.125 91.9944L180.745 95.9662L135.818 46.0123L90.892 95.9662L89.5049 91.9944L135.818 39.7302L182.125 91.9944Z" fill="#E2582D"/>
<path d="M275.986 91.9943H182.126L175.671 84.7106L166.839 74.7401L156.406 62.9661L147.573 52.9949L139.174 43.5193L135.818 39.7302H218.546L222.713 43.5193L233.122 52.9949L244.083 62.9661L257.022 74.7401L267.983 84.7106L275.986 91.9943Z" fill="#F98D43"/>
<path d="M180.745 95.9663H275.984V91.9932H182.126L180.745 95.9663Z" fill="#E2582D"/>
<path d="M267.406 95.9661V156.369H180.745V95.9661H267.406Z" fill="#BAB4A8"/>
<path d="M94.2471 92.2358V156.369H180.745V95.9661L135.818 46.0122L94.2471 92.2358Z" fill="#E5E3E1"/>
<path d="M148.141 118.807V156.369H120.358V118.807C120.358 111.182 126.577 105 134.253 105C141.924 105 148.141 111.182 148.141 118.807Z" fill="#918E88"/>
<path d="M134.547 105.004V156.371C134.547 156.535 134.416 156.666 134.252 156.666C134.088 156.666 133.956 156.535 133.956 156.371V105.004C134.055 104.997 134.153 104.997 134.252 104.997C134.35 104.997 134.449 104.997 134.547 105.004Z" fill="#54514C"/>
<path d="M131.622 129.851V136.039C131.622 136.363 131.355 136.628 131.029 136.628C130.697 136.628 130.436 136.363 130.436 136.039V129.851C130.436 129.526 130.697 129.261 131.029 129.261C131.355 129.261 131.622 129.526 131.622 129.851Z" fill="#54514C"/>
<path d="M137.769 129.851V136.039C137.769 136.363 137.502 136.628 137.175 136.628C136.85 136.628 136.583 136.363 136.583 136.039V129.851C136.583 129.526 136.85 129.261 137.175 129.261C137.502 129.261 137.769 129.526 137.769 129.851Z" fill="#54514C"/>
<path d="M159.849 143.634H151.254V110.036H159.849V143.634Z" fill="#918E88"/>
<path d="M170.273 143.634H161.677V110.036H170.273V143.634Z" fill="#918E88"/>
<path d="M105.759 143.634H97.1631V110.036H105.759V143.634Z" fill="#918E88"/>
<path d="M116.182 143.634H107.587V110.036H116.182V143.634Z" fill="#918E88"/>
<path d="M94.2471 92.2359V95.9661L135.815 49.6087L180.745 100.092V95.9661L135.818 46.0122L94.2471 92.2359Z" fill="#BAB4A8"/>
<path d="M261.757 95.9661V100.091H180.745V95.9661H261.757Z" fill="#918E88"/>
<path d="M191.217 95.9661V156.369H250.914V95.9661H191.217Z" fill="#918E88"/>
<path d="M265.215 157.548V158.037C265.215 158.691 264.681 159.215 264.029 159.215H90.0566C89.4044 159.215 88.8711 158.691 88.8711 158.037V157.548C88.8711 156.9 89.4044 156.369 90.0566 156.369H264.029C264.681 156.369 265.215 156.9 265.215 157.548Z" fill="#BAB4A8"/>
<path d="M222.713 43.5193H139.174L135.818 39.7302H218.546L222.713 43.5193Z" fill="#E2582D"/>
<path d="M244.082 62.9661H156.405L147.572 52.9949H233.121L244.082 62.9661Z" fill="#E2582D"/>
<path d="M267.982 84.7106H175.67L166.838 74.74H257.021L267.982 84.7106Z" fill="#E2582D"/>
<path d="M175.919 36.9373V69.0553L165.973 56.0714V32.6572L175.919 36.9373Z" fill="white"/>
<path d="M186.867 36.9375V69.0555H175.919V36.9375H186.867Z" fill="#D8D5CE"/>
<path d="M164.812 32.6543H177.74L188.12 37.441H175.916L164.812 32.6543Z" fill="#918E88"/>
<path d="M188.116 37.4409V43.4037H175.919V37.4409H188.116Z" fill="#BAB4A8"/>
<path d="M175.919 37.4409V43.4037L164.811 38.1722V32.6575L175.919 37.4409Z" fill="#D8D5CE"/>
<path d="M208.791 91.993H197.508L190.654 84.7107H201.831L208.791 91.993Z" fill="#D44D38"/>
<path d="M209.023 92.236H197.738L197.509 91.9932H208.791L209.023 92.236Z" fill="#C8332D"/>
<path d="M192.301 74.74H181.269L175.919 69.0554H186.867L192.301 74.74Z" fill="#D44D38"/>
<path d="M201.831 84.7106H190.654L181.27 74.74H192.301L201.831 84.7106Z" fill="#C8332D"/>
<path d="M114.774 161.859C114.774 163.319 102.708 164.503 87.8248 164.503C72.941 164.503 60.875 163.319 60.875 161.859C60.875 160.398 72.941 159.215 87.8248 159.215C102.708 159.215 114.774 160.398 114.774 161.859Z" fill="#E5E3E1"/>
<path d="M99.4851 67.3204C99.5068 67.1996 101.385 67.5235 101.607 63.472C101.829 59.4205 98.1985 59.7521 98.1985 59.7521C98.1985 59.7521 97.2717 57.0632 94.2707 57.0632C91.2705 57.0632 90.0225 58.4632 90.0225 58.4632C90.0225 58.4632 88.2445 56.2039 84.1447 58.9046C80.0443 61.6058 80.1435 65.8291 82.0699 68.3828C83.9963 70.9365 83.2554 71.8199 82.3168 72.8026C81.3782 73.7847 79.3035 80.8071 86.8613 78.5969C94.4192 76.3874 94.3206 72.42 94.0238 68.0439C93.7276 63.6685 99.4851 67.3204 99.4851 67.3204Z" fill="#41277A"/>
<path d="M91.2303 73.6372C91.2303 73.6372 92.0729 73.1463 92.3199 72.0414C92.5669 70.9366 92.1715 69.1194 92.1222 68.6774C92.0729 68.2353 91.6034 67.5726 91.6034 67.5726C91.6034 67.5726 90.0225 67.6954 90.0225 66.1975C90.0225 64.6997 90.9367 64.1107 91.4057 64.3066C91.8752 64.5031 91.8995 64.9941 92.295 64.7245C92.6904 64.4542 92.1715 64.0122 92.6162 63.0549C93.0608 62.097 94.938 60.5254 96.0244 60.6481C97.1113 60.7708 97.3333 61.4343 97.3333 61.4343C97.3333 61.4343 99.2105 61.7535 99.6058 64.1838C100.001 66.6147 98.84 70.347 98.1983 70.6664C97.556 70.9856 97.1606 70.9856 97.1606 70.9856C97.1606 70.9856 97.1363 72.6304 97.309 73.0483C97.4818 73.4655 98.1602 73.6627 98.1602 73.6627C98.1602 73.6627 98.7658 83.6554 95.7774 82.0714C92.7889 80.488 91.2303 73.6372 91.2303 73.6372Z" fill="#FFB2A8"/>
<path d="M100.868 155.844C100.94 156.545 101.681 160.487 101.461 160.964C101.236 161.442 100.311 162.178 99.2323 162.326C98.1598 162.473 95.6403 162.29 95.4925 161.625C95.4268 161.329 95.8242 160.086 96.2806 158.696C96.8435 156.975 97.4958 155.037 97.4544 154.441C97.413 153.81 97.2113 150.658 97.057 148.195C96.9506 146.497 96.8612 145.124 96.8612 145.124L102.457 144.759C102.457 144.759 101.918 146.515 101.461 148.254C101.153 149.468 100.88 150.67 100.868 151.277C100.839 152.343 100.809 153.887 100.827 154.924C100.833 155.325 100.845 155.649 100.868 155.844Z" fill="#FFB2A8"/>
<path d="M101.462 160.965C101.237 161.443 100.312 162.179 99.2328 162.327C98.1601 162.474 95.6403 162.291 95.4925 161.626C95.4268 161.33 95.8242 160.087 96.2807 158.696C96.4942 159.415 97.6444 160.193 98.7946 159.71C99.9383 159.232 99.642 154.965 100.828 154.924C100.834 155.325 100.846 155.649 100.869 155.844C100.941 156.545 101.682 160.488 101.462 160.965Z" fill="#231547"/>
<path d="M85.9722 143.469C85.9722 143.469 85.6523 144.812 85.2253 146.532C84.8464 148.042 84.3899 149.845 83.9985 151.277C83.4829 153.151 82.9613 154.688 82.6467 155.891C82.4392 156.645 82.3151 157.264 82.3151 157.759C82.3151 159.038 83.1564 160.116 82.3151 160.753C81.4789 161.395 72.8308 162.178 72.6823 160.753C72.5345 159.333 73.6248 158.69 75.3023 158.006C75.5454 157.907 75.8002 157.765 76.0727 157.594C77.6615 156.592 79.5584 154.506 79.8967 153.292C80.1456 152.396 80.3348 148.189 80.4418 145.183C80.501 143.404 80.5364 142.043 80.5364 142.043L85.9722 143.469Z" fill="#FFB2A8"/>
<path d="M80.536 142.043L85.9724 143.469C85.9724 143.469 85.6525 144.813 85.2255 146.533C83.5183 146.116 81.8938 145.65 80.4414 145.184C80.5006 143.404 80.536 142.043 80.536 142.043Z" fill="#F26173"/>
<path d="M102.458 144.759C102.458 144.759 101.919 146.515 101.462 148.254C100.175 148.277 98.6816 148.266 97.0571 148.195C96.9507 146.497 96.8613 145.124 96.8613 145.124L102.458 144.759Z" fill="#F26173"/>
<path d="M82.0028 105.189C82.0028 105.189 82.959 111.082 82.3909 111.376C81.8228 111.671 81.2546 110.002 81.0077 110.492C80.7607 110.984 80.588 113.856 80.1926 114.053C79.7972 114.25 79.1798 113.611 78.9578 112.481C78.7351 111.352 79.0642 109.388 79.2205 108.848C79.3775 108.308 80.1184 106.22 80.1184 105.459C80.1184 104.698 81.8057 103.864 82.0028 105.189Z" fill="#FFB2A8"/>
<path d="M84.4412 98.2645C84.4412 98.2645 83.0579 105.755 82.7617 105.976C82.4654 106.197 79.7834 106.025 79.5929 105.534C79.4024 105.042 80.2668 97.6265 80.2668 97.6265L84.4412 98.2645Z" fill="#41277A"/>
<path d="M121.267 85.6443C121.267 85.6443 123.539 86.7739 124.601 86.9697C125.663 87.1663 128.109 86.356 128.182 86.9697C128.257 87.5836 126.058 87.8297 126.7 88.2221C127.343 88.6152 128.578 89.0325 129.591 89.2538C130.604 89.4745 130.851 89.5482 130.875 89.8917C130.899 90.2358 129.517 92.7648 128.825 92.642C128.133 92.5192 123.86 90.6779 122.971 89.9414C122.082 89.2042 120.428 88.4187 120.428 88.4187L121.267 85.6443Z" fill="#FFB2A8"/>
<path d="M116.03 82.3783C116.146 82.5148 118.13 83.6067 119.39 84.3675C120.65 85.1289 122.305 85.5462 122.329 85.8414C122.354 86.1359 121.44 89.4265 120.922 89.5244C120.403 89.623 114.894 87.2408 114.202 86.2828C113.511 85.3255 115.487 81.7403 116.03 82.3783Z" fill="#41277A"/>
<path d="M107.164 144.576C107.015 146.639 104.941 145.755 103.085 146.415C101.236 147.075 96.2685 146.485 95.9007 146.415C95.5336 146.344 96.5648 141.477 96.5648 138.902C96.5648 136.326 96.719 124.464 96.5648 122.844C96.4229 121.223 94.2705 108.924 94.2705 108.924C94.2705 108.924 90.4945 122.696 90.1983 124.541C89.902 126.38 89.2321 143.027 89.1553 144.647C89.1021 145.891 87.3471 146.132 85.3675 145.484C84.7625 145.289 84.1346 145.012 83.5238 144.647C80.9334 143.104 79.671 143.616 79.3032 143.398C78.936 143.174 79.8963 140.298 80.1925 135.878C80.4887 131.459 84.3416 108.258 85.3025 104.281C86.2687 100.303 89.1553 92.9365 89.1553 92.9365L102.57 92.2C102.57 92.2 105.533 97.5039 106.126 102.954C106.719 108.406 105.533 120.044 105.237 124.093C104.941 128.147 107.312 142.514 107.164 144.576Z" fill="#41277A"/>
<path d="M115.166 86.4429C114.277 87.4621 113.239 86.1595 111.385 85.7181C109.535 85.276 104.128 81.5928 104.128 81.5928C104.128 81.5928 104.099 82.0172 104.04 82.6949C103.975 83.5078 103.874 84.6923 103.756 85.9421C103.625 87.3204 103.975 89.1004 104.271 90.4911L104.277 90.497V90.5029C104.472 91.4105 104.644 92.147 104.644 92.4944C104.644 93.3785 102.718 93.2316 101.088 93.7441C99.4574 94.2626 96.423 94.4866 94.5675 93.8969C93.5882 93.5862 92.0526 93.8695 90.7127 94.1523C89.514 94.4056 88.471 94.6589 88.1243 94.4866C87.3768 94.115 87.899 92.1999 88.0467 90.8745C88.1952 89.5483 87.7505 87.12 87.5311 86.8255L87.4897 86.8491C87.1456 87.4915 85.4327 97.769 84.9348 98.6825C84.4133 99.6371 81.5266 99.2009 80.5605 98.6825C79.5996 98.164 79.748 95.7357 79.5996 93.7441C79.4518 91.7579 81.7453 81.1507 83.1569 77.6149C84.567 74.0793 91.2303 73.6372 91.2303 73.6372C91.2303 73.6372 95.2374 79.8958 96.0492 80.1197C96.861 80.3437 97.9993 73.6372 97.9993 73.6372C97.9993 73.6372 104.199 74.5918 106.796 75.4759C109.386 76.36 116.126 81.8167 116.352 82.5474C116.577 83.2898 116.055 85.4229 115.166 86.4429Z" fill="#FC4254"/>
<path d="M87.5282 87.1181C87.3745 87.1181 87.2444 86.9999 87.2333 86.8445L86.8621 81.7613C86.8503 81.5993 86.9731 81.4583 87.1367 81.4466C87.2996 81.4368 87.4415 81.5563 87.4533 81.7189L87.8238 86.802C87.8356 86.9646 87.7134 87.1057 87.5499 87.1174L87.5282 87.1181Z" fill="#BA153D"/>
<path d="M104.126 81.8879C104.027 81.8879 103.929 81.8376 103.873 81.7462L102.39 79.3149C102.306 79.1758 102.351 78.9943 102.49 78.9101C102.631 78.8265 102.813 78.8702 102.897 79.0093L104.38 81.4405C104.465 81.5796 104.419 81.7612 104.28 81.8454L104.126 81.8879Z" fill="#BA153D"/>
<path d="M88.1242 94.4867C87.828 94.3391 87.7308 93.9492 87.7314 93.4498C87.7321 92.6891 87.9574 91.6744 88.0467 90.8745C88.0671 90.6904 88.0763 90.4854 88.0763 90.268C88.0763 89.1534 87.8339 87.7091 87.6434 87.0947C87.757 87.047 87.8332 86.9308 87.8234 86.8015L87.5869 83.5518C87.6519 83.5883 87.7294 83.6693 87.8214 83.8024C87.8214 83.8024 89.606 87.3382 93.0082 87.4857C93.1218 87.491 93.2322 87.4929 93.3385 87.4929C94.8328 87.4929 95.6617 87.03 96.2239 86.5664C96.7861 86.1028 97.0817 85.6392 97.5106 85.6392C97.5421 85.6392 97.5749 85.6418 97.6084 85.647C98.0564 85.713 98.7717 85.841 99.5684 85.841C100.479 85.841 101.497 85.6738 102.345 85.0581C103.282 84.3803 103.78 83.3963 104.039 82.6951C103.974 83.508 103.874 84.6924 103.756 85.9422C103.736 86.1466 103.728 86.36 103.728 86.5801C103.728 87.8403 104.018 89.3068 104.271 90.4913C104.181 90.3672 103.495 89.3891 102.867 89.2539C102.633 89.2023 101.623 89.169 100.292 89.169C97.8075 89.169 94.2022 89.2853 92.4157 89.619C89.6769 90.1374 88.1242 91.758 88.1242 94.4867Z" fill="#CA2043"/>
<path d="M87.6437 87.0949C87.6029 86.9637 87.5642 86.8703 87.5313 86.8259L87.49 86.8494C87.3743 86.0129 87.0814 83.5281 87.509 83.5281C87.5327 83.5281 87.5589 83.5359 87.5872 83.5516L87.8236 86.8017C87.8335 86.931 87.7573 87.0473 87.6437 87.0949Z" fill="#BA153D"/>
<path d="M94.2711 108.923C94.2711 108.923 90.4952 122.696 90.199 124.541C89.9027 126.379 89.2328 143.026 89.1559 144.647C89.1027 145.891 87.3477 146.132 85.3682 145.484C86.6837 138.683 87.2177 125.295 87.2827 124.611C87.3595 123.828 86.7133 123.138 87.2827 122.449C87.8575 121.765 92.0485 108.306 91.8764 107.286C91.8351 107.062 91.6991 106.856 91.5033 106.668C91.1119 106.302 91.3431 105.653 91.8823 105.653H93.8272L94.2711 108.923Z" fill="#231547"/>
<path d="M82.3151 160.752C81.4789 161.395 72.8308 162.178 72.6823 160.752C72.5345 159.333 73.6248 158.69 75.3023 158.006C75.5454 157.907 75.8002 157.765 76.0727 157.594C76.9384 157.841 78.2311 158.113 79.3213 157.977C81.0224 157.777 80.6317 155.631 82.6467 155.891C82.4392 156.645 82.3151 157.264 82.3151 157.759C82.3151 159.038 83.1564 160.115 82.3151 160.752Z" fill="#231547"/>
<path d="M93.6416 69.1809C93.6416 69.1809 94.5678 70.2492 95.4565 70.5803C96.346 70.912 97.1611 70.9858 97.1611 70.9858V73.0853C97.1611 73.0853 93.9746 71.3907 93.6416 69.1809Z" fill="#F26173"/>
<path d="M87.2842 67.6897C87.2073 67.6897 87.1325 67.6499 87.0917 67.5793C84.2872 62.7547 89.8287 58.3336 89.8851 58.2898C89.9823 58.2141 90.1209 58.2304 90.1971 58.3264C90.2733 58.4224 90.2569 58.5608 90.1603 58.6365C90.1071 58.6783 84.8658 62.8664 87.4766 67.358C87.5377 67.4638 87.5015 67.5989 87.3951 67.6597L87.2842 67.6897Z" fill="#231547"/>
<path d="M259.13 62.9661H197.401C195.95 62.9661 194.773 64.1355 194.773 65.5779V157.588C194.773 159.03 195.95 160.2 197.401 160.2H259.13C260.581 160.2 261.758 159.03 261.758 157.588V65.5779C261.758 64.1355 260.581 62.9661 259.13 62.9661Z" fill="#EFEFEF"/>
<path d="M221.306 88.9685H204.055C202.966 88.9685 202.084 89.8454 202.084 90.9274V108.077C202.084 109.16 202.966 110.036 204.055 110.036H221.306C222.394 110.036 223.275 109.16 223.275 108.077V90.9274C223.275 89.8454 222.394 88.9685 221.306 88.9685Z" fill="white"/>
<path d="M202.084 74.0152H255.286C255.613 74.0152 255.879 73.7515 255.879 73.4256C255.879 73.1004 255.613 72.8367 255.286 72.8367H202.084C201.756 72.8367 201.491 73.1004 201.491 73.4256C201.491 73.7515 201.756 74.0152 202.084 74.0152Z" fill="#BAB4A8"/>
<path d="M255.286 81.5288H202.084C201.756 81.5288 201.491 81.7926 201.491 82.1178C201.491 82.4436 201.756 82.7074 202.084 82.7074H255.286C255.613 82.7074 255.879 82.4436 255.879 82.1178C255.879 81.7926 255.613 81.5288 255.286 81.5288Z" fill="#BAB4A8"/>
<path d="M255.285 90.2209H228.685C228.357 90.2209 228.092 90.4848 228.092 90.81C228.092 91.1357 228.357 91.3996 228.685 91.3996H255.285C255.613 91.3996 255.879 91.1357 255.879 90.81C255.879 90.4848 255.613 90.2209 255.285 90.2209Z" fill="#BAB4A8"/>
<path d="M255.285 98.9128H228.685C228.357 98.9128 228.092 99.1767 228.092 99.5019C228.092 99.8276 228.357 100.091 228.685 100.091H255.285C255.613 100.091 255.879 99.8276 255.879 99.5019C255.879 99.1767 255.613 98.9128 255.285 98.9128Z" fill="#BAB4A8"/>
<path d="M255.285 107.605H228.685C228.357 107.605 228.092 107.869 228.092 108.194C228.092 108.52 228.357 108.784 228.685 108.784H255.285C255.613 108.784 255.879 108.52 255.879 108.194C255.879 107.869 255.613 107.605 255.285 107.605Z" fill="#BAB4A8"/>
<path d="M255.286 116.297H202.084C201.756 116.297 201.491 116.561 201.491 116.887C201.491 117.212 201.756 117.475 202.084 117.475H255.286C255.613 117.475 255.879 117.212 255.879 116.887C255.879 116.561 255.613 116.297 255.286 116.297Z" fill="#BAB4A8"/>
<path d="M255.286 124.99H202.084C201.756 124.99 201.491 125.253 201.491 125.579C201.491 125.904 201.756 126.168 202.084 126.168H255.286C255.613 126.168 255.879 125.904 255.879 125.579C255.879 125.253 255.613 124.99 255.286 124.99Z" fill="#BAB4A8"/>
<path d="M240.615 132.945H202.084C201.756 132.945 201.491 133.208 201.491 133.534C201.491 133.86 201.756 134.124 202.084 134.124H240.615C240.942 134.124 241.208 133.86 241.208 133.534C241.208 133.208 240.942 132.945 240.615 132.945Z" fill="#BAB4A8"/>
<path d="M226.765 149.105L223.482 140.487C223.368 140.187 223.033 140.033 222.729 140.14L207.557 145.488C207.239 145.599 207.079 145.951 207.204 146.262L210.617 154.746C210.735 155.038 211.063 155.187 211.363 155.083L226.405 149.87C226.721 149.761 226.883 149.415 226.765 149.105Z" fill="white"/>
<path d="M211.503 62.8957C211.379 65.4827 210.792 67.1386 209.695 67.9574C209.345 68.2165 208.995 68.3112 208.67 68.3112C207.94 68.3112 207.312 67.828 207.057 67.6276C206.796 67.433 206.749 67.0615 206.95 66.8023C207.151 66.5489 207.525 66.502 207.78 66.7023C208.521 67.2679 208.77 67.1738 208.984 67.0145C209.767 66.4256 210.216 65.0229 210.318 62.8421C210.377 61.5695 210.247 59.99 209.28 59.7015C208.942 59.5957 208.764 59.6838 208.646 59.766C207.988 60.2493 207.727 61.9822 207.715 62.9662H206.529V62.9603C206.529 62.6423 206.594 59.8013 207.94 58.8174C208.426 58.47 209.007 58.3812 209.63 58.5699C210.988 58.9825 211.616 60.438 211.503 62.8957Z" fill="#41277A"/>
<path d="M223.518 62.8957C223.399 65.4827 222.807 67.1386 221.711 67.9574C221.367 68.2165 221.017 68.3112 220.691 68.3112C219.956 68.3112 219.334 67.828 219.073 67.6276C218.812 67.433 218.765 67.0615 218.966 66.8023C219.167 66.5489 219.541 66.502 219.802 66.7023C220.537 67.2679 220.792 67.1738 220.999 67.0145C221.782 66.4256 222.231 65.0229 222.333 62.8421C222.392 61.5695 222.261 59.99 221.302 59.7015C220.958 59.5957 220.78 59.6838 220.662 59.766C220.004 60.2493 219.743 61.9822 219.731 62.9662H218.545V62.9603C218.551 62.6423 218.61 59.8013 219.962 58.8174C220.442 58.47 221.023 58.3812 221.646 58.5699C223.003 58.9825 223.631 60.438 223.518 62.8957Z" fill="#41277A"/>
<path d="M235.534 62.8957C235.415 65.4827 234.829 67.1386 233.732 67.9574C233.382 68.2165 233.032 68.3112 232.706 68.3112C231.971 68.3112 231.349 67.828 231.088 67.6276C230.833 67.433 230.785 67.0615 230.987 66.8023C231.188 66.5489 231.562 66.502 231.817 66.7023C232.558 67.2679 232.807 67.1738 233.02 67.0145C233.803 66.4256 234.253 65.0229 234.355 62.8421C234.414 61.5695 234.277 59.99 233.317 59.7015C232.979 59.5957 232.801 59.6838 232.682 59.766C232.019 60.2493 231.758 61.9822 231.752 62.9662H230.566V62.9603C230.566 62.6423 230.631 59.8013 231.977 58.8174C232.457 58.47 233.044 58.3812 233.667 58.5699C235.024 58.9825 235.653 60.438 235.534 62.8957Z" fill="#41277A"/>
<path d="M247.555 62.8957C247.436 65.4827 246.844 67.1386 245.748 67.9574C245.404 68.2165 245.054 68.3112 244.722 68.3112C243.993 68.3112 243.365 67.828 243.11 67.6276C242.849 67.433 242.801 67.0615 243.003 66.8023C243.204 66.5489 243.578 66.502 243.833 66.7023C244.574 67.2679 244.823 67.1738 245.036 67.0145C245.505 66.6612 245.854 66.0246 246.074 65.0994C246.222 64.5039 246.317 63.7968 246.364 62.9662L246.37 62.8421C246.43 61.5695 246.299 59.99 245.339 59.7015C244.995 59.5957 244.817 59.6838 244.698 59.766C244.041 60.2493 243.779 61.9822 243.767 62.9662H242.582V62.9603C242.588 62.6423 242.647 59.8013 243.999 58.8174C244.479 58.47 245.06 58.3812 245.682 58.5699C247.04 58.9825 247.668 60.438 247.555 62.8957Z" fill="#41277A"/>
<path d="M287.894 88.9836C287.894 89.2428 287.852 89.508 287.751 89.7671L286.134 94.0629L273.004 128.878L271.457 132.98L267.882 131.448L269.299 127.535L282.02 92.3776L283.526 88.2229C283.964 86.9974 285.357 86.4083 286.555 86.9327C287.391 87.3035 287.894 88.123 287.894 88.9836Z" fill="#FC4254"/>
<path d="M286.555 86.9327C285.357 86.4083 283.964 86.9974 283.526 88.2231L282.02 92.3783L286.134 94.0638L287.752 89.7675C287.853 89.5083 287.895 89.2431 287.895 88.9839C287.895 88.1232 287.391 87.3036 286.555 86.9327Z" fill="#41277A"/>
<path d="M286.822 92.2358C286.822 92.2358 289.518 92.6505 289.617 94.0628C289.716 95.4752 282.108 112.859 281.318 112.859C280.528 112.859 281.91 107.556 282.947 104.658C283.985 101.761 287.196 93.7076 287.196 93.7076L286.426 93.2851L286.822 92.2358Z" fill="#41277A"/>
<path d="M271.458 132.98L267.882 131.448L269.299 127.535L273.005 128.878L271.458 132.98Z" fill="#CA2043"/>
<path d="M272.066 130.955L268.221 129.722C267.598 129.522 266.929 129.863 266.729 130.482L262.929 142.225C262.722 142.866 263.097 143.549 263.752 143.723L267.409 144.693C268.01 144.852 268.632 144.523 268.835 143.939L272.822 132.461C273.039 131.837 272.697 131.158 272.066 130.955Z" fill="#41277A"/>
<path d="M278.034 146.682C278.034 144.139 272.443 142.079 265.548 142.079C258.653 142.079 253.063 144.139 253.063 146.682C253.063 149.225 258.653 151.287 265.548 151.287C272.443 151.287 278.034 149.225 278.034 146.682Z" fill="#634C47"/>
<path d="M278.201 147.308H252.227C251.502 147.308 250.913 147.893 250.913 148.614V158.894C250.913 159.615 251.502 160.2 252.227 160.2H278.201C278.927 160.2 279.515 159.615 279.515 158.894V148.614C279.515 147.893 278.927 147.308 278.201 147.308Z" fill="#A06352"/>
<path d="M182.126 164.619H43.5177C43.1904 164.619 42.9248 164.356 42.9248 164.03C42.9248 163.704 43.1904 163.44 43.5177 163.44H182.126C182.453 163.44 182.718 163.704 182.718 164.03C182.718 164.356 182.453 164.619 182.126 164.619Z" fill="#E5E3E1"/>
<path d="M265.215 164.619H191.217C190.89 164.619 190.625 164.356 190.625 164.03C190.625 163.704 190.89 163.44 191.217 163.44H265.215C265.542 163.44 265.808 163.704 265.808 164.03C265.808 164.356 265.542 164.619 265.215 164.619Z" fill="#E5E3E1"/>
<path d="M239.429 169.922H92.2738C91.946 169.922 91.6807 169.659 91.6807 169.333C91.6807 169.007 91.946 168.744 92.2738 168.744H239.429C239.757 168.744 240.022 169.007 240.022 169.333C240.022 169.659 239.757 169.922 239.429 169.922Z" fill="#E5E3E1"/>
<path d="M76.7109 107.123H47.8271C47.8271 107.123 50.9324 102.565 55.9521 106.028C62.6304 98.115 69.947 100.18 69.947 104.729C76.6682 101.033 77.6461 104.924 76.7109 107.123Z" fill="#E5E3E1"/>
</g>
</g>
<defs>
<clipPath id="clip0_2115_5549">
<rect width="329.98" height="169.98" fill="white" transform="translate(0.660156 0.487305)"/>
</clipPath>
<clipPath id="clip1_2115_5549">
<rect width="329.98" height="169.98" fill="white" transform="translate(0.660156 0.487305)"/>
</clipPath>
</defs>
</svg>
