<svg width="40" height="30" viewBox="0 0 40 30" fill="none" xmlns="http://www.w3.org/2000/svg">
<path d="M0.893555 4.29285C0.893555 3.33507 1.27403 2.41651 1.95129 1.73925C2.62855 1.062 3.5471 0.681519 4.50489 0.681519H35.8031C36.7609 0.681519 37.6794 1.062 38.3567 1.73925C39.0339 2.41651 39.4144 3.33507 39.4144 4.29285V25.9608C39.4144 26.9186 39.0339 27.8372 38.3567 28.5144C37.6794 29.1917 36.7609 29.5722 35.8031 29.5722H4.50489C3.5471 29.5722 2.62855 29.1917 1.95129 28.5144C1.27403 27.8372 0.893555 26.9186 0.893555 25.9608L0.893555 4.29285ZM4.50489 3.08907C4.18562 3.08907 3.87944 3.2159 3.65369 3.44165C3.42794 3.6674 3.30111 3.97359 3.30111 4.29285V25.9608C3.30111 26.2801 3.42794 26.5863 3.65369 26.812C3.87944 27.0378 4.18562 27.1646 4.50489 27.1646H35.8031C36.1224 27.1646 36.4285 27.0378 36.6543 26.812C36.88 26.5863 37.0069 26.2801 37.0069 25.9608V4.29285C37.0069 3.97359 36.88 3.6674 36.6543 3.44165C36.4285 3.2159 36.1224 3.08907 35.8031 3.08907H4.50489Z" fill="#006ADC"/>
<path d="M5.70898 6.70036C5.70898 6.3811 5.83581 6.07491 6.06156 5.84916C6.28731 5.62341 6.5935 5.49658 6.91276 5.49658H14.1354C14.4547 5.49658 14.7609 5.62341 14.9866 5.84916C15.2124 6.07491 15.3392 6.3811 15.3392 6.70036C15.3392 7.01962 15.2124 7.32581 14.9866 7.55156C14.7609 7.77731 14.4547 7.90414 14.1354 7.90414H8.11654V13.923C8.11654 14.2423 7.98971 14.5485 7.76396 14.7742C7.53821 15 7.23202 15.1268 6.91276 15.1268C6.5935 15.1268 6.28731 15 6.06156 14.7742C5.83581 14.5485 5.70898 14.2423 5.70898 13.923V6.70036ZM34.5996 23.5532C34.5996 23.8725 34.4728 24.1787 34.2471 24.4044C34.0213 24.6302 33.7151 24.757 33.3959 24.757H26.1732C25.8539 24.757 25.5477 24.6302 25.322 24.4044C25.0962 24.1787 24.9694 23.8725 24.9694 23.5532C24.9694 23.234 25.0962 22.9278 25.322 22.702C25.5477 22.4763 25.8539 22.3495 26.1732 22.3495H32.1921V16.3306C32.1921 16.0113 32.3189 15.7051 32.5447 15.4794C32.7704 15.2536 33.0766 15.1268 33.3959 15.1268C33.7151 15.1268 34.0213 15.2536 34.2471 15.4794C34.4728 15.7051 34.5996 16.0113 34.5996 16.3306V23.5532Z" fill="#006ADC"/>
</svg>
