<svg width="28" height="25" viewBox="0 0 28 25" fill="none" xmlns="http://www.w3.org/2000/svg">
<path fill-rule="evenodd" clip-rule="evenodd" d="M4.50551 19.1798C5.36407 17.8375 7.20233 17.8815 8.1151 19.0499C9.35259 20.634 11.08 22.1602 13.7932 22.1602C16.554 22.1602 18.2553 20.9366 19.4244 19.3738C20.3244 18.1708 22.2816 17.9743 23.2252 19.402C24.0065 20.5841 24.854 21.5109 26.5082 21.9006C27.0122 22.0194 27.3244 22.5242 27.2057 23.0282C27.0869 23.5321 26.5821 23.8444 26.0782 23.7257C23.7632 23.1802 22.5687 21.8092 21.661 20.4358C21.5898 20.3281 21.4828 20.2734 21.344 20.276C21.1958 20.2788 21.035 20.351 20.9258 20.497C19.4662 22.4481 17.2435 24.0352 13.7932 24.0352C10.24 24.0352 8.02892 21.9853 6.63753 20.2042C6.54787 20.0895 6.43087 20.0458 6.33024 20.0479C6.23532 20.05 6.1485 20.0909 6.08504 20.1901C5.16067 21.6353 3.96708 23.1463 1.5082 23.7257C1.00423 23.8444 0.499421 23.5321 0.380671 23.0282C0.26192 22.5242 0.574198 22.0194 1.07816 21.9006C2.82934 21.488 3.67765 20.4741 4.50551 19.1798Z" fill="#006ADC"/>
<path d="M26.5082 15.6506C24.854 15.2609 24.0065 14.3341 23.2252 13.152C22.3497 11.8273 20.6016 11.9009 19.635 12.8793L18.1682 11.2227L10.0441 2.01537C9.36624 1.24712 8.18073 1.21011 7.45625 1.93458C6.79996 2.59088 6.7596 3.64181 7.36363 4.34651L8.59827 5.78693C9.35381 6.66839 8.13934 8.61496 8.13934 8.61496L5.04113 12.3472C4.83906 12.4992 4.65703 12.6929 4.50551 12.9298C3.67765 14.2241 2.82934 15.238 1.07816 15.6506C0.574198 15.7694 0.26192 16.2742 0.380671 16.7782C0.499421 17.2821 1.00423 17.5944 1.5082 17.4757C3.96708 16.8963 5.16067 15.3853 6.08504 13.9401C6.1485 13.8409 6.23532 13.8 6.33024 13.7979C6.43087 13.7958 6.54787 13.8395 6.63753 13.9542C8.02892 15.7353 10.24 17.7852 13.7932 17.7852C17.2435 17.7852 19.4662 16.1981 20.9258 14.247C21.035 14.101 21.1958 14.0288 21.344 14.026C21.4828 14.0234 21.5898 14.0781 21.661 14.1858C22.5687 15.5592 23.7632 16.9302 26.0782 17.4757C26.5821 17.5944 27.0869 17.2821 27.2057 16.7782C27.3244 16.2742 27.0122 15.7694 26.5082 15.6506Z" fill="#006ADC"/>
<path d="M20.0432 6.84766C21.7691 6.84766 23.1682 5.44855 23.1682 3.72266C23.1682 1.99677 21.7691 0.597656 20.0432 0.597656C18.3173 0.597656 16.9182 1.99677 16.9182 3.72266C16.9182 5.44855 18.3173 6.84766 20.0432 6.84766Z" fill="#006ADC"/>
</svg>
