<?xml version="1.0" encoding="UTF-8"?>
<!-- Creator: CorelDRAW 2021 (64-Bit) -->
<svg xmlns="http://www.w3.org/2000/svg" xmlns:xlink="http://www.w3.org/1999/xlink" xmlns:xodm="http://www.corel.com/coreldraw/odm/2003" xml:space="preserve" width="20.517in" height="4.71974in" version="1.1" style="shape-rendering:geometricPrecision; text-rendering:geometricPrecision; image-rendering:optimizeQuality; fill-rule:evenodd; clip-rule:evenodd" viewBox="0 0 1808.47 416.02">
 <defs>
  <style type="text/css">
   <![CDATA[
    .fil1 {fill:white}
    .fil0 {fill:white;fill-rule:nonzero}
   ]]>
  </style>
 </defs>
 <g id="Layer_x0020_1">
  <metadata id="CorelCorpID_0Corel-Layer"></metadata>
  <g id="_2155798181712">
   <path class="fil0" d="M773.8 272.08c0,-35.17 -16.53,-54.52 -50.65,-67.18l0 -0.7c25.68,-13.37 38.69,-33.06 38.69,-58.74 0,-23.22 -8.79,-41.15 -26.03,-53.82 -17.24,-12.66 -37.64,-18.99 -61.91,-18.99l-114.32 0 0 275.42 116.08 0c48.19,0 98.14,-20.05 98.14,-75.98zm1034.67 19.35c0,-32.71 -24.97,-51.36 -72.46,-61.2 -16.53,-3.52 -24.62,-9.14 -24.62,-17.24 0,-7.39 8.44,-13.72 19.7,-13.72 15.83,0 27.08,5.98 34.12,17.94l39.75 -23.57c-12.31,-22.86 -37.64,-37.99 -72.46,-37.99 -19.7,0 -36.58,5.63 -51,16.88 -14.07,10.9 -21.1,25.33 -21.1,42.56 0,30.6 22.16,51 66.83,60.85 23.92,5.28 29.9,10.9 29.9,18.29 0,7.39 -9.15,13.72 -22.86,13.72 -20.4,0 -34.47,-7.74 -42.21,-22.86l-40.45 23.92c15.13,28.84 42.56,43.27 81.96,43.27 46.43,0 74.92,-24.62 74.92,-60.85zm-276.92 -32.36l1.41 0 66.48 88.99 69.29 0 -77.74 -101.3 75.63 -86.53 -70 0 -65.07 73.87 0 -172.71 -54.87 0 0 286.68 54.87 0 0 -88.99zm-195.66 0l1.41 0 66.48 88.99 69.29 0 -77.74 -101.3 75.63 -86.53 -70 0 -65.07 73.87 0 -172.71 -54.87 0 0 286.68 54.87 0 0 -88.99zm-159.43 93.21c41.86,0 75.98,-20.05 90.4,-58.39l-48.54 -20.05c-8.09,18.64 -21.81,27.79 -41.51,27.79 -26.73,0 -45.02,-19.7 -45.02,-47.84 0,-29.2 19.7,-47.49 45.02,-47.49 18.64,0 32.36,9.15 40.45,27.79l48.19 -20.05c-12.31,-36.93 -46.78,-58.04 -88.64,-58.04 -28.14,0 -52.06,9.5 -71.76,28.49 -19.7,18.99 -29.55,42.21 -29.55,70 0,28.14 9.5,51.36 28.49,70 18.99,18.64 43.27,27.79 72.46,27.79zm-311.74 -97.79c0,28.14 9.85,51.36 29.55,70 19.7,18.64 43.97,27.79 72.81,27.79 28.49,0 52.76,-9.5 72.81,-28.14 20.05,-18.99 29.9,-42.56 29.9,-70.7 0,-27.79 -9.85,-50.65 -29.55,-69.3 -19.7,-18.64 -43.97,-28.14 -72.46,-28.14 -28.49,0 -53.11,9.5 -73.16,28.49 -20.05,18.64 -29.9,42.21 -29.9,70zm56.28 -0.7c0,-13.72 4.57,-25.33 13.37,-34.12 8.79,-9.15 19.7,-13.72 32.71,-13.72 13.01,0 24.27,4.57 33.06,13.72 8.79,8.79 13.37,20.4 13.37,34.12 0,28.14 -19.7,48.19 -46.08,48.19 -13.01,0 -24.27,-4.57 -33.06,-13.37 -8.79,-9.14 -13.37,-20.75 -13.37,-34.82zm-73.25 -192.41l-55.23 0 0 286.68 55.23 0 0 -286.68zm-141.84 92.86c0,20.05 -14.42,30.25 -43.62,30.25l-47.13 0 0 -59.45 51 0c22.51,0 39.75,8.09 39.75,29.2zm12.31 110.45c0,20.4 -14.42,30.6 -43.26,30.6l-59.8 0 0 -61.56 58.04 0c29.9,0 45.02,10.2 45.02,30.95z"></path>
   <path class="fil1" d="M67.62 170.09c60.67,35.15 192,55.62 263.7,-10.19 -54.63,102.12 -210.35,107.79 -295.79,67.8l-35.53 160.14c105.5,41.61 363.94,55.99 391.66,-92.9 1.44,-7.22 2.01,-16.39 1.98,-23.77 -0.16,-42.02 -20.64,-79.18 -62.33,-111.26 38.28,-40.7 38.34,-110.74 -17.79,-139.84 -70.93,-36.79 -167.11,-14.24 -212.43,-0.87l-33.48 150.91z"></path>
  </g>
 </g>
</svg>
